<svg xmlns="http://www.w3.org/2000/svg" width="497.875" height="219.86" viewBox="0 0 497.875 219.86"><defs><style>.a{fill:#fff;}</style></defs><path class="a" d="M-116.97-36.4l5.18,13.58c2.1,5.6,4.62,14.84,4.06,20.3-.14,1.26-.42,1.82-.84,1.82V0h21.7V-.7c-1.26,0-3.08-2.24-5.6-6.44a101.186,101.186,0,0,1-7.98-17.22L-128.87-98h-.7l-29.26,83.86c-1.54,4.48-7,13.44-12.32,13.44V0h16.52V-.7c-1.96,0-3.5-1.26-4.2-3.92q-1.26-3.78.84-9.66l7.7-22.12Zm-33.04-.7,15.54-44.8,17.22,44.8ZM-7.21-22.96-30.03-62.72c11.62-.56,25.48-2.94,25.48-17.5,0-4.34-1.26-7.7-3.5-10.08-5.18-5.32-13.58-6.86-21.14-7.28-4.48-.28-8.96-.42-13.16-.42H-78.47v.56c1.68,0,2.66,11.76,2.8,13.58.14,2.8.28,5.74.28,8.82v52.08c0,5.46-.42,16.1-1.96,20.58-.42,1.12-.84,1.68-1.12,1.68V0h17.22V-.7c-1.82,0-2.66-11.48-2.8-13.44a87.078,87.078,0,0,1-.28-8.82V-62.44h21.56l23.38,40.32C-18.69-20.72-6.93-.7-9.03-.7V0H8.19V-.7C5.95-.7-5.11-19.46-7.21-22.96Zm-8.4-57.26c0,6.72-2.24,11.2-6.58,13.58s-11.06,3.5-20.16,3.5H-64.33V-88.76a9.755,9.755,0,0,1,1.82-6.16q1.68-2.52,6.72-2.52h13.44c9.1,0,15.82,1.26,20.16,3.64C-17.85-91.28-15.61-86.8-15.61-80.22Zm46.2,57.26V-75.04c0-5.6.56-15.96,1.96-20.72.42-1.12.84-1.68,1.12-1.68V-98H16.59v.56c1.68,0,2.66,11.76,2.8,13.58.14,2.66.28,5.6.28,8.82v52.08c0,5.32-.56,15.96-1.96,20.58C17.29-1.26,16.87-.7,16.59-.7V0H33.67V-.7c-1.82,0-2.66-11.62-2.8-13.44C30.73-16.94,30.59-19.88,30.59-22.96ZM56.21-62.44c6.3,0,17.22.28,22.68,1.96,1.12.28,1.68.7,1.68,1.12h.7v-6.86h-.7c0,1.82-11.62,2.66-13.44,2.8l-10.92.28V-88.76a11.161,11.161,0,0,1,1.82-6.3c2.24-2.94,7-2.38,10.92-2.38,8.68,0,19.46,2.24,25.48,8.4a13.949,13.949,0,0,1,3.36,5.88l.7-.14L94.57-98H42.07v.56c1.82,0,2.66,11.76,2.8,13.58a87.078,87.078,0,0,1,.28,8.82v52.08c0,5.32-.42,15.96-1.96,20.58-.28,1.12-.7,1.68-1.12,1.68V0H99.05l3.36-20.58-.7-.14c-1.54,9.66-12.74,15.96-21.7,18.48C73.99-.56,70.49-.7,64.61-.7c-3.08,0-5.32-.84-6.58-2.38a10.7,10.7,0,0,1-1.82-6.16Zm68.88,53.2v-65.8c0-5.6.42-15.96,1.96-20.72.28-1.12.7-1.68,1.12-1.68V-98H110.81v.56c1.82,0,2.66,11.76,2.8,13.58.14,2.66.28,5.6.28,8.82v52.08c0,5.32-.42,15.96-1.96,20.58-.42,1.12-.84,1.68-1.12,1.68V0h56.98l3.36-20.58-.7-.14c-1.54,9.66-12.74,15.96-21.7,18.48C142.73-.56,139.37-.7,133.63-.7c-3.36,0-5.6-.84-6.72-2.38A9.755,9.755,0,0,1,125.09-9.24ZM-194.81,84.6l5.18,13.58c2.1,5.6,4.62,14.84,4.06,20.3-.14,1.26-.42,1.82-.84,1.82v.7h21.7v-.7c-1.26,0-3.08-2.24-5.6-6.44a101.184,101.184,0,0,1-7.98-17.22L-206.71,23h-.7l-29.26,83.86c-1.54,4.48-7,13.44-12.32,13.44v.7h16.52v-.7c-1.96,0-3.5-1.26-4.2-3.92q-1.26-3.78.84-9.66l7.7-22.12Zm-33.04-.7,15.54-44.8,17.22,44.8Zm142.8,14.14-22.82-39.76c11.62-.56,25.48-2.94,25.48-17.5,0-4.34-1.26-7.7-3.5-10.08-5.18-5.32-13.58-6.86-21.14-7.28-4.48-.28-8.96-.42-13.16-.42h-36.12v.56c1.68,0,2.66,11.76,2.8,13.58.14,2.8.28,5.74.28,8.82V98.04c0,5.46-.42,16.1-1.96,20.58-.42,1.12-.84,1.68-1.12,1.68v.7h17.22v-.7c-1.82,0-2.66-11.48-2.8-13.44a87.078,87.078,0,0,1-.28-8.82V58.56h21.56l23.38,40.32c.7,1.4,12.46,21.42,10.36,21.42v.7h17.22v-.7C-71.89,120.3-82.95,101.54-85.05,98.04Zm-8.4-57.26c0,6.72-2.24,11.2-6.58,13.58s-11.06,3.5-20.16,3.5h-21.98V32.24a9.755,9.755,0,0,1,1.82-6.16q1.68-2.52,6.72-2.52h13.44c9.1,0,15.82,1.26,20.16,3.64C-95.69,29.72-93.45,34.2-93.45,40.78Zm46.34,17.78c6.3,0,17.22.28,22.68,1.96,1.12.28,1.68.7,1.68,1.12h.7V54.78h-.7c0,1.82-11.62,2.66-13.44,2.8l-10.92.28V32.24a11.161,11.161,0,0,1,1.82-6.3c2.24-2.94,7-2.38,10.92-2.38,8.68,0,19.46,2.24,25.48,8.4a13.949,13.949,0,0,1,3.36,5.88l.7-.14L-8.75,23h-52.5v.56c1.82,0,2.66,11.76,2.8,13.58a87.078,87.078,0,0,1,.28,8.82V98.04c0,5.32-.42,15.96-1.96,20.58-.28,1.12-.7,1.68-1.12,1.68v.7H-4.27l3.36-20.58-.7-.14c-1.54,9.66-12.74,15.96-21.7,18.48-6.02,1.68-9.52,1.54-15.4,1.54-3.08,0-5.32-.84-6.58-2.38a10.7,10.7,0,0,1-1.82-6.16ZM21.91,23c-4.76-.28-9.52,0-14.42,0v.56q.63,0,2.1,1.68c2.52,3.08,4.48,7.7,5.74,11.9a34.535,34.535,0,0,1,1.12,8.82V98.04a33.932,33.932,0,0,1-3.92,15.82,23.5,23.5,0,0,1-2.94,4.76q-1.47,1.68-2.1,1.68v.7H26.25v-.7c-1.26,0-4.06-4.62-5.04-6.44a33.619,33.619,0,0,1-4.06-15.82V36.86L65.73,121h14.7v-.7c-1.26,0-4.06-4.62-5.04-6.44a33.619,33.619,0,0,1-4.06-15.82V45.96A34.18,34.18,0,0,1,75.39,30c.84-1.54,3.78-6.44,5.04-6.44V23H61.39v.56q.63,0,2.1,1.68c2.66,2.94,4.62,7.7,5.88,11.9a29.185,29.185,0,0,1,1.26,8.82v61.18Zm121.1,61.6,5.18,13.58c2.1,5.6,4.62,14.84,4.06,20.3-.14,1.26-.42,1.82-.84,1.82v.7h21.7v-.7c-1.26,0-3.08-2.24-5.6-6.44a101.184,101.184,0,0,1-7.98-17.22L131.11,23h-.7l-29.26,83.86c-1.54,4.48-7,13.44-12.32,13.44v.7h16.52v-.7c-1.96,0-3.5-1.26-4.2-3.92q-1.26-3.78.84-9.66l7.7-22.12Zm-33.04-.7,15.54-44.8,17.22,44.8ZM242.13,46.24l3.64-13.44a38.884,38.884,0,0,0-16.66-8.68,67.695,67.695,0,0,0-19.32-1.54,30.92,30.92,0,0,0-20.72,10.64,28.118,28.118,0,0,0-5.04,10.5,20.816,20.816,0,0,0,1.68,12.74,20.208,20.208,0,0,0,7.98,10.08c7.42,5.32,16.66,8.68,25.48,11.48,7.98,2.66,16.8,6.3,21.84,12.6,4.34,5.32,3.64,14.28.42,20.02-4.06,7.42-13.3,10.36-21.84,10.22a44.753,44.753,0,0,1-30.38-12.32,26.183,26.183,0,0,1-7.84-13.3l-3.36,14.42c9.8,7.28,26.6,11.9,38.92,12.18,11.06.28,19.46-2.24,26.04-11.06,4.62-6.02,7.14-14.14,5.32-21.28-2.94-12.04-14-18.9-25.34-22.4a155.822,155.822,0,0,1-16.24-6.02c-5.88-2.66-12.74-6.58-16.8-11.2a14.538,14.538,0,0,1-3.64-7.14c-1.12-6.3,6.3-13.16,11.48-15.82a32.892,32.892,0,0,1,22.82-1.96C230.93,27.62,241.29,35.04,242.13,46.24Z" transform="translate(248.99 98)"/></svg>