<svg xmlns="http://www.w3.org/2000/svg" xmlns:xlink="http://www.w3.org/1999/xlink" width="289.079" height="150.466" viewBox="0 0 289.079 150.466"><defs><style>.a{fill:#fff;}.b{clip-path:url(#a);}</style><clipPath id="a"><rect class="a" width="143.735" height="150.466"/></clipPath></defs><g transform="translate(-9474.211 141)"><g transform="translate(9631.14 -141)"><path class="a" d="M193.166,80.61c.452,3.97-.1,8.031-.029,12.039l-.035.115a32.7,32.7,0,0,0-.258,5.505,185.848,185.848,0,0,1-3.113,23.549c-.29,2.27-.94,4.47-1.342,6.715l-.03.124c-.831,3.081-1.495,6.212-2.549,9.229a108.848,108.848,0,0,1-7.136,18.083c-.2.376-.365.766-.561,1.145-6.785,13.162-17.3,24.9-31.1,30.835a67.653,67.653,0,0,1-18.542,4.859c9.065.515,18.665,4.541,23.4,12.638a33.5,33.5,0,0,1,4.451,12.578c2.28-9.059,4.049-18.578,8.508-26.963a14.724,14.724,0,0,1,4.324-5.163,11.369,11.369,0,0,1,3.043,2.786c4.82,6.579,6.754,14.631,8.954,22.336.341,1.875.864,3.713,1.207,5.589.073.406-.1,1.184.441,1.266.041-1.587.011-3.174-.032-4.757.011-.451.035-.874.052-1.313a147.052,147.052,0,0,1,9.265-42.706,34.536,34.536,0,0,1,5.284-8.237,45.381,45.381,0,0,1,3.349,4.638,26.7,26.7,0,0,1,2.52,5.417,139.737,139.737,0,0,1,8.155,36.054,82.292,82.292,0,0,1,.547,11.677c1.01-2.769,1.195-5.829,2.12-8.652a83.241,83.241,0,0,1,6.507-18.867,15.35,15.35,0,0,1,4.4-5.236,18.413,18.413,0,0,1,3.326,3.5c3.843,6.538,5.795,13.947,7.7,21.22.584,2.727,1.2,5.448,1.8,8.173.719,3.879,1.412,7.764,1.977,11.669-.111.674-3.586,1.067-3.281-.494-.617-5.278-1.719-10.5-2.756-15.71-1.891-8.847-3.429-18.022-7.69-26.1a4.954,4.954,0,0,0-1.089-1.393c-2.121,2.029-2.858,5.024-3.895,7.675a139.132,139.132,0,0,0-4.128,15.716c-1.231,5.71-2.327,11.454-3.217,17.228-.246,1.145-.343,2.321-.634,3.458-1.089.044-2.18.068-3.266.02-.188-3.77-.335-7.561-.805-11.306,0-3.118-.431-6.222-.663-9.327-.023-.244-.067-.731-.089-.975a24.985,24.985,0,0,0-.444-4.535,130.4,130.4,0,0,0-5.878-33.5,36.457,36.457,0,0,0-3.655-8.487c-.321-.327-.625-1.033-1.177-.887-1.557,1.782-2.356,4.035-3.276,6.175a116.976,116.976,0,0,0-5.573,23.175c-1,7.755-1.634,15.551-2.247,23.346-.138,1.34-.165,2.691-.343,4.028-.161,2.185-.4,4.368-.417,6.561a22.249,22.249,0,0,0-.277,4.423c.747,2.238-3.273,1.525-4.007.9a125.205,125.205,0,0,0-3.727-23.36,94.52,94.52,0,0,0-5.763-16.817c-.819-1.064-1.143-3.131-2.573-3.454-3.082,4.274-4.232,9.557-5.661,14.54-1.856,7.121-3.328,14.349-4.539,21.6-.467,2.312-.8,4.648-1.2,6.971.085,1.747-2.28.653-3.342.931a47.474,47.474,0,0,0-.891-13.956c-2.092-11.724-12.337-20.279-23.486-23.178a25.479,25.479,0,0,0-4.007-.762,10.652,10.652,0,0,1,2.63-.8,71.044,71.044,0,0,0,14.57-6.591,82.1,82.1,0,0,0,20.445-16.867,75.892,75.892,0,0,0,6.979-8.777c1.75-2.485,3.364-5.066,4.9-7.689a5.636,5.636,0,0,0,.368-.659,21.617,21.617,0,0,1,1.757-3.207c.274-.548.546-1.1.82-1.647,1.408-2.774,2.653-5.628,3.807-8.517,6.081-15.068,9.238-31.2,10.516-47.363.156-2.692.279-5.386.414-8.079.009-.062.029-.186.038-.248C193.128,81.891,193.1,81.244,193.166,80.61Z" transform="translate(-125.77 -80.61)"/><path class="a" d="M642.671,276.251a124.148,124.148,0,0,1-2.686-30.661,184.705,184.705,0,0,0,3.934,23.181c.493,1.93.952,3.872,1.554,5.773a106.659,106.659,0,0,0,4.485,12.77,95.031,95.031,0,0,0,4.377,9.035c1.117,2.033,2.374,3.987,3.67,5.91l.1.155c7.634,11.08,19.181,20.136,32.752,22.17.942.223,2.289,0,3.039.445-.8.347-2.269.036-3.32.136a42.067,42.067,0,0,1-34.352-16.74,31.845,31.845,0,0,1-2.429-3.467,53.616,53.616,0,0,1-2.983-5c-.254-.514-.5-1.028-.786-1.521A93.443,93.443,0,0,1,642.671,276.251Z" transform="translate(-561.748 -220.513)"/></g><g transform="translate(9474.211 -141)"><g class="b"><path class="a" d="M154.256,8.529c1.626-.667,2.576-.982,2.576-.982s-.944.3-2.576.982" transform="translate(-70.872 -3.467)"/><path class="a" d="M136.045,50.184H97.064s-12.718,16.8-5.974,26.356c3.831,5.426,9.955,7.33,14.725,8.159L90.358,105.781l-3.875-6.706v-52.2h18.084V29.309H86.483V9.672H74.288a73,73,0,0,1,9.1-4.611,85.724,85.724,0,0,0-9.434,4.611H67.365v4.074A90.772,90.772,0,0,0,53.974,24.766a106.913,106.913,0,0,1-11.9-3.11C60.045,8.308,85.28,4.077,85.28,4.077s-25.465-.245-46.462,15.8a48.978,48.978,0,0,1-3.928-3.026C50.076,5.487,68.763,1.023,83.987,1.266,38.15-8.558-17.889,40.049,5.492,102.189c25.418,67.558,105.566,49.526,119.1,32.916-12.806,9.684-35.459,16.048-57.773,12-2.082-1.106-11.647-6.635-19.878-18.717,1.08.182,2.211.354,3.379.516l.249,2.968h52.706l2.016-24.076h25.586v-5.942H119.51V90.553s.013-5.52,5.243-5.516c5-.644,12.509-2.168,16.977-8.5,6.744-9.553-5.684-26.356-5.684-26.356M73.312,34.994V15.357h7.226V34.994H98.878v6.2H80.537v47.59l-3.615-6.256-3.611,6.25V41.194H54.971v-6.2Zm-14,26.848a46.632,46.632,0,0,1,6.4-9.85l-2.582-4.13L38.062,56.455A80.341,80.341,0,0,1,49.282,32.808V46.877H67.365v16.1c-2.5-.329-5.221-.709-8.053-1.136m8.053,2.3V99.07l-3.877,6.711-2.837-3.868c-1.54-10.16-4.361-30.342-3.213-34.935a26.2,26.2,0,0,1,1.124-3.417c3.119.257,6.1.443,8.8.58m0-49.864V27.4c-3.479-.633-7.756-1.445-11.934-2.329a81.272,81.272,0,0,1,11.934-10.8m-13.256,12.3c4.464.679,9.349,1.193,13.256,1.543v1.189H51.87q1.107-1.411,2.24-2.732m-13.353-3.9c.792.458,1.681.921,2.675,1.377a40.637,40.637,0,0,0,9.027,2.263q-1.368,1.442-2.705,2.994h-.47v.561A77.377,77.377,0,0,0,34.428,56.8c-4.005-1.17-7.268-2.452-9.147-3.837a39.054,39.054,0,0,1-3.556-2.958A63.413,63.413,0,0,1,34.818,28.051a53.686,53.686,0,0,1,5.938-5.376M17.649,65.4a95.475,95.475,0,0,1,2.916-11.951,20.458,20.458,0,0,0,1.638,1.37A30.108,30.108,0,0,0,30.927,58.9l-3.976,1.363a42.762,42.762,0,0,0-9.3,5.131m8.787,1.582-1.55,21.7s-8.209-.226-9.3-5.684C13.517,72.662,26.436,66.977,26.436,66.977m4.4-46.874c1.239-1.081,2.521-2.095,3.818-3.074a11.678,11.678,0,0,0,3.165,3.64,64.837,64.837,0,0,0-7.306,6.766,66.788,66.788,0,0,0-12.15,19,27.475,27.475,0,0,1-3.771-5.883A71.867,71.867,0,0,1,30.834,20.1M12.153,99.421c-8.63-22.146-6.164-42.4,2.247-58.515a18.883,18.883,0,0,0,2.779,8.444A91.531,91.531,0,0,0,11.9,71.274c-5.518,8.23-2.028,16.7,2.132,19.473,3.1,2.069,10.853,4.651,10.853,4.651l-1.035,12.4H33.988a67.363,67.363,0,0,0,7.826,17.074l-.4-.093A56.046,56.046,0,0,1,18.952,113.4a93.618,93.618,0,0,1-6.8-13.982m54.511,47.657c-17.688-3.248-35.14-13.062-47.294-32.98a47.21,47.21,0,0,0,22.049,13.145c.737.194,1.537.38,2.386.557a59.952,59.952,0,0,0,22.859,19.278m-21.5-21.436A70.858,70.858,0,0,1,37.423,107.8H48.554l1.578,18.838c-1.718-.322-3.387-.655-4.967-1m1.271-43.116,1.6,19.08L30.053,101.6l2.582-36.69L55.89,56.644s-3.934,3.292-4.652,11.886c-.271,3.256.883,13.929,2.041,23.328Zm51.1,43.411-41.28,0-1.55-21.7L64,116.115,76.922,94.153l12.918,21.962,9.3-11.886Zm15.773-35.385v11.305H105.79l1.418-16.938c.4.057.791.11,1.162.155,5.12.023,4.938,5.477,4.938,5.477m22.737-17.114c-5.167,7.234-19.635,6.717-19.635,6.717s-14.471.517-19.635-6.717c-3.212-4.5-.254-11.835,2.688-17.065l33.483.015s8.514,9.47,3.1,17.051" transform="translate(0 0)"/><path class="a" d="M227.667,225.265v-.051a1.628,1.628,0,0,0,1.271-1.584,1.563,1.563,0,0,0-.6-1.352,3.444,3.444,0,0,0-2.023-.49,11.9,11.9,0,0,0-1.844.152v6.516h1.039v-2.8h.727a1.218,1.218,0,0,1,1.4,1.14,4.859,4.859,0,0,0,.441,1.664h1.09a5.431,5.431,0,0,1-.414-1.609c-.131-.963-.519-1.482-1.089-1.583m-1.4-.414h-.752v-2.209a5.167,5.167,0,0,1,.752-.051c1.168,0,1.584.57,1.584,1.14,0,.807-.726,1.119-1.584,1.119" transform="translate(-103.134 -101.9)"/><path class="a" d="M223.52,217.031h-.026a5.748,5.748,0,1,0,.026,0m0,10.795a4.95,4.95,0,0,1-.026-9.886h.026a4.951,4.951,0,0,1,0,9.886" transform="translate(-100.026 -99.714)"/></g></g></g></svg>