<svg xmlns="http://www.w3.org/2000/svg" width="649.042" height="350.493" viewBox="0 0 649.042 350.493"><defs><style>.a{fill:#fff;}</style></defs><path class="a" d="M408.925,350.493H382.569c-.166,0-.333-.006-.5-.018l-1.7-.124c-.6-.046-1.243-.1-1.925-.2a15.722,15.722,0,0,1-2.86-.694,13.372,13.372,0,0,1-3.315-1.7,13.654,13.654,0,0,1-4.335-5.073,13.334,13.334,0,0,1-1.329-4.64,13.443,13.443,0,0,1-.017-2.416c.174-2.013.449-4.078.818-6.138s.842-4.158,1.408-6.279c.561-2.1,1.231-4.272,1.99-6.462.333-.962.694-1.954,1.072-2.949a13.692,13.692,0,0,1-1.729.11,13.912,13.912,0,0,1-1.688-.1,14.127,14.127,0,0,1-1.683-.317,13.857,13.857,0,0,1-1.642-.53,13.651,13.651,0,0,1-1.571-.738c-.735-.4-1.468-.837-2.179-1.285-.733-.463-1.45-.945-2.131-1.433s-1.359-1-2.03-1.541c-.7-.565-1.339-1.11-1.952-1.666-.725-.662-1.391-1.308-2.034-1.977l-2.169,2.115-2.539,2.484a13.287,13.287,0,0,1-1.027.908c-.317.256-.677.517-1.04.754a13.092,13.092,0,0,1-1.187.69c-.361.188-.771.375-1.186.541-.4.158-.812.3-1.232.423-.357.107-.775.209-1.209.3a13.149,13.149,0,0,1-1.333.192c-.383.039-.836.06-1.275.06a13.56,13.56,0,0,1-3.461-.448,13.7,13.7,0,0,1-1.662-.553,13.958,13.958,0,0,1-1.56-.755c-1.1-.621-2.177-1.3-3.2-2.021s-2.03-1.506-2.98-2.325-1.89-1.714-2.757-2.622-1.718-1.885-2.507-2.884c-.772-.974-1.514-2-2.205-3.053-.637-.972-1.245-1.987-1.807-3.016-1.382,1.452-2.768,2.915-4.12,4.35-1.756,1.861-3.6,3.829-5.483,5.849-1.741,1.868-3.577,3.85-5.456,5.892a13.98,13.98,0,0,1-1.054,1.022,13.413,13.413,0,0,1-2.324,1.633,13.5,13.5,0,0,1-1.241.612c-.462.2-.88.35-1.315.485a13.357,13.357,0,0,1-1.37.349,13.171,13.171,0,0,1-1.325.2,13.891,13.891,0,0,1-3.529-.1,13.265,13.265,0,0,1-2.035-.486,13.567,13.567,0,0,1-1.98-.818,13.379,13.379,0,0,1-1.751-1.069l-5.2-3.624-10-6.979c-1.116,1.39-2.142,2.661-3.136,3.888-1.311,1.616-2.515,3.086-3.681,4.5-1.341,1.621-2.523,3.031-3.613,4.311-1.246,1.467-2.432,2.841-3.627,4.2a13.641,13.641,0,0,1-4.619,3.419,14.334,14.334,0,0,1-1.365.532,13.7,13.7,0,0,1-1.385.378,13.936,13.936,0,0,1-2.9.31c-.312,0-.639-.011-.97-.033-.415-.032-.76-.072-1.117-.128-.289-.043-.623-.107-.966-.186-.327-.078-.608-.153-.883-.237l-4.235-1.164-10.3-2.839-12.489-3.443-7.448-2.052c-1.042,1.367-2.1,2.76-3.143,4.139-2.1,2.772-4.029,5.347-5.913,7.872-1.929,2.587-3.9,5.25-5.861,7.914-1.911,2.6-3.858,5.267-5.786,7.926a13.82,13.82,0,0,1-11.173,5.7c-.075,0-.295,0-.37,0l-.114,0-.217-.006-.1-.005c-.754-.012-3.417-.059-15.88-.287l-34.682-.637-34.614-.638c-11.323-.21-14.856-.276-15.752-.3h-.124a17.811,17.811,0,0,1-2.394-.156,17.553,17.553,0,0,1-2.306-.471,17.178,17.178,0,0,1-4.3-1.844L61.292,341.9l-2.766-1.657-1.46-.869c-1.287-.737-6.052-3.629-6.591-3.956-2.608-1.582-7.833-4.763-13.514-8.291-5.722-3.552-10.423-6.53-13.973-8.852-6.637-4.338-8.067-5.6-8.887-6.439l-.446-.457v0c-.641-.655-1.439-1.47-2.212-2.326a38.723,38.723,0,0,1-3.071-3.824,37.728,37.728,0,0,1-3.031-5.155,50.3,50.3,0,0,1-2.674-6.7,59.128,59.128,0,0,1-1.787-6.814,46.171,46.171,0,0,1-.753-5.582C0,279.219-.008,277.718,0,276.606l.022-1.431,0-.1v-.017c.01-.516.019-1,.017-1.479a16.376,16.376,0,0,1,.178-2.553,16.873,16.873,0,0,1,.553-2.48,17.268,17.268,0,0,1,.9-2.347,18.3,18.3,0,0,1,4.546-6.016,18.538,18.538,0,0,1,4.2-2.755c.136-.065.274-.125.411-.18l1.836-.734c.536-.243,1.09-.462,1.647-.653a18.232,18.232,0,0,1,1.93-.545,18.145,18.145,0,0,1,3.958-.444c.439,0,.889.018,1.374.054s.957.095,1.416.168c.512.084.973.178,1.409.288.355.085.755.2,1.156.327l1.729.49,4.393,1.255,7.364,2.108,4.613-67.968c.013-.183.032-.367.059-.545l6.19-90.771c-.307-.371-.6-.761-.872-1.159a14.929,14.929,0,0,1-.861-1.423c-.179-.327-.377-.735-.557-1.149s-.336-.826-.474-1.243c-.128-.384-.246-.8-.351-1.225-.108-.455-.193-.891-.26-1.332-.062-.4-.11-.83-.139-1.251s-.043-.859-.037-1.277c.006-.436.029-.866.069-1.277s.1-.83.164-1.227c.08-.444.168-.848.278-1.27s.231-.819.377-1.235c.131-.381.292-.791.465-1.185s.356-.772.55-1.135.412-.746.637-1.1.46-.7.716-1.043c.28-.374.551-.709.827-1.024s.563-.624.873-.931c3.472-3.452,7.058-6.984,10.66-10.5,3.508-3.422,7.114-6.907,10.719-10.357s7.227-6.882,10.735-10.177c3.666-3.44,7.273-6.792,10.719-9.964.4-.372.83-.732,1.271-1.067s.907-.655,1.388-.953c.457-.285.955-.561,1.48-.819.5-.247,1.02-.472,1.54-.67.55-.208,1.068-.379,1.583-.521.451-.131.985-.256,1.545-.362s1.1-.178,1.646-.229,1.1-.077,1.652-.077c.526,0,1.053.024,1.566.07.5.041,1.036.114,1.554.209.49.086,1.009.2,1.5.341.45.121.955.284,1.458.473.341.123.75.292,1.15.475.382.174.77.371,1.153.585.348.193.7.408,1.052.637.4.266.738.511,1.069.77.285.221.61.5.94.8.313.289.6.579.891.886.309.335.589.662.854,1,.189.24.383.505.577.788.426.557,1.516,2,3.905,5.177l7.706,10.236,13.58,18.048L155.749,87.6l3.3,4.385,4.561,6.059.274.143c.417.225.795.447,1.156.679.383.246.752.505,1.1.771.312.236.647.512.968.8.346.31.646.6.945.913,1.668-1.628,3.415-3.3,5.191-4.983,1.539-1.456,3.173-2.982,4.995-4.664,1.775-1.639,3.416-3.136,4.5-4.12.392-.359.819-.712,1.267-1.049s.91-.651,1.386-.941c.444-.272.928-.537,1.437-.787.541-.261,1.03-.471,1.539-.663s.984-.346,1.494-.49c.571-.157,1.083-.274,1.609-.37s1.075-.17,1.6-.217,1.062-.071,1.6-.071a17.915,17.915,0,0,1,2.349.153,17.721,17.721,0,0,1,2.312.47,16.851,16.851,0,0,1,2.218.774,17.063,17.063,0,0,1,2.088,1.069,29.744,29.744,0,0,0,3.188,1.669,25.323,25.323,0,0,0,3.145,1.171,22.244,22.244,0,0,0,3.066.68,20.637,20.637,0,0,0,3.032.225,20.062,20.062,0,0,0,4.157-.44,21.842,21.842,0,0,0,4.14-1.328,25.664,25.664,0,0,0,4.121-2.263,31.5,31.5,0,0,0,4.035-3.239,16.056,16.056,0,0,1,1.288-1.1c.433-.335.889-.654,1.355-.946.445-.282.931-.556,1.445-.814s1.013-.479,1.527-.679,1.031-.373,1.552-.523c.557-.158,1.084-.283,1.611-.383.561-.1,1.1-.178,1.647-.229s1.095-.076,1.651-.076l.666.011c.08,0,.161.007.242.012l.124.006a17.528,17.528,0,0,1,3.471.55,17.22,17.22,0,0,1,3.326,1.25l0,0,.008,0c.444-.324.911-.631,1.389-.915a17.4,17.4,0,0,1,2.847-1.356,17.835,17.835,0,0,1,3.02-.82,18.03,18.03,0,0,1,3.167-.279c.47,0,.944.019,1.409.055.487.038.973.1,1.445.175.457.074.923.169,1.384.283.515.13.979.266,1.417.415.459.155.917.332,1.363.527.466.206.9.417,1.321.646.447.242.881.5,1.29.775.455.306.838.585,1.205.879l2.988,2.393,3.091-3,1.117-1.08a16.143,16.143,0,0,1,1.248-1.094c.411-.326.851-.642,1.308-.939s.929-.571,1.428-.83c.474-.248.976-.48,1.492-.689.49-.2,1.01-.384,1.547-.546s1.067-.295,1.617-.4c.509-.105,1.069-.191,1.621-.248.493-.053,1.023-.086,1.576-.1h.315c.534,0,1.074.024,1.6.072.548.051,1.061.12,1.57.212.181.032.366.069.552.109-.142-1.07-.255-1.935-.314-2.388-.025-.147-.048-.3-.071-.46-.039-.3-.064-.526-.084-.753l-.042-.653c-.011-.275-.015-.491-.015-.744l.013-2.5a15.531,15.531,0,0,1,.129-1.916,15.845,15.845,0,0,1,.362-1.875,15.959,15.959,0,0,1,1.4-3.569,16.518,16.518,0,0,1,1.024-1.645,16.26,16.26,0,0,1,1.2-1.5,16.436,16.436,0,0,1,1.347-1.331,16.689,16.689,0,0,1,1.5-1.177c.381-.267.774-.517,1.169-.745.35-.208.764-.43,1.167-.624s.793-.366,1.2-.526c.355-.141.757-.284,1.195-.425.544-.166.984-.283,1.428-.38.359-.084.8-.166,1.252-.233.4-.061.83-.11,1.272-.145.5-.034.923-.049,1.357-.049s.815.013,1.18.04c.271.014.654.051,1.024.1s.75.105,1.119.176c.389.074.761.158,1.1.247.843.214,1.759.489,2.649.793s1.788.658,2.631,1.028c.859.378,1.7.791,2.512,1.228.848.461,1.664.949,2.426,1.45.708.459,1.469,1,2.2,1.565s1.428,1.153,2.1,1.77,1.319,1.256,1.934,1.918,1.223,1.374,1.773,2.071c.56.712,1.1,1.459,1.606,2.22s.989,1.561,1.419,2.345.836,1.594,1.21,2.427.712,1.683,1.014,2.536c.309.878.585,1.78.82,2.683.239.927.438,1.853.59,2.752v0h0v0c.488-.317.955-.619,1.389-.9,1.2-.774,2.256-1.444,2.945-1.88.3-.186.565-.344.843-.5.32-.176.611-.326.918-.473s.626-.288.936-.414c.364-.147.7-.271,1.023-.378.671-.226,1.382-.433,2.114-.616s1.485-.336,2.23-.457,1.51-.214,2.253-.272c.723-.059,1.48-.089,2.251-.089a35,35,0,0,1,3.656.194c1.209.127,2.455.322,3.7.578a50.909,50.909,0,0,1,6.629,1.869c1.827.638,3.781,1.418,5.972,2.383l.673.3V76.33l.009-.049,0-.02,3.278-18.51,3.227-18.2c.992-5.6,1.314-7.408,1.436-8.08a15.193,15.193,0,0,1,.361-1.819,15.414,15.414,0,0,1,.648-1.935,15.729,15.729,0,0,1,2.033-3.54,15.959,15.959,0,0,1,1.344-1.544,16.274,16.274,0,0,1,1.53-1.363,16.876,16.876,0,0,1,1.664-1.147,17.55,17.55,0,0,1,1.82-.951c3.529-1.587,7.094-3.166,10.6-4.693,3.4-1.484,6.87-2.977,10.619-4.566,3.583-1.516,7.153-3,10.611-4.421,3.52-1.445,7.072-2.878,10.558-4.26.513-.2,1.04-.386,1.569-.538.574-.162,1.1-.288,1.616-.384s1.059-.175,1.618-.227c.534-.05,1.086-.076,1.641-.076a17.8,17.8,0,0,1,6.885,1.372,17.241,17.241,0,0,1,2.149,1.076,16.78,16.78,0,0,1,1.657,1.109,16.5,16.5,0,0,1,4.08,4.454,16.165,16.165,0,0,1,.958,1.777,15.923,15.923,0,0,1,.729,1.91,15.677,15.677,0,0,1,.474,1.99,15.242,15.242,0,0,1,.2,2.057l.153,4.8a15.157,15.157,0,0,1-.037,1.653,14.986,14.986,0,0,1-.608,3.237c-.133.442-.291.889-.471,1.329-.16.453-.521,1.45-1.286,3.555l-2.838,7.809-2.857,7.838c-.433,1.185-.705,1.931-.906,2.479l.472,15.837c.839-.423,1.717-.839,2.609-1.236,1.027-.458,2.063-.891,3.081-1.285,1.056-.411,2.132-.8,3.2-1.158,1.046-.355,2.16-.7,3.311-1.035,1.1-.315,2.207-.61,3.3-.876,1.116-.273,2.252-.528,3.375-.757s2.3-.445,3.458-.639c1.191-.2,2.386-.374,3.552-.524,1.147-.151,2.32-.284,3.486-.4s2.348-.209,3.535-.285c1.142-.073,2.342-.131,3.566-.171,1.189-.038,2.4-.058,3.609-.058l1.465.013c.583.008,1.135.041,1.688.1.469.046,1.009.127,1.562.236.534.1,1.049.231,1.576.385.545.16,1.055.335,1.557.534s.955.4,1.416.633c.527.271.962.514,1.372.766.47.292.9.587,1.32.9s.811.639,1.2.991.754.711,1.1,1.086c.382.412.722.817,1.041,1.236s.609.839.888,1.287c.287.463.55.934.781,1.4a16.1,16.1,0,0,1,.646,1.487,15.782,15.782,0,0,1,.5,1.573,15.94,15.94,0,0,1,.334,1.627,15.531,15.531,0,0,1,.16,1.665l.108,2.459a15.4,15.4,0,0,1-.1,2.536,15.181,15.181,0,0,1-.5,2.461,15.486,15.486,0,0,1-.9,2.358,15.8,15.8,0,0,1-1.171,2.034c-.255.409-.771,1.235-1.457,2.328l-3.593,5.726L498.1,104.457c.156.1.323.2.5.3.452.268.918.528,1.383.775s.929.471,1.393.685c.505.234.974.436,1.433.619.5.2.99.385,1.492.558a17.871,17.871,0,0,1,3.493,1.641c.348.212.695.44,1.03.677.5-.524.962-1,1.423-1.47,1.147-1.164,2.24-2.208,3.342-3.191,1.244-1.113,2.507-2.153,3.755-3.09.1-.077.209-.152.315-.223a25.484,25.484,0,0,1,2.837-1.645,21.584,21.584,0,0,1,3.019-1.227,20.59,20.59,0,0,1,3.179-.747,21.251,21.251,0,0,1,3.228-.241c.636,0,1.259.031,1.9.083.666.059,1.281.133,1.881.229s1.237.221,1.855.369c.548.131,1.093.28,1.62.442.4.109.823.23,1.248.361.471.147.931.3,1.4.47.513.186.971.363,1.4.539.548.228.971.413,1.371.6.426.2.864.412,1.3.639s.873.466,1.3.709c.4.23.823.487,1.257.763s.851.556,1.252.84c1.039.7,2.211,1.519,3.484,2.423,1.094.776,2.246,1.605,3.523,2.537s2.493,1.831,3.421,2.52l3.243,2.417.016.012c2.25,1.681,4.8,3.586,7.35,5.435,2.737,1.984,5.128,3.653,7.309,5.1,2.588,1.717,4.929,3.158,7.157,4.406a67.077,67.077,0,0,0,6.1,3.053c.066-.009.137-.019.21-.032a8.1,8.1,0,0,0,.852-.2c.252-.071.5-.152.743-.241l.119-.046c.264-.127.49-.229.733-.333.361-.149.658-.264.963-.372.329-.115.637-.214.944-.3.331-.1.676-.185,1.027-.261.219-.05.56-.122.941-.183.256-.044.561-.086.883-.124.4-.042.7-.067,1.012-.084.348-.018.668-.027.978-.027a18.156,18.156,0,0,1,8.363,2.049,17.987,17.987,0,0,1,1.893,1.132,18.25,18.25,0,0,1,1.745,1.357,17.928,17.928,0,0,1,1.577,1.577,17.621,17.621,0,0,1,1.387,1.8l3.1,4.6a17.741,17.741,0,0,1,1,1.7,17.119,17.119,0,0,1,.8,1.82,16.433,16.433,0,0,1,.579,1.868,16.009,16.009,0,0,1,.351,1.913,16.2,16.2,0,0,1,.119,1.968,16.017,16.017,0,0,1-.131,2,15.764,15.764,0,0,1-1,3.836,16.013,16.013,0,0,1-1.136,2.278,15.6,15.6,0,0,1-1.487,2.062,15.9,15.9,0,0,1-1.774,1.778,16.327,16.327,0,0,1-1.918,1.411c-.474.333-1.127.786-1.791,1.243l-5.268,3.624-2.634,1.81c-.006.157-.005.319,0,.494l5.577,87.718,9.747-2.789,4.023-1.146c.377-.12.762-.229,1.145-.324.461-.111.9-.2,1.355-.277.525-.084.987-.139,1.456-.174.421-.034.9-.052,1.376-.052a17.977,17.977,0,0,1,2,.11,18.992,18.992,0,0,1,1.954.33,18.452,18.452,0,0,1,3.788,1.295l3.714,1.755a18.925,18.925,0,0,1,2.228,1.253,18.416,18.416,0,0,1,3.776,3.283,18.791,18.791,0,0,1,1.528,2.014,18.333,18.333,0,0,1,1.248,2.24,17.352,17.352,0,0,1,1.453,4.83,17.155,17.155,0,0,1,.177,2.562,61.994,61.994,0,0,1-1.581,13.467,58,58,0,0,1-5.042,13.86,47.245,47.245,0,0,1-9.364,12.558,42.24,42.24,0,0,1-14.122,8.861c-1.839.863-3.712,1.751-5.566,2.64-1.949.934-3.989,1.921-6.064,2.934-2.021.988-4.133,2.029-6.278,3.1-2.185,1.088-4.365,2.181-6.478,3.25a17.418,17.418,0,0,1-1.763.773,17.172,17.172,0,0,1-3.777.936c-.611.078-1.2.124-1.806.141l-3.942.214-10.541.574-32.1,1.743-16.567.9-15,.814-10.909.588-.358.019-.134.007c-2.161.116-3.148.169-3.613.192-.112.01-.217.018-.319.024l-.191.012-.184.008h-.05l-.13,0-.386,0c-.426,0-.855-.02-1.276-.06-.379-.033-.8-.091-1.224-.168s-.82-.171-1.243-.29-.827-.255-1.22-.407c-.424-.165-.815-.339-1.195-.529a12.817,12.817,0,0,1-1.15-.646c-.332-.2-.7-.458-1.04-.717-.312-.234-.652-.518-.981-.82-.829-.757-1.645-1.538-2.424-2.323-.929-.932-1.852-1.913-2.744-2.916-1.01-1.139-1.986-2.314-2.9-3.493l-.276-.36L465.223,331l-.73.113c-.2.036-.4.068-.6.094-.119.019-.364.05-.6.072-.181.019-.425.036-.651.046s-.433.015-.643.015a13.813,13.813,0,0,1-6.806-1.8,14.079,14.079,0,0,1-1.992-1.38c-.555-.462-1.095-.928-1.648-1.422-.59-.53-1.115-1.016-1.6-1.487-.525-.5-1.039-1.017-1.528-1.525-.472-.488-.96-1.012-1.452-1.559s-.951-1.075-1.388-1.6c-.227-.272-.455-.55-.677-.828l-8.558,2.524-.741.217c-.309.1-.621.19-.929.266-.347.085-.685.155-1.033.214-.423.067-.765.109-1.111.138-.429.031-.771.045-1.108.045-.37,0-.739-.015-1.1-.045-.3-.023-.643-.063-.991-.116-.227-.034-.466-.077-.712-.129l-.019.064-.012.039,0,.012c-.25.831-.487,1.684-.7,2.533-.2.791-.387,1.582-.552,2.352s-.318,1.558-.453,2.338-.253,1.549-.354,2.32-.186,1.546-.252,2.278a17.154,17.154,0,0,1-3.42,8.846,17.392,17.392,0,0,1-7.628,5.705,17.681,17.681,0,0,1-6.3,1.159ZM379.551,301.2l.144,11.514c-.9,2.151-1.71,4.265-2.409,6.283-.706,2.036-1.326,4.049-1.843,5.984s-.949,3.864-1.284,5.721-.58,3.707-.734,5.5a6.574,6.574,0,0,0,.008,1.181,6.433,6.433,0,0,0,.221,1.158,6.561,6.561,0,0,0,.429,1.1,6.658,6.658,0,0,0,.627,1.024,7.074,7.074,0,0,0,.732.837,6.357,6.357,0,0,0,1.588,1.13,6.872,6.872,0,0,0,.82.345,8.807,8.807,0,0,0,1.6.383c.5.074.973.11,1.39.143l.03,0,1.7.124h26.356a10.679,10.679,0,0,0,5.582-1.558,10.451,10.451,0,0,0,2.877-2.589,10.267,10.267,0,0,0,2.055-5.313c.073-.822.169-1.687.284-2.569.114-.863.248-1.735.4-2.591.151-.872.321-1.748.5-2.6s.39-1.737.612-2.608c.241-.945.5-1.892.782-2.817s.581-1.859.888-2.735c.317-.906.65-1.795.99-2.642.346-.863.712-1.717,1.089-2.54.178.153.388.332.6.5.179.149.371.3.6.489.212.167.412.321.611.47s.41.305.612.451c.156.113.3.211.452.3s.312.18.472.262.327.155.5.222.342.134.513.187.346.1.51.142c.186.045.356.078.518.1.186.028.357.048.523.061s.349.021.528.021c.16,0,.337-.007.541-.021.168-.014.343-.035.536-.066.178-.03.356-.067.53-.109s.345-.093.52-.152l.855-.251,2.5-.736,1.212-.358,3-.885c1.868-.55,3.885-1.146,6-1.771l.084-.027.165-.048.063-.018.033-.01.024-.007.048-.015.024-.007h0l.023-.007.021,0c.327.5.671,1,1.022,1.495s.716.986,1.087,1.468.755.96,1.152,1.436c.376.454.784.924,1.211,1.4s.871.953,1.289,1.385.883.9,1.35,1.347c.428.413.889.84,1.409,1.307.483.432.975.856,1.461,1.261a6.8,6.8,0,0,0,2.071,1.187,6.85,6.85,0,0,0,2.345.412c.1,0,.214,0,.333-.008s.221-.013.333-.025c.1-.009.2-.022.333-.042.11-.014.222-.033.332-.054l.87-.135.13-.02.482-.075.265-.041.311-.048.012,0,2.8-.437,1.183-.185.985-.154,1.88-.293.617-.1.236-.037,2.608-.406.155-.021,1.045-.165.066-.012.394-.062.131-.021c.156-.026.292-.046.391-.061h0c.116-.019.2-.032.252-.04l.094-.015c.78,1.2,1.64,2.4,2.556,3.589.823,1.061,1.7,2.116,2.6,3.135.805.9,1.641,1.793,2.485,2.641.7.706,1.441,1.415,2.2,2.106.167.153.336.294.5.419s.349.252.538.368a6.286,6.286,0,0,0,.568.317c.185.093.386.182.6.264.192.074.4.142.6.2s.419.109.617.145c.22.04.425.068.627.086s.422.03.635.03c.063,0,.129,0,.191,0l.1,0h.009l.083,0,.18-.012c.058,0,.116-.01.175-.017.034,0,1.787-.093,4.263-.226l2.791-.15.679-.037,7.435-.4,5.24-.284.984-.053.341-.018,8.442-.458,2.283-.123.845-.046,13.436-.727,8.771-.476,3.2-.174,5.207-.283,6.767-.367,8.152-.443,8.715-.475,1.068-.058.758-.041,4.045-.219a11.435,11.435,0,0,0,1.188-.088,10.262,10.262,0,0,0,3.334-1.028c2.119-1.072,4.313-2.172,6.521-3.271,2.152-1.07,4.279-2.119,6.322-3.117,2.08-1.015,4.134-2.009,6.106-2.954s3.933-1.876,5.865-2.781a36.23,36.23,0,0,0,3.426-1.478,35.337,35.337,0,0,0,3.149-1.764c.987-.621,1.956-1.3,2.88-2.022.9-.7,1.78-1.458,2.618-2.252a40.416,40.416,0,0,0,8-10.747,48.835,48.835,0,0,0,2.631-6.032,53.984,53.984,0,0,0,1.808-6.191,56.42,56.42,0,0,0,1.05-6.124,54.144,54.144,0,0,0,.357-5.855,10.127,10.127,0,0,0-.1-1.517,10.478,10.478,0,0,0-.332-1.49,10.59,10.59,0,0,0-.551-1.441,11.192,11.192,0,0,0-.764-1.373,11.779,11.779,0,0,0-.956-1.261,11.552,11.552,0,0,0-2.382-2.069,11.814,11.814,0,0,0-1.391-.784l-3.7-1.746a11.6,11.6,0,0,0-2.37-.81,12.089,12.089,0,0,0-1.225-.208,11.056,11.056,0,0,0-1.231-.068c-.3,0-.591.011-.86.033s-.553.054-.845.1-.563.1-.829.168-.544.146-.809.233l-.117.033-.8.228-3.208.915c-1.543.441-3.585,1.025-6.425,1.839l-4.705,1.347-5.869,1.68-.924.262-.013.005-6.121-96.276a11.809,11.809,0,0,1,0-1.32,11.6,11.6,0,0,1,.145-1.294,10.963,10.963,0,0,1,.292-1.259,11.268,11.268,0,0,1,.436-1.223l.138-.095c.211-.145.854-.585,1.734-1.189l3.108-2.135.935-.643c1.386-.953,2.766-1.9,3.95-2.718l.12-.082c.977-.673,1.891-1.3,1.962-1.358a9.52,9.52,0,0,0,1.18-.86,9.087,9.087,0,0,0,1.013-1.016,8.72,8.72,0,0,0,.833-1.156,9.026,9.026,0,0,0,.641-1.282,8.923,8.923,0,0,0,.561-2.164,9.123,9.123,0,0,0,.074-1.124,9.3,9.3,0,0,0-.274-2.253,9.552,9.552,0,0,0-.343-1.1,10.13,10.13,0,0,0-.472-1.068,10.751,10.751,0,0,0-.6-1.018l-3.1-4.608a10.637,10.637,0,0,0-.833-1.079,11.083,11.083,0,0,0-.969-.971,11.438,11.438,0,0,0-1.088-.846,11.543,11.543,0,0,0-2.431-1.263,11.4,11.4,0,0,0-1.289-.4,11.087,11.087,0,0,0-2.662-.323c-.19,0-.385.005-.6.017-.186.01-.38.026-.593.048s-.409.053-.584.082-.353.064-.574.114c-.195.043-.391.093-.582.149s-.372.114-.571.183c-.179.063-.362.133-.558.214-.177.075-.359.158-.541.248-.08.041-.3.134-.639.261-.4.147-.811.28-1.221.4a14.946,14.946,0,0,1-1.581.361,10.338,10.338,0,0,1-1.721.158h-.082a.165.165,0,0,0-.03,0h-.03c-.114,0-.229-.005-.343-.015s-.236-.025-.34-.043-.227-.044-.335-.071-.207-.057-.328-.1c-1.229-.51-2.507-1.092-3.8-1.729-1.227-.605-2.507-1.281-3.8-2.007-2.379-1.333-4.865-2.862-7.6-4.676-2.26-1.5-4.727-3.222-7.542-5.263-2.6-1.886-5.285-3.891-7.441-5.5l-.34-.254-.162-.121c-.885-.66-1.8-1.343-2.729-2.033s-2.138-1.585-3.373-2.485-2.379-1.725-3.452-2.486c-1.24-.881-2.375-1.67-3.471-2.413-.31-.219-.638-.439-.974-.653-.353-.224-.681-.424-1-.609-.339-.2-.685-.385-1.028-.563s-.693-.35-1.049-.515c-.308-.144-.639-.289-1.071-.469-.344-.141-.7-.28-1.1-.423s-.762-.263-1.117-.374c-.389-.12-.771-.229-1.134-.325-.425-.134-.868-.256-1.317-.363s-.89-.2-1.333-.266-.887-.125-1.348-.165-.924-.058-1.357-.061a14.477,14.477,0,0,0-2.2.164,13.7,13.7,0,0,0-2.117.5,14.875,14.875,0,0,0-2.075.845,18.64,18.64,0,0,0-2.069,1.2c-1.091.819-2.2,1.735-3.307,2.723-.994.887-1.987,1.835-3.033,2.9-.877.886-1.792,1.852-2.8,2.952-.911,1-1.8,2-2.587,2.881l-.007.008-1.142,1.269a9.538,9.538,0,0,0-.446-1.051,10.014,10.014,0,0,0-1.258-1.935,10.271,10.271,0,0,0-.792-.857,10.548,10.548,0,0,0-.895-.772,10.7,10.7,0,0,0-.978-.672,10.918,10.918,0,0,0-1.05-.564,10.633,10.633,0,0,0-1.109-.449c-.6-.208-1.208-.434-1.8-.672-.566-.226-1.16-.483-1.766-.763-.568-.262-1.148-.548-1.725-.85-.56-.3-1.125-.613-1.678-.941-.575-.342-1.143-.7-1.688-1.068s-1.075-.749-1.579-1.134-1-.789-1.464-1.193-.916-.824-1.344-1.25l.2-.32c.149-.236.344-.546.548-.871l.83-1.321,1.048-1.665.5-.784c.608-.97,1.321-2.105,2.123-3.381l.353-.562,1.338-2.13,1.736-2.765.54-.859,2.081-3.312c1.116-1.777,2.291-3.65,3.593-5.725.907-1.445,1.512-2.411,1.541-2.461a8.931,8.931,0,0,0,.715-1.226,8.557,8.557,0,0,0,.5-1.305,8.382,8.382,0,0,0,.279-1.367,8.545,8.545,0,0,0,.053-1.409l-.109-2.472a8.687,8.687,0,0,0-.089-.931,8.831,8.831,0,0,0-.47-1.8,9.421,9.421,0,0,0-.378-.869c-.132-.268-.284-.54-.452-.811s-.341-.52-.527-.762-.38-.475-.6-.715-.439-.452-.673-.663-.488-.42-.736-.607-.515-.369-.789-.54c-.253-.156-.527-.309-.837-.469-.281-.14-.579-.274-.885-.4s-.618-.228-.949-.325-.648-.174-.972-.238c-.351-.069-.675-.117-.99-.148s-.667-.057-1.005-.061l-1.4-.013c-1.134,0-2.272.018-3.383.054-1.152.038-2.28.092-3.354.161-1.108.071-2.224.161-3.315.267s-2.184.23-3.266.372-2.189.3-3.3.487c-1.089.182-2.171.382-3.217.594s-2.089.448-3.126.7c-1,.243-2.017.513-3.022.8-1.049.3-2.069.621-3.03.947s-1.94.677-2.9,1.051c-.91.352-1.841.74-2.766,1.154-.9.4-1.782.822-2.617,1.251-.88.451-1.748.928-2.58,1.418s-1.639,1-2.413,1.525-1.527,1.073-2.233,1.625-1.4,1.134-2.046,1.72l-.88-29.534c.037-.085.675-1.829,1.358-3.7.839-2.3,1.88-5.154,2.855-7.832l.245-.673.049-.134c.947-2.6,1.841-5.062,2.544-7,.781-2.15,1.3-3.592,1.327-3.672a8.284,8.284,0,0,0,.312-.858,8.141,8.141,0,0,0,.333-1.774,8.386,8.386,0,0,0,.02-.908l-.154-4.809a8.324,8.324,0,0,0-.112-1.125,8.682,8.682,0,0,0-.264-1.106,8.9,8.9,0,0,0-.408-1.071,9.383,9.383,0,0,0-1.233-1.977,9.778,9.778,0,0,0-.8-.873,9.9,9.9,0,0,0-.913-.78,10.066,10.066,0,0,0-1.009-.674,10.336,10.336,0,0,0-1.29-.645A11.036,11.036,0,0,0,446.3,6.86c-.348,0-.69.015-1.015.046-.342.032-.676.079-1,.14s-.625.133-.972.231c-.315.091-.633.2-.946.325-3.455,1.37-6.983,2.793-10.485,4.23-3.432,1.407-6.977,2.883-10.537,4.39-3.658,1.55-7.209,3.076-10.552,4.537-3.485,1.52-7.029,3.09-10.532,4.665a10.472,10.472,0,0,0-1.073.56,9.99,9.99,0,0,0-.985.678,9.354,9.354,0,0,0-.883.786,9.113,9.113,0,0,0-.769.883,8.764,8.764,0,0,0-.637.959,8.479,8.479,0,0,0-.863,2.1,8.214,8.214,0,0,0-.213,1.109c-.007.031-.581,3.259-1.466,8.247l-.912,5.146-.4,2.231c-.591,3.333-1.26,7.11-1.919,10.828-1.064,6-2.259,12.749-3.278,18.509-.964,5.448-1.529,8.644-1.564,8.859-.2-.085-.415-.183-.688-.306-.164-.074-.329-.15-.489-.225l-.1-.045-.131-.06-.625-.293-.044-.021-.076-.036-.083-.039-.689-.325-.021-.01-.1-.045-.031-.015-.031-.015-.1-.048-.01,0-.05-.024-.078-.038-.006,0-.018-.009-.059-.028-.088-.042,0,0-.07-.034-.071-.034-.017-.008c-1.591-.753-3.237-1.531-4.97-2.294-2.025-.892-3.817-1.608-5.479-2.188-.973-.342-1.931-.647-2.846-.908-.988-.282-1.961-.522-2.893-.714-.993-.2-1.975-.361-2.917-.465a26.612,26.612,0,0,0-2.926-.167h-.135c-.585,0-1.162.023-1.713.067s-1.124.113-1.692.2-1.12.206-1.667.342-1.1.3-1.634.477c-.176.058-.364.127-.576.213-.183.074-.371.158-.559.247s-.366.181-.54.277-.348.2-.517.305c-.682.432-1.726,1.095-2.9,1.853-1.118.719-2.275,1.474-3.439,2.241-1.342.887-2.6,1.73-3.842,2.578-1.477,1.008-2.821,1.944-4.109,2.86V89.5a.11.11,0,0,0,0-.022V89.4a.462.462,0,0,1,0-.046v-.051l0-.115c-.005-.379-.01-.771-.016-1.2l0-.265q-.009-.654-.016-1.235c-.012-.819-.022-1.491-.028-2.053l0-.2,0-.111c-.006-.43-.011-.769-.016-1.026,0-.31-.01-.5-.011-.539,0-.745-.032-1.5-.094-2.233s-.158-1.49-.281-2.206-.277-1.44-.465-2.17-.406-1.436-.65-2.129c-.238-.674-.508-1.351-.8-2.012s-.622-1.313-.965-1.936-.717-1.243-1.121-1.852-.83-1.2-1.272-1.761-.918-1.115-1.418-1.655-1.007-1.04-1.542-1.528-1.09-.957-1.66-1.4c-.6-.46-1.193-.884-1.776-1.262-.606-.4-1.252-.785-1.921-1.148-.647-.35-1.323-.68-2.01-.982s-1.375-.57-2.089-.817-1.456-.467-2.164-.647c-.2-.052-.417-.1-.667-.148-.215-.041-.441-.077-.673-.106s-.462-.051-.677-.063-.416-.022-.678-.022-.534.009-.815.028-.549.053-.809.093c-.278.041-.546.092-.8.15s-.505.122-.789.208c-.3.1-.544.183-.772.274-.246.1-.5.207-.744.327s-.473.241-.711.383-.452.275-.677.432a9.844,9.844,0,0,0-.886.695,9.7,9.7,0,0,0-.794.785,9.325,9.325,0,0,0-.693.863,9.464,9.464,0,0,0-.581.931,9.12,9.12,0,0,0-.794,2.017,8.915,8.915,0,0,0-.2,1.056,8.675,8.675,0,0,0-.073,1.071l-.013,2.466c0,.152,0,.279.007.4s.015.266.025.4.024.247.043.393.04.267.061.384c.007.061.146,1.122.34,2.583.134,1.009.3,2.235.471,3.533l.072.542.142,1.061.046.344c.217,1.63.465,3.478.736,5.492.2,1.495.341,2.535.35,2.589a.023.023,0,0,1,0,.01v.012a.02.02,0,0,0,0,.01v.01l0,.02c-.449-.22-.906-.465-1.357-.729s-.9-.554-1.35-.861-.9-.644-1.312-.971-.829-.681-1.241-1.058c-.232-.214-.479-.419-.733-.611s-.526-.374-.791-.537-.559-.324-.843-.463c-.3-.148-.6-.279-.893-.389s-.6-.211-.929-.3c-.315-.088-.636-.161-.952-.218s-.635-.1-.969-.131-.658-.044-.987-.044h-.177c-.357.007-.688.028-1.011.063a9.933,9.933,0,0,0-.992.153c-.328.065-.654.147-.97.243s-.644.21-.944.333-.618.268-.908.419-.587.323-.853.5-.545.373-.8.571a9.426,9.426,0,0,0-.738.649l-1.059,1.024-.1.1-.844.817c-.623.6-1.35,1.308-2.1,2.035-.717.7-1.441,1.4-2.182,2.121l-.542.527-1.716,1.671-.871-.705-.012-.01-.866-.7-.213-.172c-.55-.444-1.047-.845-1.565-1.259l-1.036-.832-.166-.134-.737-.592-1.009-.807-1.225-.98c-.209-.168-.444-.338-.716-.522-.236-.157-.492-.31-.759-.455s-.523-.269-.8-.391-.549-.225-.835-.322c-.26-.089-.534-.169-.838-.246-.286-.07-.574-.129-.857-.175s-.579-.082-.873-.105-.588-.034-.883-.034a10.954,10.954,0,0,0-3.8.675,10.543,10.543,0,0,0-1.723.82,10.414,10.414,0,0,0-1.548,1.12l-.282.245-.016.014-.051.045-.152.134-.014.012-.031.027-.158.14-.088.077-.272.238-.139.123,0,0-.016.014-.21.184-.126.107-.105.1-.126.11c-.067.059-.145.127-.221.192l-.353.312c-.122.105-.244.212-.361.317l-.312.272-.059.051-.063-.076a9.644,9.644,0,0,0-1.487-1.482,9.961,9.961,0,0,0-1.777-1.132,10.365,10.365,0,0,0-2-.751,10.773,10.773,0,0,0-2.16-.338l-.084,0h0l-.076,0-.08,0h0l-.071,0h0c-.052,0-.1,0-.14,0h-.137c-.343,0-.686.016-1.018.047s-.674.078-1,.138-.654.14-.989.235-.648.2-.969.327-.623.259-.931.414a10.008,10.008,0,0,0-.878.5c-.275.173-.551.366-.82.574a9.526,9.526,0,0,0-.761.65c-.786.741-1.6,1.45-2.418,2.106s-1.657,1.272-2.5,1.839-1.712,1.1-2.577,1.569-1.757.911-2.641,1.292-1.795.725-2.7,1.014a28.031,28.031,0,0,1-2.743.729,27.22,27.22,0,0,1-2.777.441,26.775,26.775,0,0,1-2.8.148,27.466,27.466,0,0,1-4.033-.3,29.132,29.132,0,0,1-4.019-.891,32.067,32.067,0,0,1-3.984-1.481,36.708,36.708,0,0,1-3.936-2.059,10.252,10.252,0,0,0-2.584-1.1,10.722,10.722,0,0,0-1.394-.284,11,11,0,0,0-1.438-.094c-.335,0-.671.015-1,.045s-.655.074-.984.133-.642.132-.967.221-.642.2-.947.31-.616.248-.937.4-.613.317-.884.483-.566.364-.832.565-.538.424-.774.64c-1.71,1.558-3.128,2.857-4.461,4.088-1.806,1.668-3.421,3.176-4.938,4.611-1.794,1.695-3.555,3.387-5.237,5.028-1.854,1.811-3.656,3.608-5.355,5.341-.031-.044-.146-.2-.321-.435l-.024-.033-.082-.111-.142-.192-.877-1.18-.215-.289c-.46-.618-.816-1.1-1.089-1.46-.318-.425-.524-.7-.564-.744-.121-.182-.263-.375-.445-.606-.145-.181-.308-.368-.5-.57-.177-.185-.356-.359-.548-.531s-.395-.337-.6-.49-.405-.3-.634-.444c-.209-.135-.429-.264-.672-.394-.223-.119-.46-.234-.7-.342s-.5-.206-.738-.289l-.029-.038-.059-.077c-.08-.105-.161-.213-.248-.331s-.21-.278-.35-.465l-.061-.081c-.163-.215-.351-.464-.574-.763l-.044-.06-.157-.206-.718-.956-.346-.46-.047-.063-.062-.083-.4-.535-.415-.552-.151-.2-.042-.055-.392-.521-1.14-1.517-.406-.538-3.3-4.385-5.981-7.952-.25-.333-.281-.374-4.029-5.356-5.72-7.6-.038-.051L127.981,62.1l-1.761-2.34-.157-.209c-3.007-4-5.6-7.447-7.621-10.123-2.615-3.472-3.961-5.256-4-5.3-.136-.2-.275-.4-.413-.573s-.3-.366-.459-.539-.333-.345-.5-.5c-.2-.181-.376-.332-.546-.464-.186-.145-.386-.29-.6-.431s-.427-.269-.634-.384c-.223-.124-.447-.238-.667-.338-.244-.112-.472-.206-.7-.287-.312-.117-.6-.211-.886-.287s-.6-.149-.909-.2-.618-.1-.932-.124-.626-.041-.951-.041c-.343,0-.685.016-1.015.046s-.672.077-1.005.139c-.361.069-.685.145-.99.233s-.629.191-.974.322c-.322.122-.642.262-.952.414s-.621.324-.9.5c-.294.182-.577.376-.844.578s-.533.427-.782.658c-3.425,3.151-7.014,6.487-10.668,9.915-3.5,3.287-7.1,6.7-10.688,10.132S70.246,69.8,66.76,73.2c-3.567,3.479-7.14,7-10.622,10.46-.189.188-.369.38-.535.571s-.326.388-.485.6-.3.418-.432.63-.256.423-.378.655c-.109.2-.218.429-.323.67-.1.223-.188.453-.267.683s-.153.466-.213.7-.115.478-.157.708-.072.473-.1.717c-.022.227-.034.462-.038.716,0,.223,0,.461.022.709s.043.472.079.705.083.483.139.718.128.482.2.7.162.453.258.675.2.444.315.648a8.244,8.244,0,0,0,.477.787,8.6,8.6,0,0,0,.558.731,8.5,8.5,0,0,0,.639.674,9.127,9.127,0,0,0,.713.612l.053.053h0l.023.022c.018.018.036.035.058.055l.009.008.019.017.036.033,0,0c.017.016.035.032.053.048s.064.057.093.082l0,0-6.441,94.459H50.5l-5.192,76.5a.852.852,0,0,0-.257-.114c-.154-.053-.37-.122-.644-.205-.3-.09-.621-.185-.966-.284s-.777-.225-1.228-.353l-1.57-.447-2.242-.643-.26-.074-2.814-.806-.467-.134-1.057-.3-4.013-1.148c-1.891-.541-3.639-1.04-4.385-1.253-1.263-.36-1.821-.518-1.865-.53-.27-.089-.542-.167-.809-.231s-.523-.118-.827-.168c-.278-.044-.555-.077-.847-.1-.31-.023-.591-.035-.858-.035a11.279,11.279,0,0,0-2.461.279,11.35,11.35,0,0,0-1.2.34,11.68,11.68,0,0,0-1.162.469l-2,.8a11.677,11.677,0,0,0-2.655,1.738,11.539,11.539,0,0,0-1.117,1.116,11.336,11.336,0,0,0-.956,1.261,11.2,11.2,0,0,0-.764,1.37,10.631,10.631,0,0,0-.55,1.441,10.106,10.106,0,0,0-.33,1.487,9.718,9.718,0,0,0-.1,1.515c0,.566-.008,1.15-.02,1.769v.035c-.008.428-.017.87-.021,1.33-.01.979-.007,2.3.1,3.8a39.373,39.373,0,0,0,.644,4.761c.18.922.4,1.875.648,2.834.268,1.029.582,2.1.933,3.185s.732,2.143,1.125,3.127c.373.932.772,1.831,1.184,2.673.387.791.8,1.559,1.228,2.282.4.669.819,1.325,1.258,1.95.4.577.821,1.128,1.272,1.684.4.49.813.974,1.272,1.478.683.755,1.363,1.45,2.021,2.123l.008.009.454.465a67.259,67.259,0,0,0,7.73,5.487c3.507,2.294,8.162,5.243,13.836,8.765s10.862,6.681,13.455,8.255c3.836,2.329,6.241,3.763,6.5,3.9l1.522.906.648.388.063.038.027.016.813.487c.394.235.8.478,1.189.712l.022.013.123.074.247.148.361.217,1.247.752a10.287,10.287,0,0,0,1.251.64,10.437,10.437,0,0,0,1.33.465,10.572,10.572,0,0,0,1.391.284,10.79,10.79,0,0,0,1.431.095h.2c.075,0,5.7.111,15.85.3l1.57.029.408.008c9.314.172,20.906.386,32.637.6,11.641.215,24.282.447,34.68.637,9.29.169,15.878.289,16.033.289l.054,0,.065,0,.127,0,.134.005h.144a6.885,6.885,0,0,0,1.629-.2,6.971,6.971,0,0,0,3.991-2.673c1.94-2.676,3.9-5.356,5.814-7.965,1.969-2.676,3.95-5.352,5.888-7.951,1.894-2.538,3.837-5.126,5.941-7.91,2.025-2.676,4.034-5.314,5.973-7.841l.041.01.059.016.008,0,.044.012.186.051.109.03.011,0,.14.038.017.005.38.106,10.914,3.007,4.738,1.306,1.367.377.443.122,5.939,1.637,2.043.563.348.1,7.912,2.18,4.342,1.194c.157.049.322.1.49.135s.343.072.5.1.338.046.507.059.351.018.513.018a6.835,6.835,0,0,0,4.052-1.328,6.842,6.842,0,0,0,1.068-.979c1.175-1.337,2.338-2.684,3.557-4.119,1.082-1.271,2.243-2.656,3.55-4.236,1.135-1.373,2.326-2.826,3.639-4.444,1.2-1.474,2.447-3.028,3.827-4.75.244-.308.5-.641.792-1.018.3-.394.55-.727.787-1.048s.5-.686.782-1.073c.239-.334.492-.693.772-1.1l3.246,2.267,2.726,1.9.586.409,3.758,2.623,4.949,3.453.442.308,1.7,1.186,2.895,2.019.145.1.231.161a6.6,6.6,0,0,0,2.877,1.19,6.722,6.722,0,0,0,1.063.082,6.818,6.818,0,0,0,.69-.033,6.915,6.915,0,0,0,1.337-.27c.211-.066.427-.145.642-.236a6.909,6.909,0,0,0,.635-.314,6.473,6.473,0,0,0,.594-.373,6.737,6.737,0,0,0,.553-.436,6.83,6.83,0,0,0,.508-.492c1.875-2.038,3.721-4.031,5.486-5.925,1.89-2.028,3.744-4.005,5.509-5.877,1.78-1.889,3.633-3.842,5.507-5.806s3.728-3.9,5.489-5.718c.04-.042.082-.086.122-.132l.042-.047.011-.012.066-.075c.034-.04.074-.087.112-.133s.075-.093.109-.137l.034.106.37,1.1.069.2c.075.228.147.441.213.635.057.169.111.327.159.47.027.079.05.148.071.21l.031.092.021.062v0l.008.023.014.041c.349,1.043.742,2.074,1.168,3.062s.893,1.96,1.4,2.908,1.055,1.864,1.632,2.744,1.2,1.746,1.857,2.57,1.358,1.639,2.086,2.4,1.479,1.476,2.271,2.16,1.6,1.316,2.449,1.911,1.72,1.146,2.617,1.653a7.023,7.023,0,0,0,.779.378,6.755,6.755,0,0,0,.822.273,6.89,6.89,0,0,0,.85.167,6.964,6.964,0,0,0,.868.056,6.447,6.447,0,0,0,.645-.031,6.366,6.366,0,0,0,.634-.091c.227-.045.431-.095.622-.152.21-.061.415-.131.607-.208s.408-.175.6-.272a6.208,6.208,0,0,0,.563-.327c.179-.117.356-.246.527-.383a6.312,6.312,0,0,0,.49-.434c.918-.9,1.751-1.717,2.547-2.492.851-.833,1.7-1.657,2.518-2.455l.038-.038.283-.274.549-.532c.555-.538,1.145-1.11,1.726-1.672.934-.9,1.769-1.706,2.553-2.457.379.621.8,1.253,1.246,1.878.433.6.907,1.213,1.409,1.815s1.026,1.182,1.568,1.745,1.116,1.123,1.718,1.672c.509.461,1.061.932,1.642,1.4s1.154.9,1.731,1.314,1.177.817,1.8,1.207c.595.376,1.213.74,1.837,1.083a6.643,6.643,0,0,0,.767.359,6.814,6.814,0,0,0,.809.261,7.145,7.145,0,0,0,.835.159,7.009,7.009,0,0,0,.852.053,6.79,6.79,0,0,0,1.172-.1,6.5,6.5,0,0,0,1.124-.3,6.555,6.555,0,0,0,2-1.152l1.1-.925.095-.08.295-.248.081-.068.166-.14.709-.6.465-.39.1-.085.062-.052.681-.571.566-.475.095-.079.7-.586Zm29.157,31.832h0l-.353-.037-.046,0-.264-.028c-.237-.025-.475-.05-.707-.073l-.28-.029-.062-.006-.059-.006-.3-.03-.074-.007-.468-.046-.1-.01-.348-.035-.177-.018-.053-.005-.065-.007-.14-.014-.1-.011-.1-.01-.13-.013h0l-.052,0c.06-.769.134-1.555.218-2.337s.18-1.575.287-2.363.227-1.589.356-2.383.27-1.6.421-2.391c.142-.743.3-1.51.46-2.279.158-.74.329-1.5.523-2.314.187-.786.384-1.574.584-2.343.211-.8.429-1.6.645-2.362.393-1.39.828-2.825,1.292-4.264s.966-2.914,1.49-4.377,1.1-2.992,1.7-4.517,1.246-3.106,1.919-4.691l-.873-42.5h0c-2.34,1.9-4.419,3.6-6.357,5.189-2.185,1.791-4.327,3.554-6.365,5.24-2.308,1.908-4.386,3.633-6.352,5.273-2.133,1.78-4.258,3.56-6.314,5.291-.679-.367-1.367-.762-2.046-1.175s-1.364-.854-1.994-1.281c-.656-.446-1.306-.91-1.931-1.38s-1.245-.96-1.863-1.474-1.24-1.057-1.837-1.607-1.183-1.122-1.724-1.678c-.585-.6-1.11-1.172-1.606-1.743s-1.007-1.187-1.484-1.8c-.5-.643-.981-1.3-1.426-1.95-.456-.669-.883-1.339-1.271-1.994s-.763-1.341-1.109-2.027-.663-1.376-.946-2.057c-.305-.725-.583-1.468-.827-2.209s-.455-1.488-.632-2.225-.327-1.5-.437-2.229-.2-1.493-.242-2.228c-2.444,2.293-4.848,4.56-7.146,6.737-2.42,2.291-4.826,4.581-7.151,6.8-2.372,2.266-4.771,4.57-7.13,6.847-2.292,2.21-4.675,4.52-7.085,6.865-.954-.535-1.887-1.11-2.774-1.71s-1.784-1.255-2.634-1.936-1.675-1.395-2.484-2.154-1.582-1.551-2.322-2.368c-.693-.761-1.377-1.574-2.035-2.414s-1.288-1.71-1.878-2.585c-.6-.895-1.181-1.818-1.715-2.743s-1.059-1.9-1.546-2.891c-.464-.941-.9-1.909-1.309-2.878s-.787-1.966-1.14-2.979c-.344-.982-.67-2.015-.97-3.07-.288-1.017-.555-2.077-.794-3.149-.224-1.012-.425-2.055-.6-3.1s-.314-2.1-.422-3.129-.195-2.1-.248-3.146c-.053-1.065-.077-2.125-.071-3.151l.2-97.8c-.028-.607-.039-1.157-.035-1.68s.023-1.077.058-1.609.088-1.048.155-1.55.153-1.022.251-1.5c.093-.465.205-.94.333-1.414s.27-.926.426-1.376.336-.914.522-1.345.4-.89.619-1.327a23.656,23.656,0,0,1,1.388-2.372,28.322,28.322,0,0,1,1.754-2.348c.642-.776,1.346-1.551,2.152-2.368.781-.791,1.651-1.609,2.584-2.431,1.08-.98,2.2-1.971,3.342-2.944,1.154-.988,2.345-1.977,3.542-2.939s2.451-1.951,3.766-2.956,2.663-2.006,4.018-2.991c1.164-.846,2.351-1.692,3.53-2.515s2.44-1.69,3.74-2.569c1.384-.932,2.7-1.8,4.015-2.664,1.426-.93,2.893-1.873,4.36-2.8.231-.081.48-.154.762-.223.258-.063.531-.117.812-.158s.559-.074.86-.1.612-.031.9-.031a15.661,15.661,0,0,1,1.875.117c.648.078,1.343.2,2.065.355s1.481.357,2.271.6,1.626.518,2.492.838c.691.254,1.434.546,2.272.894.717.3,1.451.615,2.244.971.679.3,1.392.631,2.182,1,.718.335,1.395.657,2.083.984l.017.008.015,0,.5.237.005,0c.363.172.738.351,1.1.52.606.284,1.093.51,1.531.71.6.268,1.038.463,1.433.63.492.207.92.379,1.309.523.954.355,1.931.673,2.9.947s1.942.5,2.891.68c.965.182,1.93.32,2.87.409s1.907.137,2.839.137c.911,0,1.815-.043,2.688-.127.9-.085,1.791-.212,2.659-.378s1.763-.38,2.617-.626,1.716-.541,2.568-.873l.018.026.24.342.018.026v0l.087.124c.1.142.206.293.3.433s.184.26.272.388l0,0c.083.119.168.241.253.36l.294.417.394.563a16.832,16.832,0,0,0-1.639.669,16.392,16.392,0,0,0-1.537.829,15.7,15.7,0,0,0-1.433.989,16.158,16.158,0,0,0-1.323,1.143c-.388.377-.761.774-1.108,1.18s-.692.85-1.016,1.307-.632.937-.918,1.428-.563,1.009-.818,1.541c-.235.49-.456.993-.657,1.5-.207.525-.4,1.057-.568,1.582s-.328,1.073-.479,1.66c-.143.564-.273,1.147-.386,1.733-.1.54-.2,1.086-.271,1.624s-.139,1.087-.19,1.657c-.049.552-.086,1.119-.109,1.685s-.032,1.129-.026,1.709l1.822,109.67c0,.6.006,1.221.025,1.833.019.719.053,1.442.1,2.147.053.817.122,1.61.2,2.355.1.866.213,1.694.343,2.46.181,1.071.4,2.078.648,2.993a20.561,20.561,0,0,0,.853,2.518,13.162,13.162,0,0,0,1.055,2.037,8.586,8.586,0,0,0,1.251,1.548,6.488,6.488,0,0,0,.891.718,5.632,5.632,0,0,0,.971.515,5.418,5.418,0,0,0,1.043.312,5.944,5.944,0,0,0,1.116.1h.094l.054,0h.138l.1,0a6.3,6.3,0,0,0,1.2-.186,6.176,6.176,0,0,0,1.074-.386,6.571,6.571,0,0,0,.958-.551,7.652,7.652,0,0,0,.845-.681,9.779,9.779,0,0,0,1.377-1.615,13.344,13.344,0,0,0,.99-1.718c.163-.338.311-.674.439-1,.138-.342.269-.7.389-1.061s.235-.742.333-1.109c.1-.385.194-.77.271-1.143.071-.333.134-.679.188-1.028.051-.33.095-.672.13-1.018s.058-.683.071-.985.018-.621.012-.926l-4-194.337c-.008-.383-.031-.768-.068-1.145s-.091-.745-.155-1.086-.146-.691-.241-1.027-.206-.658-.327-.962c-.1-.25-.209-.492-.324-.719s-.241-.461-.376-.68-.279-.434-.428-.634-.306-.393-.477-.584a7.888,7.888,0,0,0-.748-.73,6.866,6.866,0,0,0-.675-.51,5.541,5.541,0,0,0-.535-.317c-.165-.086-.28-.135-.333-.157,3.385-1.526,6.873-3.074,10.367-4.6s6.992-3.035,10.438-4.5c3.367-1.428,6.892-2.9,10.475-4.376,3.382-1.39,6.906-2.818,10.475-4.243l.142,4.809c-.263.066-.5.131-.721.2-.258.081-.484.16-.692.241s-.433.174-.663.28c-.214.1-.426.2-.631.317s-.385.22-.571.337-.363.238-.543.368-.359.274-.512.4c-.17.143-.328.285-.482.434s-.29.286-.432.441-.28.31-.411.47c-.161.2-.28.354-.386.5-.125.173-.246.35-.36.528-.1.155-.2.324-.314.518-.1.177-.2.362-.3.55-.111.22-.2.4-.279.579-.1.218-.185.418-.262.609-.147.364-.283.74-.406,1.119-.132.4-.247.8-.352,1.21s-.2.838-.3,1.31c-.088.437-.172.914-.249,1.418-.064.417-.124.864-.18,1.33-.051.431-.1.875-.139,1.319-.036.392-.07.81-.105,1.277-.024.321-.046.637-.066.942l0,.051-.006.089q0,.064-.009.128l2.949,107.884.54.327.025.015,1.006.611c.559.339.954.58,1.322.805.272.166.537.329.793.486l.043.027.444.273c.4.242.831.509,1.452.893,1.753-1.146,3.6-2.346,5.478-3.568,1.728-1.12,3.507-2.268,5.438-3.51,1.638-1.051,3.348-2.145,5.382-3.441,1.911-1.215,3.646-2.313,5.3-3.357-.768-.508-1.521-1.045-2.238-1.6s-1.436-1.152-2.122-1.766-1.35-1.253-2-1.924-1.272-1.364-1.87-2.078c-.575-.687-1.128-1.393-1.642-2.1s-1.032-1.46-1.515-2.218-.942-1.536-1.383-2.337-.867-1.632-1.249-2.441-.731-1.611-1.058-2.424c-.335-.832-.645-1.67-.923-2.49-.285-.845-.548-1.7-.782-2.55s-.449-1.724-.639-2.6-.348-1.721-.482-2.558c-.132-.816-.247-1.681-.342-2.569s-.158-1.747-.2-2.57c-.042-.841-.061-1.7-.056-2.56,0-.624.035-1.244.091-1.845.059-.622.142-1.225.248-1.794.109-.587.244-1.17.4-1.733s.348-1.131.556-1.668c.2-.515.421-1.027.665-1.522s.51-.983.8-1.469.606-.955.937-1.412.675-.887,1.071-1.35a23.8,23.8,0,0,1,2.284-2.313,28.626,28.626,0,0,1,2.718-2.123,35.288,35.288,0,0,1,3.144-1.926c1.116-.608,2.313-1.187,3.558-1.721,1.073-.462,2.215-.9,3.395-1.317,1.14-.4,2.369-.787,3.654-1.149,1.232-.347,2.544-.675,3.9-.974,1.325-.292,2.716-.56,4.134-.8,1.186-.2,2.424-.376,3.679-.531,1.211-.149,2.471-.278,3.748-.384,1.2-.1,2.465-.178,3.766-.233,1.242-.053,2.5-.079,3.733-.079h.606c.1,0,.206,0,.312,0s.2,0,.309,0h.016l.1,2.472c-.4.023-.775.051-1.137.086-.42.041-.791.082-1.135.127-.374.049-.755.106-1.132.167-.406.069-.774.138-1.124.211s-.724.156-1.121.251c-.364.089-.736.187-1.1.291s-.726.211-1.082.327-.7.235-1.056.363c-.381.141-.726.275-1.056.41-.355.145-.7.3-1.03.446s-.679.316-1,.48-.641.33-.969.513-.646.367-.959.56-.612.383-.923.591c-.357.243-.628.436-.881.626-.29.215-.572.434-.839.652a21.738,21.738,0,0,0-1.625,1.458,19.722,19.722,0,0,0-1.419,1.568,18.424,18.424,0,0,0-1.208,1.67,17.414,17.414,0,0,0-.994,1.766,16.885,16.885,0,0,0-.818,2,16.28,16.28,0,0,0-.546,2.072,16.5,16.5,0,0,0-.275,2.138,17.569,17.569,0,0,0,0,2.2,22.784,22.784,0,0,0,.769,4.629,23.49,23.49,0,0,0,.749,2.266c.286.742.619,1.49.988,2.223.355.7.736,1.386,1.132,2.025.414.671.862,1.335,1.332,1.972s.995,1.294,1.53,1.915,1.106,1.232,1.721,1.852c.568.564,1.167,1.124,1.782,1.663s1.265,1.072,1.926,1.583,1.361,1.017,2.066,1.5,1.433.946,2.2,1.406c.71.427,1.452.846,2.2,1.246s1.533.787,2.281,1.133,1.539.692,2.35,1.02,1.607.624,2.409.9c-3.793,2.394-7.636,4.847-11.422,7.293-3.839,2.479-7.678,4.986-11.409,7.451s-7.561,5.019-11.356,7.583c-3.622,2.447-7.41,5.035-11.26,7.692.865.418,1.766.827,2.677,1.215s1.81.743,2.69,1.066c.9.334,1.811.643,2.693.919.91.284,1.815.542,2.689.764.937.242,1.9.461,2.862.65s1.924.346,2.83.465c.922.123,1.86.218,2.789.281s1.837.094,2.738.094a37.158,37.158,0,0,0,4.207-.235,33.831,33.831,0,0,0,4.025-.7,32.359,32.359,0,0,0,3.832-1.162,31.228,31.228,0,0,0,3.621-1.622l.9.418.063.029.833.386.108.05.712.331.468.217.462.215.155.073.011.007-.176.17c-.29.28-.529.511-.757.729l-.29.281-.163.159-.361.35-.5.483-.147.143-.176.171-.73.712-.217.212,3.4,86.6c0,.784.03,1.624.091,2.5.064.954.162,1.926.292,2.89.14,1.057.317,2.092.527,3.075.225,1.069.493,2.095.8,3.048.178.567.375,1.123.586,1.65s.432,1.018.663,1.482a14.969,14.969,0,0,0,.736,1.305,12.081,12.081,0,0,0,.809,1.129,9.057,9.057,0,0,0,1.035,1.085,7.383,7.383,0,0,0,1.127.826,6.455,6.455,0,0,0,2.52.863c.066.009.132.015.2.021h0l.018,0c.064.008.13.012.193.017l.022,0c.072.005.142.01.213.012h.01c.066,0,.133,0,.2,0a5.7,5.7,0,0,0,.639-.033,5.937,5.937,0,0,0,.619-.1,5.559,5.559,0,0,0,.6-.162,5.647,5.647,0,0,0,.576-.223,5.516,5.516,0,0,0,.512-.266,5.753,5.753,0,0,0,.489-.32c.16-.116.316-.24.465-.371s.289-.264.442-.423a7.845,7.845,0,0,0,.7-.855,9.56,9.56,0,0,0,.616-1,11.065,11.065,0,0,0,.522-1.122,12.933,12.933,0,0,0,.419-1.231c.107-.375.2-.767.277-1.167s.134-.8.175-1.186c.042-.411.066-.808.071-1.182a11.318,11.318,0,0,0-.036-1.143l-3.2-74.376c-.023-.533-.064-1.055-.121-1.553s-.133-1-.226-1.482-.2-.954-.328-1.4-.269-.9-.429-1.323c-.138-.363-.276-.689-.419-1-.152-.325-.313-.641-.48-.937s-.355-.6-.54-.874-.384-.543-.6-.809a10.908,10.908,0,0,0-.924-1.006,9.56,9.56,0,0,0-.834-.715c-.229-.172-.453-.325-.665-.453-.183-.112-.325-.187-.413-.23,3.463-1.091,7.044-2.192,10.643-3.273,3.616-1.086,7.216-2.143,10.7-3.141,3.458-.992,7.066-2,10.722-3,3.48-.95,7.083-1.908,10.709-2.847-1.678-1.265-3.319-2.5-4.877-3.658-1.578-1.178-3.224-2.4-4.892-3.627-1.805-1.33-3.4-2.5-4.89-3.585-1.56-1.136-3.2-2.323-4.873-3.529-.5-.376-.99-.732-1.462-1.056s-.957-.638-1.41-.912-.92-.54-1.351-.766-.855-.427-1.291-.614c-.386-.165-.763-.31-1.122-.431s-.73-.226-1.076-.307a9.655,9.655,0,0,0-1.026-.187,7.594,7.594,0,0,0-.974-.063,6.691,6.691,0,0,0-.817.048,6.043,6.043,0,0,0-.781.144,5.77,5.77,0,0,0-.746.237,5.608,5.608,0,0,0-.7.332,2.749,2.749,0,0,0-.5.2,5.456,5.456,0,0,0-.579.35c-.207.14-.429.305-.66.492s-.469.387-.739.633c-.206.187-.422.39-.642.6s-.461.455-.69.692c-.247.254-.5.516-.738.779s-.491.535-.782.865c-.259.292-.531.6-.807.926s-.536.633-.837.993c-.269.327-.553.674-.842,1.033-.313.391-.585.735-.83,1.051l-.011.018a.006.006,0,0,0,0,0l0,0v0l-.122-.059-.076-.037-.048-.023-.737-.354-.234-.113-.017-.008c-.207-.1-.4-.194-.6-.288-.246-.119-.536-.259-.86-.411l-.721-.347-.078-.038-.21-.1c.942-1.44,2-2.941,3.141-4.459,1.037-1.379,2.147-2.782,3.393-4.291,1.044-1.264,2.2-2.622,3.535-4.151,1.162-1.332,2.342-2.66,3.483-3.943l.092-.1.033-.038.236-.264.132-.148.024-.027.008-.009.02-.023.023-.026c.036-.041.079-.089.12-.135s.1-.114.165-.185l.146-.165.015-.017,0,0,.363-.4.051-.057.228-.252.634-.708c.209-.236.413-.464.605-.679l.335-.379.225-.254c.811-.916,1.607-1.814,2.429-2.716.9-.989,1.72-1.863,2.51-2.672.921-.941,1.782-1.771,2.632-2.537.955-.862,1.871-1.621,2.8-2.319a4.56,4.56,0,0,1,.55-.317,3.884,3.884,0,0,1,.558-.221,3.767,3.767,0,0,1,.574-.131,4.285,4.285,0,0,1,.6-.043c.144,0,.3.008.469.023.142.013.3.035.508.069.174.031.357.07.558.119s.416.109.614.167l.114.036.111.033.05.015.008,0,.006,0,.045.014.107.03.048.018c.344.1.711.21,1.076.332.405.136.754.269,1.1.421.413.184.823.391,1.251.634.476.27.981.586,1.544.967,1.034.706,2.123,1.466,3.236,2.258.983.7,2.048,1.468,3.256,2.351,1.013.741,2.077,1.527,3.255,2.4.975.724,2.031,1.512,3.228,2.41l.158.119.161.12,0,0c2.512,1.88,5.109,3.823,7.7,5.705,2.971,2.159,5.6,3.993,8.045,5.606,1.4.925,2.778,1.805,4.1,2.615,1.409.864,2.8,1.682,4.149,2.43,1.421.791,2.836,1.533,4.206,2.205,1.434.7,2.868,1.354,4.262,1.934a13.688,13.688,0,0,0,1.342.475c.46.135.937.249,1.419.34s.99.161,1.492.206c.527.046,1.052.069,1.56.069.627,0,1.3-.035,1.989-.1.595-.061,1.217-.15,1.85-.265.536-.1,1.09-.222,1.647-.363.451-.114.9-.242,1.38-.391.4-.125.775-.253,1.122-.379.365-.131.676-.255.878-.337.257-.1.461-.194.609-.261.113-.05.221-.1.312-.145l.414.619.069.1c.2.295.4.6.594.885l.292.437.056.084.165.246.1.155c.232.345.437.651.644.962l.011.017.066.1c.209.312.425.635.667,1-.666.143-1.312.309-1.921.493-.644.193-1.266.408-1.848.637-.611.239-1.205.5-1.767.778-.578.285-1.144.593-1.682.917s-1.054.665-1.55,1.025-.983.748-1.438,1.142-.9.817-1.32,1.254-.831.9-1.2,1.363-.745.966-1.074,1.459-.646,1.018-.932,1.546-.555,1.079-.791,1.624-.449,1.112-.642,1.7-.362,1.2-.5,1.8c-.14.624-.252,1.247-.332,1.85-.083.628-.139,1.264-.167,1.891s-.026,1.287,0,1.925l6.43,105.143a18.474,18.474,0,0,0,.551,3.055,21.587,21.587,0,0,0,1.074,3.065,23.8,23.8,0,0,0,1.556,2.973,24.257,24.257,0,0,0,1.99,2.773c.4.479.779.905,1.163,1.3.406.422.82.823,1.233,1.19s.859.734,1.3,1.068.911.66,1.362.946c.5.313,1,.6,1.5.855s1.025.491,1.535.692a15.6,15.6,0,0,0,1.563.527,15.169,15.169,0,0,0,1.586.358c.206.035.415.066.639.1s.432.05.637.068c.184.017.385.031.632.043.188.009.387.013.625.013a12.925,12.925,0,0,0,2.022-.156,12.134,12.134,0,0,0,3.761-1.246,13.2,13.2,0,0,0,1.725-1.081,14.82,14.82,0,0,0,1.418-1.2,17.566,17.566,0,0,0,1.333-1.432,20.7,20.7,0,0,0,1.241-1.657c.393-.58.779-1.211,1.147-1.875.31-.561.614-1.158.9-1.774s.568-1.267.823-1.914.508-1.337.745-2.049c.241-.731.463-1.464.659-2.177.166-.606.327-1.242.477-1.89.141-.607.275-1.242.409-1.94.125-.661.238-1.321.335-1.962s.183-1.314.256-1.959l.009,0,.224.106.7.329.024.011.157.074.468.221.059.028.255.12.6.286.127.06.074.035.517.245.02.01.025.012.38.181c-.008.869-.039,1.73-.092,2.559-.054.849-.133,1.706-.233,2.548-.1.858-.227,1.71-.373,2.532-.149.855-.322,1.7-.512,2.505-.2.87-.433,1.733-.683,2.565s-.525,1.66-.825,2.475c-.3.8-.62,1.6-.964,2.376s-.719,1.547-1.1,2.269c-.413.781-.857,1.548-1.32,2.281s-.954,1.447-1.46,2.123-1.047,1.338-1.593,1.95-1.129,1.218-1.723,1.778c-.639.6-1.31,1.178-1.994,1.706s-1.4,1.029-2.132,1.484a25.266,25.266,0,0,1-4.639,2.283c-1.974.915-3.989,1.86-6.162,2.888-2.118,1-4.246,2.026-6.324,3.035-2.2,1.069-4.4,2.147-6.534,3.2-2.051,1.016-4.272,2.127-6.789,3.4-.668-.595-1.357-1.228-2.048-1.882-.646-.609-1.313-1.259-1.984-1.931-.625-.626-1.25-1.273-1.913-1.977-.617-.656-1.235-1.333-1.837-2.014-.642-.725-1.269-1.457-1.865-2.177s-1.193-1.463-1.766-2.2-1.123-1.479-1.66-2.225-1.052-1.492-1.548-2.236c-1.107-1.665-2.125-3.344-3.026-4.989s-1.721-3.316-2.431-4.963a50.667,50.667,0,0,1-1.827-4.919,43.979,43.979,0,0,1-1.218-4.859c-2.109,1.465-4.293,2.99-6.674,4.662s-4.57,3.222-6.694,4.733c-2.2,1.564-4.454,3.174-6.692,4.783-2.138,1.536-4.381,3.155-6.666,4.814-1.374-1.12-2.73-2.309-4.03-3.534-1.271-1.195-2.531-2.468-3.745-3.784s-2.351-2.649-3.408-3.982c-1.075-1.354-2.092-2.741-3.023-4.123-.519-.773-1.005-1.531-1.445-2.254-.455-.743-.9-1.508-1.32-2.274-.408-.741-.809-1.51-1.19-2.286s-.726-1.531-1.053-2.289c-.335-.779-.66-1.6-.965-2.429-.294-.807-.566-1.622-.807-2.423s-.461-1.615-.649-2.408c-.191-.809-.354-1.611-.487-2.383-2.412,1.83-4.622,3.515-6.755,5.151-2.265,1.736-4.553,3.5-6.8,5.238-2.156,1.669-4.387,3.405-6.821,5.309-2.286,1.789-4.581,3.593-6.821,5.362-.959-.681-1.906-1.41-2.816-2.168s-1.8-1.562-2.665-2.4-1.7-1.718-2.505-2.631-1.6-1.873-2.337-2.848c-.7-.922-1.382-1.874-2.017-2.832s-1.267-1.976-1.863-3.009-1.172-2.105-1.7-3.172c-.549-1.1-1.067-2.22-1.54-3.322-.875-2.045-1.668-4.185-2.357-6.36-.683-2.154-1.283-4.411-1.784-6.707-.494-2.278-.894-4.62-1.19-6.96s-.491-4.748-.579-7.115l-2.027-63.13c-.307.061-.617.113-.921.157-.322.046-.64.084-.946.112-.329.031-.655.053-.971.068-.332.015-.665.023-.99.023-.574,0-1.166-.022-1.759-.066-.613-.045-1.239-.113-1.86-.2-.642-.09-1.305-.2-1.971-.333s-1.368-.292-2.1-.474c-.62-.155-1.26-.328-1.9-.513-.608-.173-1.222-.357-1.877-.563-.572-.18-1.177-.374-1.848-.6-.548-.179-1.116-.369-1.572-.522l-.107-.036-.142-.047-.041-.017-.3-.094-1.187-.394,2.392,87.524c.009.531.024,1.014.048,1.475.024.507.056,1,.1,1.459.039.481.088.966.144,1.441s.119.937.191,1.415c.077.506.165,1.015.262,1.511s.2.966.32,1.477c.115.483.242.965.376,1.433s.282.946.431,1.39a28.243,28.243,0,0,0,1.182,2.959,24.413,24.413,0,0,0,1.452,2.667,22.035,22.035,0,0,0,1.718,2.362,20.316,20.316,0,0,0,1.979,2.05h-.084l-.1,0c-.061,0-.12,0-.182,0h-.353c-.8,0-1.613.026-2.421.077s-1.594.129-2.378.231-1.579.236-2.33.388c-.775.157-1.541.339-2.274.541-.693.188-1.4.409-2.111.655s-1.4.514-2.07.8c-.689.292-1.369.607-2.02.936s-1.3.681-1.966,1.069a36.643,36.643,0,0,0-3.5,2.344,39.849,39.849,0,0,0-3.3,2.8,43.77,43.77,0,0,0-3.088,3.243c-1,1.162-1.964,2.4-2.868,3.68-.425.6-.842,1.22-1.238,1.833-.416.645-.816,1.292-1.19,1.923s-.754,1.305-1.136,2.008c-.369.684-.733,1.386-1.079,2.088s-.665,1.382-.969,2.056c-.315.7-.622,1.412-.911,2.116-.282.686-.56,1.4-.85,2.169-.259.694-.522,1.439-.784,2.215-.238.706-.473,1.438-.7,2.176-.214.7-.428,1.447-.635,2.21s-.4,1.506-.573,2.231c-.178.742-.348,1.5-.5,2.247s-.3,1.5-.429,2.2c-.134.746-.257,1.488-.365,2.206s-.207,1.45-.3,2.2-.167,1.486-.231,2.187ZM550.052,161.1h0c-1.177.335-2.271.649-3.347.957s-1.965.57-2.858.833l-.008,0c-.9.265-1.825.539-2.834.843-1.19.358-2.24.676-3.306,1l4.751,94.869c.031.418.07.813.117,1.208.053.443.111.857.177,1.264.068.429.146.868.233,1.3s.181.878.286,1.322c.12.5.253,1.015.395,1.516s.288.986.445,1.466.33.961.5,1.407.356.9.548,1.345c.236.54.463,1.021.693,1.47.242.477.492.934.744,1.357s.522.842.8,1.234.555.759.847,1.109a13.6,13.6,0,0,0,1.022,1.1,12.455,12.455,0,0,0,1.076.931,10.679,10.679,0,0,0,1.127.752,9.373,9.373,0,0,0,1.175.573c.3.121.605.23.9.323s.593.173.871.233a8.2,8.2,0,0,0,.832.14,6.874,6.874,0,0,0,.789.048,5.679,5.679,0,0,0,1.046-.094,4.8,4.8,0,0,0,.949-.279,4.577,4.577,0,0,0,.848-.465,4.768,4.768,0,0,0,.743-.649,5.624,5.624,0,0,0,.508-.64,6.285,6.285,0,0,0,.428-.743,7.341,7.341,0,0,0,.346-.84,9.026,9.026,0,0,0,.264-.938c.075-.332.134-.669.175-1,.046-.355.076-.713.091-1.065s.018-.732.007-1.12-.037-.762-.078-1.174l-5.712-105.194c-.519-.413-1.009-.8-1.5-1.186-.439-.349-.828-.656-1.292-1.022l-.435-.343-.075-.059-.786-.619-.788-.618-.023-.018-.7-.545ZM346.39,116.809l.579,111.231a13.551,13.551,0,0,0,.358,2.8,14.057,14.057,0,0,0,.4,1.38c.158.461.341.918.543,1.36.186.407.394.816.619,1.215s.475.8.725,1.16.531.744.825,1.1.6.7.926,1.043c.3.307.619.613.955.909s.673.568,1.01.819.7.5,1.051.716.719.421,1.079.6.738.344,1.1.482a10.721,10.721,0,0,0,1.093.35,9.113,9.113,0,0,0,1.068.213,7.66,7.66,0,0,0,1.031.072c.194,0,.386-.008.569-.024s.374-.041.551-.071.356-.071.528-.117.342-.1.505-.164a5.019,5.019,0,0,0,.5-.221,5.3,5.3,0,0,0,.918-.589c.144-.116.283-.239.411-.363a5.913,5.913,0,0,0,.535-.612,6.464,6.464,0,0,0,.467-.7,7.506,7.506,0,0,0,.395-.8,8.667,8.667,0,0,0,.322-.883c.1-.316.186-.659.267-1.05.073-.359.133-.744.18-1.145s.078-.816.094-1.242c.017-.443.019-.889.007-1.326L364.95,123.163c-.755-.117-1.534-.26-2.317-.424-.747-.155-1.537-.342-2.35-.556s-1.606-.443-2.4-.692c-.81-.254-1.639-.535-2.464-.833-.777-.282-1.575-.588-2.37-.908-.744-.3-1.5-.612-2.3-.962-.652-.282-1.358-.6-2.221-.987C347.819,117.476,347.1,117.143,346.39,116.809ZM72.815,328.118c-.8-.484-1.656-1-2.611-1.566-.785-.471-1.621-.969-2.632-1.569-.784-.466-1.713-1.017-2.651-1.568s-1.838-1.081-2.664-1.565l0-.041-.032-.017c-.535-.288-2.487-1.338-5.17-2.792-4.27-2.313-8.181-4.449-11.623-6.35-4.9-2.7-8.967-4.991-12.082-6.8a56.731,56.731,0,0,1-6.644-4.184c-.581-.547-1.16-1.144-1.72-1.774S23.9,298.618,23.4,297.94s-1-1.392-1.459-2.122c-.467-.745-.911-1.515-1.319-2.288-.385-.725-.755-1.488-1.1-2.266-.335-.751-.659-1.549-.964-2.373-.3-.8-.574-1.634-.827-2.476s-.484-1.715-.685-2.57c-.191-.819-.363-1.661-.51-2.5-.143-.813-.267-1.664-.37-2.53s-.179-1.71-.231-2.548-.084-1.7-.091-2.558l.6-.287.278-.132c.282-.136.541-.258.758-.36l.407-.193.069-.033.257-.122c.263-.122.532-.249.809-.379l.043-.022.408-.19.012-.006c.068.62.154,1.277.254,1.953.1.647.211,1.306.335,1.96s.259,1.294.408,1.942c.141.617.3,1.255.475,1.9.21.759.432,1.492.66,2.178.236.709.485,1.4.743,2.051.265.668.542,1.312.823,1.914s.587,1.2.9,1.769c.359.651.744,1.282,1.145,1.875s.812,1.14,1.243,1.657a17.415,17.415,0,0,0,1.332,1.431,14.638,14.638,0,0,0,1.418,1.2,12.981,12.981,0,0,0,1.721,1.084,12.315,12.315,0,0,0,1.83.777,12.554,12.554,0,0,0,1.931.467,13.252,13.252,0,0,0,2.025.155c.228,0,.412,0,.579-.013s.354-.021.53-.04c.154-.015.319-.035.536-.066.189-.029.383-.06.594-.1a15.539,15.539,0,0,0,1.581-.355,15.979,15.979,0,0,0,1.561-.525c.518-.2,1.035-.436,1.536-.693s1.01-.547,1.5-.86c.456-.289.914-.606,1.362-.944s.893-.7,1.3-1.068.827-.764,1.233-1.185.79-.853,1.164-1.3a24.421,24.421,0,0,0,1.992-2.776A24.017,24.017,0,0,0,53.76,283.4a21.777,21.777,0,0,0,1.076-3.064,18.383,18.383,0,0,0,.551-3.051l3.428-52.7,8.43-128.362a14.041,14.041,0,0,0,.006-1.764,8.928,8.928,0,0,0-.213-1.49,5.573,5.573,0,0,0-.431-1.215,3.866,3.866,0,0,0-.649-.932,3.214,3.214,0,0,0-.626-.507,3.2,3.2,0,0,0-1.644-.46h-.158l-.068.005-.058,0c3.431-3.419,6.969-6.914,10.516-10.385,3.508-3.432,7.07-6.884,10.587-10.26,3.5-3.359,7.072-6.759,10.623-10.105s7.128-6.681,10.623-9.912l-.257,4.887a22.777,22.777,0,0,0-2.368,2.072,24.144,24.144,0,0,0-2.094,2.407A25.931,25.931,0,0,0,99.219,61.3a29.185,29.185,0,0,0-1.53,3.048c-.2.466-.4.951-.584,1.444s-.361,1-.522,1.5c-.166.517-.32,1.038-.459,1.55s-.275,1.063-.394,1.6c-.109.484-.213.992-.309,1.51s-.18,1.044-.249,1.536c-.074.518-.139,1.043-.193,1.562s-.1,1.06-.134,1.581l-4.255,77.221c1.976-2.342,4.006-4.739,6.035-7.125,1.932-2.272,3.919-4.6,6.073-7.109,2.056-2.4,4.1-4.776,6.088-7.068s4.031-4.652,6.081-7c.345.23.7.448,1.061.65s.732.392,1.107.565.772.338,1.147.475c.4.145.8.275,1.185.384.365.1.743.2,1.155.281.387.08.789.148,1.193.2s.806.092,1.231.121.854.042,1.261.042a23.52,23.52,0,0,0,3.888-.346,30.8,30.8,0,0,0,4.154-1.027,41.1,41.1,0,0,0,4.4-1.7c1.5-.673,3.057-1.471,4.636-2.372.634-.359,1.274-.737,1.9-1.125.614-.376,1.262-.788,1.926-1.224s1.322-.886,1.942-1.324,1.256-.894,1.952-1.412c.543-.4,1.089-.821,1.622-1.238s1.074-.851,1.594-1.277,1.045-.866,1.565-1.312,1.033-.9,1.526-1.34l.188.533c.035.1.068.191.1.279s.065.186.094.266.058.161.094.264l.052.148.018.051.016.045.01.028.035.094.2.556c-1.3,1.09-2.533,2.18-3.669,3.24s-2.262,2.169-3.3,3.261c-1.026,1.074-2.011,2.175-2.929,3.272s-1.775,2.206-2.54,3.273c-.475.662-.923,1.317-1.332,1.949-.424.655-.823,1.31-1.188,1.946s-.726,1.3-1.045,1.934-.625,1.293-.893,1.917c-.3.7-.573,1.409-.815,2.106-.236.68-.45,1.384-.637,2.091s-.338,1.389-.459,2.071-.215,1.373-.276,2.042l-4.789,108.21c-2.5,3.065-5,6.149-7.438,9.167-2.477,3.07-4.991,6.2-7.471,9.308-2.576,3.226-5.094,6.393-7.483,9.415-2.5,3.165-5.012,6.359-7.464,9.493-2.518,3.218-5.006,6.415-7.4,9.5-2.565,3.314-5.059,6.552-7.412,9.621-2.477,3.23-4.968,6.5-7.4,9.711C77.7,321.621,75.225,324.907,72.815,328.118ZM90.261,159.833l-6.3,114.413h0l0,0,0,0h.007l0,0-.439,7.916c-.038.377-.061.719-.071,1.047s-.01.667,0,1,.042.644.081.942.089.589.155.887a8.451,8.451,0,0,0,.233.833,6.954,6.954,0,0,0,.307.748,5.319,5.319,0,0,0,.378.659,4.5,4.5,0,0,0,.449.57,4.134,4.134,0,0,0,.657.573,3.907,3.907,0,0,0,.751.413,4.162,4.162,0,0,0,.84.248,5.018,5.018,0,0,0,.927.084,6.375,6.375,0,0,0,.7-.041,7.333,7.333,0,0,0,.738-.126c.243-.053.5-.122.771-.206.252-.079.514-.174.8-.289A8.574,8.574,0,0,0,92.3,289a9.271,9.271,0,0,0,1-.668,10.564,10.564,0,0,0,.956-.827,12.15,12.15,0,0,0,.9-.98c.259-.31.512-.641.751-.984s.485-.721.707-1.1c.233-.392.456-.8.662-1.2.216-.423.423-.863.616-1.306.17-.386.335-.791.49-1.2s.309-.843.444-1.254c.142-.429.275-.867.4-1.3s.239-.88.348-1.343c.088-.369.172-.753.256-1.173.076-.383.146-.772.208-1.157s.114-.759.158-1.122c.047-.384.082-.735.107-1.075L104.094,199l0,0,0,0h-.015s0,0-.007,0l2.037-39.385-.007,0h0c-.023.011-.095.043-.207.089-.17.07-.357.143-.556.216-.255.1-.542.2-.852.3-.384.125-.746.236-1.106.338-.387.111-.82.223-1.286.332-.511.118-1.024.222-1.525.307-.573.1-1.147.173-1.706.224-.617.059-1.229.089-1.82.089a16.809,16.809,0,0,1-1.9-.106,14.362,14.362,0,0,1-1.766-.315,12.518,12.518,0,0,1-1.627-.524A11.014,11.014,0,0,1,90.261,159.833Zm96.3,130.685c-1.408-.749-2.805-1.5-4.154-2.245-1.4-.769-2.64-1.46-3.784-2.111-1.16-.658-2.331-1.336-3.481-2.013s-2.207-1.319-3.239-1.954c-1.29-.794-2.562-1.6-3.781-2.392s-2.416-1.6-3.535-2.371-2.226-1.565-3.312-2.367c-1.031-.76-2.078-1.561-3.114-2.38a22.4,22.4,0,0,1-1.707-1.547,21.661,21.661,0,0,1-1.483-1.655c-.451-.559-.88-1.149-1.275-1.754-.385-.589-.748-1.209-1.081-1.842-.323-.614-.626-1.259-.9-1.918-.267-.637-.515-1.306-.739-1.988-.216-.658-.415-1.346-.591-2.047-.169-.673-.323-1.378-.458-2.1-.252-1.352-.44-2.757-.573-4.3-.118-1.361-.19-2.793-.221-4.379-.056-2.953.042-5.865.137-8.68v0c.007-.141.012-.286.015-.429l0-.105,0-.062c0-.082.006-.16.009-.239s0-.15.006-.214,0-.12.005-.168c0-.121.008-.236.011-.343v-.013l3.456-85.453a30.781,30.781,0,0,1,.169-3.491,26.673,26.673,0,0,1,.547-3.228,25.525,25.525,0,0,1,.9-3.01,26.965,26.965,0,0,1,1.243-2.843,34.976,34.976,0,0,1,3.419-5.372c.649-.853,1.348-1.712,2.136-2.626.725-.841,1.509-1.707,2.394-2.649,1.13-1.314,2.278-2.619,3.411-3.878,1.2-1.336,2.419-2.658,3.613-3.929,1.219-1.3,2.51-2.65,3.837-4.01,1.3-1.332,2.676-2.719,4.09-4.121,1.113-1.1,2.283-2.248,3.477-3.4,1.171-1.134,2.4-2.307,3.753-3.588,1.247-1.18,2.588-2.434,4.1-3.834,1.6-1.479,3.072-2.835,4.51-4.146.847.511,1.721,1,2.6,1.457s1.765.883,2.642,1.269,1.769.746,2.68,1.077,1.821.628,2.707.882,1.8.486,2.683.676c.907.195,1.816.357,2.7.483s1.79.225,2.715.292,1.824.1,2.715.1a37.788,37.788,0,0,0,7.6-.771,38.45,38.45,0,0,0,3.726-.955c1.231-.38,2.462-.829,3.661-1.333s2.415-1.083,3.6-1.72,2.35-1.333,3.477-2.081,2.248-1.562,3.34-2.432,2.167-1.807,3.192-2.774l.12.149.07.086.117.145.042.052.053.066.254.318.154.191.03.038.113.14.168.21.144.18.071.091.452.567a44.046,44.046,0,0,0-3.858,3.228,46.4,46.4,0,0,0-3.5,3.678,46.866,46.866,0,0,0-5.755,8.5,45.638,45.638,0,0,0-2.144,4.684,43,43,0,0,0-1.558,4.8,40.785,40.785,0,0,0-.954,4.845,37.438,37.438,0,0,0-.328,4.829l-.777,34.084c-3.917,4.43-7.959,9.039-12.015,13.7-3.942,4.529-7.98,9.206-12,13.9-3.955,4.616-7.974,9.344-11.947,14.055-4.029,4.779-8.016,9.545-11.85,14.165l-.536,15.935c.01.379.034.755.071,1.119.039.379.091.751.155,1.106s.143.721.239,1.087.2.722.323,1.065c.11.322.238.655.38.99.136.316.29.644.459.975s.345.648.531.96.386.622.607.942a19.738,19.738,0,0,0,1.282,1.662c.473.548.988,1.09,1.53,1.611s1.141,1.05,1.769,1.558,1.3,1.009,2,1.5c.593.41,1.225.82,1.878,1.22.672.41,1.362.809,2.051,1.184.747.406,1.493.789,2.215,1.139.769.374,1.567.742,2.373,1.094.665.29,1.329.57,1.974.83s1.332.526,2.071.8c.693.258,1.408.513,2.185.78.744.258,1.522.517,2.311.769,1.1-1.324,2.18-2.676,3.2-4.018,1.226-1.606,2.4-3.237,3.5-4.847,1.258-1.843,2.439-3.7,3.509-5.517,1.193-2.028,2.276-4.055,3.218-6.025.509-1.062.984-2.125,1.414-3.158s.823-2.064,1.174-3.068.665-2,.934-2.973.5-1.94.693-2.879.343-1.873.454-2.778.183-1.809.214-2.681.023-1.736-.026-2.576-.138-1.67-.266-2.474c-.064-.395-.139-.792-.223-1.18s-.179-.78-.282-1.162c-.109-.4-.22-.772-.34-1.136s-.257-.741-.4-1.106c-.153-.387-.316-.765-.482-1.124-.178-.382-.362-.75-.545-1.092s-.392-.71-.606-1.061-.435-.69-.667-1.027-.488-.682-.769-1.041c-.256-.327-.537-.666-.837-1.008s-.6-.669-.9-.974c-.314-.321-.638-.634-.964-.932s-.7-.627-1.076-.934-.765-.616-1.154-.9-.8-.579-1.225-.866-.861-.563-1.294-.827l.246-.38.016-.025.028-.043.2-.31.4-.619.017-.026.135-.208.054-.083.216-.332.147-.227.017-.026.283-.436.175-.264c1.039.544,2.04,1.124,2.975,1.723s1.832,1.235,2.664,1.89a29.567,29.567,0,0,1,2.353,2.059,26.772,26.772,0,0,1,2.039,2.224,24.747,24.747,0,0,1,1.723,2.388,23.808,23.808,0,0,1,2.491,5.265,24.994,24.994,0,0,1,.762,2.872,27.149,27.149,0,0,1,.424,2.872c.093.982.137,2,.132,3.017s-.059,2.093-.16,3.155-.252,2.172-.451,3.281c-.182,1.013-.4,2.041-.657,3.055-.258,1.032-.56,2.094-.9,3.159-.327,1.04-.707,2.134-1.129,3.251-.409,1.081-.868,2.2-1.363,3.335-.434.991-.907,2.008-1.4,3.024-.484.986-1.016,2.019-1.581,3.071-.536.992-1.125,2.037-1.753,3.108-.619,1.049-1.264,2.1-1.919,3.129-.582.917-1.192,1.846-1.814,2.761-.606.9-1.252,1.819-1.921,2.746-.652.9-1.331,1.818-2.018,2.716-.712.929-1.422,1.832-2.112,2.682-2.438,2.972-4.394,5.345-6.156,7.468-2.12,2.556-4.034,4.841-5.85,6.986-2.01,2.375-3.874,4.551-5.7,6.651C190.3,286.323,188.43,288.435,186.558,290.519ZM182.5,131.239l-2.723,81.027,0,0,0,0c1.4-1.673,2.878-3.438,4.8-5.722,1.641-1.953,3.274-3.884,4.806-5.695,1.4-1.653,2.968-3.5,4.794-5.644,1.7-1.993,3.26-3.816,4.769-5.575l1.586-54.078-.383.01-.146,0h-.017l-.221,0-.384.005c-.129,0-.253,0-.385,0-.748,0-1.522-.021-2.3-.061-.759-.042-1.5-.1-2.215-.183-.73-.081-1.444-.183-2.124-.3s-1.356-.26-2.025-.423c-.734-.179-1.46-.388-2.159-.62s-1.392-.493-2.03-.769c-.67-.289-1.308-.6-1.895-.916C183.644,131.969,183.055,131.612,182.5,131.239Zm80.335,145.907h0l-.384-.33-.144-.122-.145-.125-.005,0-.271-.234c-.118-.1-.237-.206-.353-.305l-.025-.021-.042-.036-.14-.121-.042-.036-.007-.006-.233-.2-.288-.246-.032-.027-.048-.041-.056-.048-.018-.016c-1.921-1.655-3.988-3.433-6.083-5.222-2.35-2-4.314-3.656-6.18-5.2-2.225-1.845-4.281-3.512-6.285-5.1-2.252-1.779-4.346-3.381-6.4-4.9.006,0,.145-.1.381-.287.273-.219.529-.437.781-.665.363-.328.714-.673,1.045-1.025.415-.441.809-.9,1.17-1.37.239-.311.475-.64.7-.977s.432-.672.625-1.009.381-.688.551-1.034.333-.715.474-1.061c.183-.455.344-.912.477-1.358s.257-.924.352-1.388.167-.927.221-1.411.084-.96.092-1.429l2.223-117.464c.01-.518,0-1.031-.023-1.525s-.067-.968-.125-1.408-.135-.87-.229-1.289a11.335,11.335,0,0,0-.332-1.162,9.421,9.421,0,0,0-.356-.878,7.924,7.924,0,0,0-.429-.789,6.453,6.453,0,0,0-.5-.7,5.844,5.844,0,0,0-.566-.6,5.689,5.689,0,0,0-2.206-1.262,6.09,6.09,0,0,0-.994-.214,6.334,6.334,0,0,0-.789-.051h-.15l-.152.008-.027,0h0c-.042,0-.081.005-.122.01l-.019,0c-.039,0-.082.009-.123.015,1.873-1.723,3.928-3.6,6.281-5.74,2.022-1.837,4.139-3.749,6.291-5.684,2.011-1.806,4.124-3.691,6.281-5.6,2.122-1.882,4.223-3.735,6.247-5.509,1.1.884,2.141,1.719,3.175,2.551s1.914,1.542,2.731,2.2c.886.719,1.752,1.423,2.723,2.213l.425.348c.775.634,1.69,1.382,2.728,2.233l-.069,5.845c1.368-1.355,2.99-2.96,4.644-4.591,1.481-1.46,3-2.956,4.651-4.573,1.727-1.694,3.245-3.178,4.639-4.537,1.679-1.638,3.188-3.105,4.611-4.486.24.222.5.452.792.7.234.2.495.422.82.685.3.243.58.46.85.663.338.254.615.458.873.641.35.246.668.462.97.66s.616.4.976.615c.326.2.656.39.982.57s.654.356.98.52c.345.176.707.35,1.074.517.392.178.741.327,1.066.456.362.144.717.275,1.054.389.314.108.654.215,1.038.327.353.1.718.189,1.117.277.36.078.728.146,1.1.2.348.051.707.091,1.069.12.333.025.683.038,1.04.038h.346c.043,0,.089,0,.126,0h.049l.081,0h.009l.085,0a11.656,11.656,0,0,0,1.347-.155,10.907,10.907,0,0,0,1.3-.307,11.478,11.478,0,0,0,1.252-.459,11.214,11.214,0,0,0,2.244-1.3,12.5,12.5,0,0,0,.982-.805c.313-.287.621-.6.913-.918s.582-.679.84-1.028.5-.7.716-1.055.436-.739.629-1.119.372-.769.54-1.179.317-.824.449-1.235.244-.824.34-1.231.179-.824.244-1.249.113-.842.142-1.249.043-.835.038-1.233c0-.328-.022-.645-.051-.97-.027-.31-.069-.639-.125-.979-.049-.307-.114-.631-.2-.988-.078-.326-.169-.66-.272-.994s-.21-.649-.33-.967-.254-.64-.4-.957-.3-.634-.459-.941-.338-.623-.52-.924c-.172-.286-.36-.578-.573-.894-.2-.3-.415-.588-.624-.86s-.428-.542-.67-.822c-.229-.264-.47-.527-.716-.782s-.513-.511-.776-.751-.531-.472-.807-.695-.557-.435-.837-.634-.573-.394-.863-.573l.007-2.461c.488.124.977.272,1.451.439s.942.351,1.391.553.9.43,1.327.668.846.5,1.259.78c.385.265.766.55,1.13.848s.709.607,1.053.941.672.684.97,1.03.6.726.886,1.112.535.77.773,1.157.47.805.677,1.213.4.841.579,1.272.339.884.479,1.327.266.9.371,1.361.193.919.262,1.387.119.942.152,1.406.044.945.04,1.423c-.006.584-.026,1.2-.058,1.825-.032.591-.078,1.207-.137,1.832s-.133,1.244-.215,1.832-.18,1.21-.291,1.83c-.117.643-.236,1.226-.361,1.784s-.271,1.161-.432,1.772c-.159.6-.329,1.185-.5,1.753s-.363,1.124-.576,1.725c-.2.55-.412,1.118-.642,1.688-.219.542-.458,1.1-.711,1.66s-.512,1.094-.777,1.622c-.258.512-.54,1.044-.84,1.583s-.6,1.046-.906,1.538c-.323.52-.648,1.021-.969,1.49s-.647.93-1.025,1.438c-.333.446-.7.911-1.081,1.381s-.772.912-1.149,1.328-.782.843-1.2,1.267-.846.828-1.256,1.2-.838.747-1.3,1.129c-.448.368-.911.728-1.375,1.071s-.934.67-1.418.988-.965.618-1.459.906-.985.556-1.494.817a30.744,30.744,0,0,1-3.256,1.434,29.341,29.341,0,0,1-6.837,1.649,30.375,30.375,0,0,1-3.556.208,32.13,32.13,0,0,1-3.728-.221,34.81,34.81,0,0,1-3.775-.66,38.33,38.33,0,0,1-3.805-1.1c-1.255-.43-2.541-.943-3.822-1.527l-.352.349c-.108.106-.219.216-.322.319s-.211.209-.3.3l-.271.269-.015.015-.028.026-.073.073-.029.029c-.079.079-.161.16-.242.243l-.149.148-.033.033-.016.016-.16.159c-.1.1-.207.207-.318.317l-.008.008-.06.059-.047.048-.025.024-.359.357-1.165,97.619a15.1,15.1,0,0,1-.069,1.959,16.976,16.976,0,0,1-.324,1.993,18.523,18.523,0,0,1-.571,2,19.665,19.665,0,0,1-.814,1.975,20.144,20.144,0,0,1-1,1.847,20.8,20.8,0,0,1-1.182,1.73,20.407,20.407,0,0,1-1.345,1.591,19.912,19.912,0,0,1-1.489,1.426c1.371,1.145,2.846,2.383,4.509,3.784,1.74,1.468,3.167,2.676,4.489,3.8,1.676,1.424,3.132,2.666,4.453,3.8,1.387,1.186,2.828,2.423,4.4,3.783,1.13-1.214,2.294-2.461,3.556-3.811,1.391-1.486,2.532-2.7,3.59-3.824,1.165-1.241,2.38-2.529,3.609-3.827,1.189-1.259,2.406-2.542,3.616-3.814l-.043,7.108c-3.076,3.139-6.079,6.221-8.925,9.161-3.172,3.278-6.1,6.315-8.937,9.283-2.909,3.037-5.909,6.19-8.917,9.371C268.742,270.851,265.759,274.022,262.839,277.146Z" transform="translate(0.001 0)"></path></svg>