<svg xmlns="http://www.w3.org/2000/svg" width="117.655" height="93.148" viewBox="0 0 117.655 93.148"><defs><style>.a{fill:#fff;}</style></defs><path class="a" d="M4015.612,6178.147a68.156,68.156,0,0,1-18.312-2.442,56.249,56.249,0,0,1-15.583-6.925,43.817,43.817,0,0,1-11.59-10.8,36.6,36.6,0,0,1-6.34-14.07,36.189,36.189,0,0,1-.744-9.3,38.536,38.536,0,0,1,1.591-9.146,43.979,43.979,0,0,1,3.729-8.764,51.313,51.313,0,0,1,5.675-8.151,59.158,59.158,0,0,1,7.424-7.309,66.507,66.507,0,0,1,8.979-6.235,72.288,72.288,0,0,1,10.338-4.932,76.885,76.885,0,0,1,27.257-5.074,68.192,68.192,0,0,1,18.316,2.443,56.277,56.277,0,0,1,15.583,6.925,43.818,43.818,0,0,1,11.59,10.8,36.582,36.582,0,0,1,6.339,14.069,36.171,36.171,0,0,1,.745,9.3,38.532,38.532,0,0,1-1.591,9.146,43.927,43.927,0,0,1-3.729,8.764,51.311,51.311,0,0,1-5.675,8.151,59.213,59.213,0,0,1-7.424,7.308,66.462,66.462,0,0,1-8.979,6.235,72.164,72.164,0,0,1-10.339,4.932,76.868,76.868,0,0,1-27.257,5.075Zm-35.017-38.689c-1.268,7.258-.3,12.675,2.969,16.561,2.765,3.29,7.207,5.458,13.58,6.627,5.407.992,11.521,1.2,19.038,1.2,11.187,0,21.462-1.39,28.934-3.913,9.286-3.136,14.313-7.862,14.944-14.045a8.179,8.179,0,0,0-2.179-6.18c-2.018-2.336-5.442-4.433-10.179-6.231a84.444,84.444,0,0,0-13.768-3.723c-4.757-.917-9.211-1.486-12.11-1.8-3.118-.339-5.149-.466-5.2-.469l.018,0c.344.1,1.6.479,3.31,1.075,1.818.632,4.554,1.65,7.265,2.912a33,33,0,0,1,7.12,4.249,10.148,10.148,0,0,1,2.229,2.473,4.187,4.187,0,0,1,.663,2.622c-.252,1.838-2.186,3.208-5.746,4.075a51.914,51.914,0,0,1-11.783,1.077,66.97,66.97,0,0,1-9.046-.433c-2.938-.428-4.786-1.225-5.651-2.438a3.088,3.088,0,0,1-.564-1.574,5.154,5.154,0,0,1,.319-2.062Zm18.054-36.534c-9.286,3.136-14.314,7.861-14.944,14.045a8.181,8.181,0,0,0,2.179,6.182c2.018,2.336,5.442,4.433,10.179,6.231a84.381,84.381,0,0,0,13.769,3.723c4.757.917,9.21,1.486,12.109,1.8,3.118.34,5.149.466,5.2.47l-.017,0c-.343-.1-1.6-.479-3.311-1.075-1.817-.632-4.553-1.65-7.265-2.912a33.033,33.033,0,0,1-7.119-4.25,10.142,10.142,0,0,1-2.229-2.473,4.193,4.193,0,0,1-.663-2.623c.252-1.838,2.186-3.209,5.745-4.076a51.926,51.926,0,0,1,11.785-1.077,67.05,67.05,0,0,1,9.046.433c2.938.428,4.786,1.226,5.65,2.439a3.082,3.082,0,0,1,.564,1.574,5.135,5.135,0,0,1-.319,2.063h24.164c1.394-7.191.514-12.576-2.692-16.463-2.745-3.329-7.221-5.524-13.682-6.711-5.469-1-11.637-1.21-19.214-1.21C4016.4,6099.011,4006.122,6100.4,3998.65,6102.924Z" transform="translate(-3963 -6085)"/></svg>