<svg xmlns="http://www.w3.org/2000/svg" width="92.134" height="93.149" viewBox="0 0 92.134 93.149"><defs><style>.a{fill:#fff;}</style></defs><path class="a" d="M29.392,93.149a4.166,4.166,0,0,1-2.724-1.137,3.981,3.981,0,0,1-.742-.927,3.687,3.687,0,0,1-.427-1.128,3.6,3.6,0,0,1-.023-1.268,4.19,4.19,0,0,1,.471-1.348,18.9,18.9,0,0,1-4.014.462c-5.044,0-8.81-2.474-10.073-6.618a9.072,9.072,0,0,1,.855-7.173,9.609,9.609,0,0,1,1.2-1.643,9.345,9.345,0,0,1-2.6-1.178,8.121,8.121,0,0,1-1.88-1.712,7.72,7.72,0,0,1-1.173-2.046,7.376,7.376,0,0,1-.48-2.18,8.438,8.438,0,0,1,.363-3.028,9.566,9.566,0,0,1,1.406-2.784,7.731,7.731,0,0,1-.956-.9,13.739,13.739,0,0,1-2.129-3.654h0l-.044-.1v0c-.139-.31-.27-.6-.4-.869l-.053-.109c-.821-1.791-1.686-3.72-2.444-5.687A45.119,45.119,0,0,0,1.176,43.2l-.005-.01C.849,42.595.6,42.124.4,41.667l-.04-.1a4.688,4.688,0,0,1,.124-3.893l.1-.206.131-.189A4.474,4.474,0,0,1,4.357,35.3a4.1,4.1,0,0,1,1.349.229A6.115,6.115,0,0,1,7.989,37.14c.288-1.169.585-2.235.884-3.166.267-.832.542-1.582.819-2.229a10.983,10.983,0,0,1,1.385-2.459,5.809,5.809,0,0,1,.913-.973,5.7,5.7,0,0,1,1.094-.727,5.635,5.635,0,0,1,2.558-.612,5.892,5.892,0,0,1,.741.048l.189.024.185.047a5.489,5.489,0,0,1,2.261,1.218,14.891,14.891,0,0,1,1.109-2.285,12.991,12.991,0,0,1,1.557-2.093,3.791,3.791,0,0,1-.095-1.32c.236-2.316,2.366-3.9,5.893-6.517.793-.589,1.735-1.213,2.8-1.855,1.454-.877,3.1-1.761,4.884-2.628A113.75,113.75,0,0,1,52.357,5.14a4.079,4.079,0,0,1,3.676-2.324,4.233,4.233,0,0,1,2,.519,72.84,72.84,0,0,1,7.651-1.867,8.581,8.581,0,0,1,2-1.031A7.1,7.1,0,0,1,70.074,0h.049l.143,0A5.763,5.763,0,0,1,74.692,2.42a6.119,6.119,0,0,1,.914,5.355c-1.254,4.261-5.883,4.907-7.626,5.15-.981.137-2.3.4-3.241.594a93.236,93.236,0,0,1,3.881,8.775c.7,1.868,1.3,3.694,1.784,5.428a44.523,44.523,0,0,1,1.205,5.7c.058.447.1.889.123,1.314a5.692,5.692,0,0,1,1.343-.17,4.128,4.128,0,0,1,3.216,1.419,4.6,4.6,0,0,1,.876,1.526,3.8,3.8,0,0,1,.056,2.207,4.728,4.728,0,0,1,2.862,1.1c3.383,2.764,1.015,6.4-.714,9.063l-.007.01c-.365.561-.779,1.2-1.21,1.9a8.672,8.672,0,0,0-.792,1.648,7.33,7.33,0,0,0-.352,1.412,24.731,24.731,0,0,0,3.243-4.523l0,0a18.677,18.677,0,0,1,1.021-1.595c1.8-2.492,3.812-3.015,5.18-3.015a5.569,5.569,0,0,1,5.181,3.572,7.045,7.045,0,0,1,.491,2.8,6.964,6.964,0,0,1-.633,2.76,28.184,28.184,0,0,1-3.759,5.772,29.894,29.894,0,0,1-3.168,3.332,19.557,19.557,0,0,1-3.776,2.694c1.585.134,2.742.3,3.433.4l.119.017.019,0c.115.017.214.031.283.038a7.648,7.648,0,0,1,1.252.2,8.608,8.608,0,0,1,1.39.469,7.6,7.6,0,0,1,1.368.767,6.042,6.042,0,0,1,1.184,1.1,5.134,5.134,0,0,1,1.126,3.952c-.213,1.629-1.322,5.442-6.993,5.666l-.063,0-.139,0a13.975,13.975,0,0,1-1.4-.1h-.014l-.04,0c-.546-.056-1.226-.126-2.033-.161-1.174-.051-2.985-.117-5.132-.117A80.967,80.967,0,0,0,55.938,81a77.441,77.441,0,0,0-23.886,11.02,4.549,4.549,0,0,1-.924.678,3.591,3.591,0,0,1-1.735.448M75.9,69.643a61.96,61.96,0,0,0-18.886,3.009,73.447,73.447,0,0,0-10.6,4.391,94.261,94.261,0,0,0-8.743,5.029c-2.673,1.73-4.761,3.267-6.042,4.25-1.462,1.123-2.349,1.891-2.5,2.053a1.672,1.672,0,0,0-.48.779.568.568,0,0,0,.217.53.992.992,0,0,0,.526.263.924.924,0,0,0,.538-.314,3.177,3.177,0,0,1,.252-.21,74.04,74.04,0,0,1,7.6-4.642,84.247,84.247,0,0,1,7.853-3.733,67.441,67.441,0,0,1,9.537-3.156c1.757-.432,3.6-.806,5.478-1.111,1.7-.277,3.469-.505,5.261-.677,2.951-.284,6.062-.428,9.245-.428,2.223,0,4.072.068,5.27.12.9.038,1.654.116,2.261.178H82.7c.462.048.828.085,1.077.085h.074c2.413-.1,3.7-1.039,3.946-2.885a1.914,1.914,0,0,0-.433-1.512,4.665,4.665,0,0,0-2.987-1.37c-.109-.008-.316-.038-.6-.079a53.128,53.128,0,0,0-7.871-.571M21.27,72.217a5.754,5.754,0,0,0-1.35.173,6.993,6.993,0,0,0-4.433,3.223,5.879,5.879,0,0,0-.565,4.639c.842,2.764,3.4,4.35,7.009,4.35h0a18.488,18.488,0,0,0,6.144-1.2,14.331,14.331,0,0,0,8.239-8.478,10.093,10.093,0,0,0-.348-8.033c-1.247-2.217-3.285-3.3-6.231-3.3a24.478,24.478,0,0,0-5.869.937c-1.5.386-2.56.634-3.42.8a12.262,12.262,0,0,1-2.288.282,2.051,2.051,0,0,1-1.659-.56,1.376,1.376,0,0,1-.309-.748,2.106,2.106,0,0,1,.116-.922,2.839,2.839,0,0,1,.863-1.223,3.393,3.393,0,0,1,.743-.472,4.026,4.026,0,0,1,.955-.3,6.862,6.862,0,0,1,1.288-.112c.477,0,.924.037,1.357.073.169.014.345.028.511.039.352.024.637.036.9.036a4.207,4.207,0,0,0,1.736-.3,1.943,1.943,0,0,0,1.127-1.189,2.428,2.428,0,0,0-.337-1.956,2.3,2.3,0,0,0-1.172-.855,5.083,5.083,0,0,0-.984-.257,7.671,7.671,0,0,0-1.235-.094,11.621,11.621,0,0,0-2.158.218,17.351,17.351,0,0,0-2.607.726,13.017,13.017,0,0,0-2.924,1.461,9.019,9.019,0,0,0-2,1.823,6.635,6.635,0,0,0-1.115,2.015,5.337,5.337,0,0,0-.278,2.038c.143,2.269,2.15,4.559,6.311,4.559a12.461,12.461,0,0,0,1.581-.1c1.183-.152,2.372-.4,3.521-.634H22.4a24.506,24.506,0,0,1,4.659-.676,5.135,5.135,0,0,1,2.292.451,3.39,3.39,0,0,1,.906.646,3.953,3.953,0,0,1,.715,1,3.115,3.115,0,0,1,.318,1.123,4.577,4.577,0,0,1-.067,1.272A8.271,8.271,0,0,1,30.11,75.42a12.218,12.218,0,0,1-3.351,3.563,7.75,7.75,0,0,1-4.36,1.551h0a5.113,5.113,0,0,1-1.688-.281,2.483,2.483,0,0,1-1.124-.888,2.6,2.6,0,0,1-.521-1.419,1.753,1.753,0,0,1,.3-1.053,2.38,2.38,0,0,1,1.085-.833,2.175,2.175,0,0,0,.469,1.764,1.993,1.993,0,0,0,1.534.676,2.482,2.482,0,0,0,.628-.083,2.518,2.518,0,0,0,1.842-2.883,3.806,3.806,0,0,0-.845-2.047,3.474,3.474,0,0,0-2.8-1.27m13.12-14.5h0a51.821,51.821,0,0,0,1.889,5.318c.748,1.815,1.574,3.577,2.456,5.235a47,47,0,0,0,3.547,5.7,3.928,3.928,0,0,0,2.631,1.572,1.56,1.56,0,0,0,.97-.461l.082-.063a2.426,2.426,0,0,0,.723-.828,1.573,1.573,0,0,0,.159-.824,3.309,3.309,0,0,0-.62-1.493c-.086-.132-.256-.338-.471-.6-1.3-1.572-4.736-5.748-8.473-15.389.718-.454,1.619-.942,2.573-1.459l0,0c.546-.3,1.111-.6,1.633-.9a20.887,20.887,0,0,0,.029,6.417,7.653,7.653,0,0,0,1.608,3.685,3.627,3.627,0,0,0,2.757,1.328,4.41,4.41,0,0,0,3.76-2.52,23.825,23.825,0,0,0,.34,3.739,16.786,16.786,0,0,0,.828,3.114A7.185,7.185,0,0,0,52,71.413a1.926,1.926,0,0,0,1.413.789,1.366,1.366,0,0,0,.442-.076.19.19,0,0,1,.039,0l.09,0h0l.095,0a.17.17,0,0,0,.035,0,1.849,1.849,0,0,0,.951-.752,2.567,2.567,0,0,0,.323-1.252,21.118,21.118,0,0,0-.567-4.194v0l0-.01c-.214-1.115-.456-2.379-.678-3.827-.258-1.681-.439-3.284-.553-4.9-.166-1.853-.339-4.93-.514-9.146l0-.059c0-.1-.008-.181-.01-.23a3.768,3.768,0,0,0-.121-.835,2.2,2.2,0,0,0-.312-.69,1.514,1.514,0,0,0-1.315-.644,2.869,2.869,0,0,0-.619.074,2.314,2.314,0,0,0-1.088.545,2.219,2.219,0,0,0-.544.791,2.755,2.755,0,0,0-.209,1.022,19.89,19.89,0,0,0,.025,2.278v0a39.713,39.713,0,0,1-.052,5.667,8.047,8.047,0,0,1-.569,2.376,2.688,2.688,0,0,1-.523.79,1.533,1.533,0,0,1-.722.417,1.626,1.626,0,0,1-.4.053,1.059,1.059,0,0,1-.814-.36,2.528,2.528,0,0,1-.518-1.177,8.9,8.9,0,0,1-.162-1.684,33.226,33.226,0,0,1,.21-3.6h0a11.7,11.7,0,0,0,.1-1.619,2.237,2.237,0,0,0-.626-1.355,1.729,1.729,0,0,0-.561-.366,1.786,1.786,0,0,0-.672-.128,2.049,2.049,0,0,0-.246.015,3.743,3.743,0,0,1-.431.024,3.559,3.559,0,0,0-1.41.237c-.025.012-2.711,1.254-5.527,2.621a1.661,1.661,0,0,0-1.051-.262,1.632,1.632,0,0,0-.618.118,1.485,1.485,0,0,0-.493.327,1.669,1.669,0,0,0-.468,1.127A51.5,51.5,0,0,0,28.6,56.141c-.078.061-.162.124-.244.186a5.782,5.782,0,0,0-1.334,1.25,1.39,1.39,0,0,0,0,1.708,1.738,1.738,0,0,0,1.528.747,4.123,4.123,0,0,0,1.354-.265,7.257,7.257,0,0,0,1.064-.482c.364-.2.949-.449,1.567-.711a17.47,17.47,0,0,0,1.853-.859ZM57.16,44.828a2.07,2.07,0,0,0-.409.044,2.213,2.213,0,0,0-1.841,2.1,70.932,70.932,0,0,0,.46,11.192,65.767,65.767,0,0,0,1.118,7.153c.025.095.051.2.078.3l0,.011h0a10.619,10.619,0,0,0,1.027,2.808A3.553,3.553,0,0,0,58.62,69.57a2.705,2.705,0,0,0,1.55.46,4.73,4.73,0,0,0,1.316-.261,5.323,5.323,0,0,0,1.152-.506A7.31,7.31,0,0,0,63.7,68.5a12.514,12.514,0,0,0,1.881-2.076,24.776,24.776,0,0,0,1.548-2.406c.462-.806.865-1.58,1.221-2.262l0,0c.29-.559.542-1.041.76-1.415a5.333,5.333,0,0,0,.308.814A7,7,0,0,0,70.5,62.806a5.96,5.96,0,0,0,1.858,1.436,6.5,6.5,0,0,0,2.894.634,9.021,9.021,0,0,0,1.232-.088c3.044-.423,5.908-2.969,7.775-5.031a31.911,31.911,0,0,0,2.791-3.578,18.846,18.846,0,0,0,1.535-2.66,3.964,3.964,0,0,0,.088-3.033,2.409,2.409,0,0,0-1.4-1.422,2.347,2.347,0,0,0-.81-.15,2.583,2.583,0,0,0-1.647.657,5.54,5.54,0,0,0-.963,1.066c-.2.26-.487.734-.848,1.335v0a30.4,30.4,0,0,1-2.971,4.316,9.625,9.625,0,0,1-1.969,1.776,4.952,4.952,0,0,1-1.073.531,3.462,3.462,0,0,1-1.12.194,3.123,3.123,0,0,1-.436-.03,2.158,2.158,0,0,1-1.37-1.4,4.835,4.835,0,0,1-.29-1.487,8.09,8.09,0,0,1,.125-1.8,11.441,11.441,0,0,1,1.535-3.96c.446-.724.878-1.389,1.259-1.975a17.593,17.593,0,0,0,1.719-2.984A1.466,1.466,0,0,0,78.06,43.3a1.5,1.5,0,0,0-.968-.381,2.228,2.228,0,0,0-1.271.5,13.8,13.8,0,0,0-1.349,1.167c-.284.266-.578.542-.885.808A6.455,6.455,0,0,1,71.878,46.5a3.239,3.239,0,0,1-1.218.272h0a1.591,1.591,0,0,1-.493-.068.778.778,0,0,1-.452-.5,1.175,1.175,0,0,1-.073-.549,6.5,6.5,0,0,1,.462-1.579,7.219,7.219,0,0,1,.728-1.278,12.158,12.158,0,0,1,1.621-1.79c.125-.119.243-.231.346-.334.079-.078.16-.157.238-.234l.006-.006c.8-.776,1.546-1.51.809-2.38a.981.981,0,0,0-.776-.29,5.054,5.054,0,0,0-2.635,1.083,10.935,10.935,0,0,0-2.9,3.137,10.521,10.521,0,0,0-1.7,4.678,4.183,4.183,0,0,0,.908,3.184,2.486,2.486,0,0,0,1.884.834,4.874,4.874,0,0,0,2.062-.572,12.871,12.871,0,0,0-1.841,4.455,2.375,2.375,0,0,0-1.178-.337c-1.073,0-1.963.864-2.5,2.434a18.784,18.784,0,0,1-1.134,2.485A14.927,14.927,0,0,1,62.911,60.9a7.805,7.805,0,0,1-1.426,1.53,32.427,32.427,0,0,1-2.094-8.157c-.429-2.847-.635-5.508-.734-6.787-.028-.355-.049-.635-.065-.78a2.914,2.914,0,0,0-.308-1.214,1.209,1.209,0,0,0-1.123-.664Zm-52.8-6.322a1.335,1.335,0,0,0-1.01.6,1.348,1.348,0,0,0-.144.661,1.977,1.977,0,0,0,.144.649c.136.321.36.735.643,1.26l0,0A48.811,48.811,0,0,1,6.5,46.968c.729,1.889,1.568,3.762,2.368,5.5.169.335.336.707.512,1.1l0,.006a11.393,11.393,0,0,0,1.59,2.825,4.253,4.253,0,0,0,1.065.867,3.666,3.666,0,0,0,1.3.444h0a3.043,3.043,0,0,0,1.212-.267,1.786,1.786,0,0,0,.89-.781c.573-1.47-.032-2.224-1.13-3.592-.37-.461-.789-.983-1.239-1.627a20.077,20.077,0,0,1-1.405-2.334,9.309,9.309,0,0,1,.752-1.786v0a12.012,12.012,0,0,0,.878-2.079,15.4,15.4,0,0,1,2.832,1.868,13.53,13.53,0,0,1,1.955,2.008A11.921,11.921,0,0,1,19.308,51a8.72,8.72,0,0,1,.612,1.473,3.212,3.212,0,0,0,3.057,2.746,3.278,3.278,0,0,0,.89-.126,2.345,2.345,0,0,0,1.684-1.39,3.677,3.677,0,0,0-.369-2.8,18.846,18.846,0,0,0-3.943-3.92,29.616,29.616,0,0,0-3.268-2.261A18.78,18.78,0,0,0,14.4,43.036a.435.435,0,0,1-.268-.345,1.047,1.047,0,0,1,.005-.442,33.391,33.391,0,0,1,2.348-4.983,17.348,17.348,0,0,0,1.6-3.4,3.416,3.416,0,0,0-.526-2.358,2.825,2.825,0,0,0-1.579-1.311,2.579,2.579,0,0,0-.333-.022,2.5,2.5,0,0,0-2.034,1.07c-.883,1.14-1.763,3.528-2.618,7.1-.682,2.85-1.145,5.609-1.343,6.787v.007c-.055.328-.088.527-.094.527a26.478,26.478,0,0,0-2.372-4.376,16.193,16.193,0,0,0-1.373-1.806,3.273,3.273,0,0,0-1.15-.925.905.905,0,0,0-.3-.05M27.7,40.265h0a28.254,28.254,0,0,1,1.013,3.817c.2,1.08.306,2.006.4,2.823a17.722,17.722,0,0,0,.432,2.684c.33,1.234.969,1.834,1.954,1.834a1.932,1.932,0,0,0,1.052-.262c1.334-.992,1.232-3.053,1.052-4.193-.323-3.08-1.762-8.238-3.946-14.152a34.352,34.352,0,0,0-2.524-5.711c-.616-.989-1.048-1.24-1.422-1.365a1.473,1.473,0,0,0-.494-.079A1.837,1.837,0,0,0,24.129,26c-3.99,4.24-3.352,11.493-2.893,14.414a13.762,13.762,0,0,0-1.9,1.389,4.506,4.506,0,0,0-.807.909,1.018,1.018,0,0,0-.189.846c.032.459.447.681.789.786a.666.666,0,0,0,.124.011,5.313,5.313,0,0,0,1.595-.474c.55-.233,1.02-.471,1.024-.474a23.474,23.474,0,0,0,1.056,3.116,7.588,7.588,0,0,0,.936,1.752,1.3,1.3,0,0,0,.9.436.748.748,0,0,0,.471-.159c.393-.29.4-.614.407-1.1v-.009c0-.026,0-.052,0-.079a5.317,5.317,0,0,0-.594-1.856h0a13.6,13.6,0,0,1-1.075-3.257c1.877-1.074,3.694-1.987,3.721-1.987m5-15.848a.9.9,0,0,0-.155.013,1.29,1.29,0,0,0-1.045.755,4.5,4.5,0,0,0-.27,1.6,27.039,27.039,0,0,0,1.053,7.862c.982,3.787,3.079,9.892,4.208,11.793a7.358,7.358,0,0,0,1.016,1.406,1.209,1.209,0,0,0,.825.428,1.672,1.672,0,0,0,.79-.263,1.164,1.164,0,0,0,.511-1.16,5.584,5.584,0,0,0-.511-1.722c-.005-.012-.556-1.23-1.305-3.291-.444-1.221-.872-2.5-1.273-3.8-.5-1.626-.961-3.3-1.368-4.963.035.047.11.139.224.278l0,0c.432.526,1.331,1.622,2.545,3.361a71.123,71.123,0,0,1,4.33,7.1c.03.055.065.124.1.2h0a6.365,6.365,0,0,0,.9,1.394,2.326,2.326,0,0,0,1.749.863,2.476,2.476,0,0,0,.671-.1A2.071,2.071,0,0,0,47.3,44.7a5.078,5.078,0,0,0,.011-1.93c-.011-.085-.022-.173-.031-.256-.072-.945-.64-3.345-1.359-6.383h0c-.895-3.781-2.008-8.487-2.587-12.224-.038-.154-.073-.347-.113-.57a7.522,7.522,0,0,0-.576-2.029A2.249,2.249,0,0,0,42,20.5a1.7,1.7,0,0,0-1.033-.324,2.638,2.638,0,0,0-.528.057,1.911,1.911,0,0,0-1.271.863,3.015,3.015,0,0,0-.4,1.118A5.708,5.708,0,0,0,38.7,23.39a7.669,7.669,0,0,0,.162,1.3,63.1,63.1,0,0,0,2.106,9.435c-.054,0-1.275-1.548-2.387-2.986-1.155-1.494-2.492-3.257-2.875-3.828L35.7,27.3c-.723-1.077-1.934-2.882-2.993-2.882ZM46.8,19.01a1.167,1.167,0,0,0-.352.056c-.729.23-1.126.846-1.252,1.941a20.391,20.391,0,0,0,.791,6.3c.416,1.759.872,3.457,1.355,5.048A50.82,50.82,0,0,0,49.262,37.7a18.337,18.337,0,0,0,2.4,4.226,3.822,3.822,0,0,0,2.8,1.719,2.327,2.327,0,0,0,.6-.08A5.349,5.349,0,0,0,58.023,40.7a18.379,18.379,0,0,0,1.6-8.563,48.388,48.388,0,0,0-2.606-13.966c-.03-.07-.067-.168-.111-.28h0a10.189,10.189,0,0,0-.946-1.959,2.3,2.3,0,0,0-1.824-1.257,1.718,1.718,0,0,0-.538.09,2.276,2.276,0,0,0-1.372,1.179c-.57,1.146-.446,3,.358,5.373.031.133.089.364.168.682l.008.032c.385,1.537,1.185,4.736,1.725,7.849.67,3.863.7,6.24.1,7.064a.739.739,0,0,1-.568.325h-.043a1.4,1.4,0,0,1-1.014-.642,7.62,7.62,0,0,1-.954-1.7A34.709,34.709,0,0,1,50.351,29.7c-.5-2.015-.9-4.051-1.153-5.4-.285-1.538-.459-2.658-.49-2.874a4.062,4.062,0,0,0-.6-1.528,1.692,1.692,0,0,0-1.3-.886Zm10.208-6.9h0c.23.557,1.7,4.354,3.135,8.954.8,2.555,1.423,4.865,1.866,6.866a27.193,27.193,0,0,1,.786,5.931c-.881.745-1.2,2.753-.661,4.215a2.549,2.549,0,0,0,2.5,1.814h.263a4.43,4.43,0,0,0,1.615-.286,2.857,2.857,0,0,0,1.1-.774,3.258,3.258,0,0,0,.562-.937,5.049,5.049,0,0,0,.3-1.168,10.9,10.9,0,0,0-.044-2.864c-1.169-8.412-5.65-17.153-7.564-20.886h0c-.406-.793-.7-1.365-.816-1.652.055-.043,1.231-.336,2.832-.687,1.105-.242,3.179-.68,4.646-.884a10.254,10.254,0,0,0,3.244-.877,3.236,3.236,0,0,0,1.754-2.007A2.942,2.942,0,0,0,72.1,4.3,2.54,2.54,0,0,0,70.167,3.2h-.093a4.48,4.48,0,0,0-2.059.583,3.683,3.683,0,0,0-1.005.729,34.675,34.675,0,0,0-4.181.835c-1.469.368-2.891.773-4.033,1.1l-.016,0c-.606.173-1.13.322-1.5.42l-.009-.013c-.509-.7-.952-.842-1.234-.842a.867.867,0,0,0-.335.069c-.635.265-.578.9-.541,1.316a2.244,2.244,0,0,1,.014.255c-15.968,4.51-23.349,9.2-25.781,11.008-1.369,1.017-2.48,1.85-3.282,2.554-.87.763-1.294,1.309-1.336,1.718a.551.551,0,0,0,.145.445.687.687,0,0,0,.542.239,2.574,2.574,0,0,0,1.119-.382c.455-.242,1-.592,1.638-1h0c.572-.364,1.221-.778,1.962-1.218A41.061,41.061,0,0,1,34.163,19.1c2.009-.873,4.294-1.775,6.606-2.608,2.749-.991,5.447-1.855,8.02-2.569a69.926,69.926,0,0,1,8.224-1.806ZM23.34,38.844h0a16.361,16.361,0,0,1,.185-3.733,17.062,17.062,0,0,1,.442-2.046,10.5,10.5,0,0,1,.688-1.82v0c.069.167.71,1.737,1.84,5.5a20.45,20.45,0,0,1-1.955,1.32h0c-.394.253-.841.54-1.2.776Z" transform="translate(0)"/></svg>