<svg xmlns="http://www.w3.org/2000/svg" width="998.894" height="440.404" viewBox="0 0 998.894 440.404"><defs><style>.a{fill:#fff;}</style></defs><path class="a" d="M721.314,440.38c-.02-40.1.07-80.2-.041-120.3-12.479,14.73-30.07,24.681-48.8,28.97-34.64,7.581-72.409-1.229-100.28-23.12-21.88-16.909-37.391-41.359-44.63-67.95-.25,31.12.03,62.26-.14,93.38-16.248.121-32.5.1-48.749.085q-13.671-.015-27.34-.005c.04-6.34,0-12.68-.02-19.01-15.45,14.009-35.84,21.86-56.45,23.919a128.536,128.536,0,0,1-92.83-28.069,131.677,131.677,0,0,1-28.15-31.85c-7.19-11.22-12.19-23.66-16.03-36.381-.18,1.22-.4,2.42-.67,3.621a125.892,125.892,0,0,1-55.021,70.32c-18.73,11.34-40.639,17.05-62.47,17.29-20.29.02-40.87-5.28-57.579-17.04a89.78,89.78,0,0,1-16.16-14.5c-.08,39.73-.02,79.46-.04,119.19q-20.158.055-40.324.027-12.787,0-25.576,0Q-.031,270.84,0,102.74q11.754,0,23.512,0,21.206-.008,42.409.022c-.01,8.509-.06,17.01.049,25.52,16.051-18.71,40.13-29.669,64.59-31.13,35.81-2.99,72.6,11.05,97.19,37.291a127.333,127.333,0,0,1,30.43,53.49,134.676,134.676,0,0,1,37.27-61.5,126.541,126.541,0,0,1,88.21-34.28c24.45-.29,49.26,7.9,67.61,24.3.14-38.81.06-77.621.041-116.43Q473.068-.015,494.828,0q16.319,0,32.636,0c.049,63.63-.09,127.27.07,190.91,9.149-34.63,33.279-65.29,65.64-81a121.557,121.557,0,0,1,62.44-12.31c24.85,1.12,49.469,12.251,65.669,31.32q.076-13.079.021-26.149,20.612-.076,41.231-.033,12.346.008,24.689,0-.044,168.824,0,337.649-18.125.008-36.25.014Q736.143,440.4,721.314,440.38ZM307.084,129.96a122.356,122.356,0,0,0-41.58,73.45c-2.06,10.56-1.79,21.4-1.319,32.1a125.414,125.414,0,0,0,19.36,56.8A120.349,120.349,0,0,0,327.5,332.8a114.182,114.182,0,0,0,56.17,13.61c20.63.37,41.55-6.09,57.75-19.03,7.789-6.09,13.909-13.94,20.37-21.361q.03,17.565,0,35.131,27.66,0,55.33,0,.015-165.451,0-330.881-27.645.12-55.3.02-.076,59.13-.021,118.26c-.03,4.73.19,9.471-.4,14.18-3.66-4.61-7.57-9.03-11.56-13.35a84.255,84.255,0,0,0-44.7-24.62,112.383,112.383,0,0,0-22.643-2.284C355.2,102.475,327.888,112.168,307.084,129.96Zm339.89,30.96a64.753,64.753,0,0,0-53.491,56.62,64.922,64.922,0,0,0,10.011,41.75c9.4,14.6,24.87,25.36,42.03,28.44,13.469,2.9,27.76.36,40.05-5.64a65.156,65.156,0,0,0,33.71-41.57c3.57-13.07,2.36-27.239-2.489-39.82a64.362,64.362,0,0,0-37.2-36.48,64.059,64.059,0,0,0-32.62-3.3Zm-527.521-.41c-22.6,3.721-42.57,20.31-50.029,42.01a63.9,63.9,0,0,0,5.04,53.33,64.807,64.807,0,0,0,43.14,30.72c12.45,2.24,25.64,1.25,37.29-3.85a64.162,64.162,0,0,0,34.92-36.17c6.19-15.559,5.261-33.5-1.46-48.73a63.962,63.962,0,0,0-31.8-32.38,61.936,61.936,0,0,0-26.508-5.74A70.229,70.229,0,0,0,119.453,160.51ZM858.574,339.85c-2.04-.96-4.05-2.01-6.02-3.08-4.09-6.42-2.58-14.33-.53-21.16,3.09-10.27,6.27-20.51,9.29-30.8,1.42-4.84,3.31-9.561,4.18-14.55a236.3,236.3,0,0,1-37.07-3.57c-7.28-1.31-13.091-6.42-17.79-11.83-5.42-6.511-10.5-14.45-9.57-23.31-.12-3.42,2.35-6.01,4.5-8.34,1.566.016,3.135.014,4.7.013a124.412,124.412,0,0,1,15.367.617c18.16.311,36.32.311,54.46,1.21q1.32-3.225,2.48-6.511c3.98-11.65,7.969-23.32,12.859-34.64,2.621-5.63,4.971-11.66,9.471-16.1,9.5-8.91,23.16-12.219,35.889-10.62a17.856,17.856,0,0,1,7.331,7.28c-6.36,20.61-13.23,41.071-19.27,61.781,9.229,1.18,18.57.61,27.84,1.29,5.44.87,11.01.37,16.45,1.34,4.31.56,9.06.76,12.49,3.8a38.249,38.249,0,0,1,13.26,27.79c-.8,2.53-.81,5.55-3,7.39-3.85,4.22-9.87,4.68-15.2,5.05-8.68.07-17.35-.04-26.02-.08-13.721-.83-27.481-.409-41.22-.64-5.76,16.85-11.021,33.871-17.52,50.46-1.83,4.34-3.53,9.12-7.49,12.02-5.28,4.32-12.22,5.36-18.74,6.36a17.966,17.966,0,0,1-2.366.151A39.265,39.265,0,0,1,858.574,339.85Zm-475.08-46.39a69.646,69.646,0,0,1-2.62-137.61c14.03-2.181,28.82-.42,41.55,6.06A69.505,69.505,0,0,1,426.194,285a68.716,68.716,0,0,1-33.86,9.074A63.421,63.421,0,0,1,383.494,293.46Zm1.33-127.63a59.093,59.093,0,0,0-46.1,82.83,60.022,60.022,0,0,0,34.49,31.81c14.43,5.26,30.78,3.84,44.56-2.7,22.25-10.4,36.32-35.82,33.03-60.2a58.841,58.841,0,0,0-58.563-52.215A57.706,57.706,0,0,0,384.824,165.83Z"/></svg>