<svg xmlns="http://www.w3.org/2000/svg" width="243.336" height="84.501" viewBox="0 0 243.336 84.501"><defs><style>.a{fill:#f3e4bd;}</style></defs><path class="a" d="M34-458.5c4.443,1.19,6.667,4.232,6.667,8.833v30.5H26V-451a1.051,1.051,0,0,0-1.167-1.167H22.667v33H8V-502.5H27.667c8.647,0,12.833,4.44,12.833,13.167V-468.5C40.5-463.184,38.364-459.848,34-458.5Zm-8.167-7V-489a1.051,1.051,0,0,0-1.167-1.167h-2v25.833h2A1.019,1.019,0,0,0,25.833-465.5Zm51.334,46.334h-14.5l-.833-12.667H55.667l-.833,12.667H42L50.167-502.5h19Zm-18.5-59.5-2.333,34.5H61ZM93-446.833v27.667H78.334V-502.5h19.5c8.727,0,13,4.44,13,13.167V-460c0,8.727-4.273,13.167-13,13.167Zm3.333-13.333v-29a1.019,1.019,0,0,0-1.167-1.167H93V-459h2.167A1.019,1.019,0,0,0,96.334-460.166Zm32.834-10.167,11.167,7.5c3.57,2.539,5.333,6.335,5.333,11.333v19.833c0,8.727-4.44,13.167-13.167,13.167h-6c-8.727,0-13.167-4.44-13.167-13.167v-20.667h14.5v20.667c0,.714.286,1,1,1H130c.714,0,1-.286,1-1v-18.5a2.357,2.357,0,0,0-1.167-2.167l-11-7.5c-3.649-2.618-5.5-6.415-5.5-11.333V-490c0-8.727,4.44-13,13.167-13h6c8.647,0,12.833,4.273,12.833,13v19.5H131.168V-490c0-.714-.373-1-1.167-1h-.833c-.714,0-1.167.286-1.167,1v17.333A2.544,2.544,0,0,0,129.167-470.333ZM180.835-490v58.334c0,8.727-4.273,13.167-13,13.167h-7.167c-8.647,0-12.833-4.44-12.833-13.167V-490c0-8.727,4.186-13,12.833-13h7.167C176.561-503,180.835-498.727,180.835-490ZM166-431.833v-57.834a1.088,1.088,0,0,0-1.167-1.167h-1.167a1.051,1.051,0,0,0-1.167,1.167v57.834c0,.714.373,1,1.167,1h1.167C165.548-430.833,166-431.119,166-431.833Zm17.167,12.667V-502.5h18c9.917,0,14.833,5,14.833,14.833V-434c0,9.837-4.917,14.833-14.833,14.833ZM198-490.333v59h1.667c1.031,0,1.5-.643,1.5-1.833v-55.5c0-1.111-.469-1.667-1.5-1.667Zm53.334,71.167h-14.5L236-431.833h-6.167L229-419.166H216.168l8.167-83.334h19Zm-18.5-59.5-2.167,34.5h4.5Z" transform="translate(-8 503)"/></svg>