<svg xmlns="http://www.w3.org/2000/svg" width="864.186" height="367.857" viewBox="0 0 864.186 367.857"><g transform="translate(-1220.283 -768.391)"><g transform="translate(1220.283 768.391)"><path d="M454.532,367.857c-.064,0-.129,0-.191-.006l-.657-.053c-.231-.014-.482-.037-.746-.07a6.694,6.694,0,0,1-1.106-.27,5.413,5.413,0,0,1-1.279-.658,5.243,5.243,0,0,1-1.183-1.156,5.867,5.867,0,0,1-.5-.8,5.082,5.082,0,0,1-.334-.871,5.135,5.135,0,0,1-.18-.924,5.709,5.709,0,0,1-.007-.932c.071-.779.174-1.576.322-2.381.141-.783.322-1.6.54-2.424s.476-1.654.771-2.5c.129-.373.271-.76.412-1.146a4.476,4.476,0,0,1-.669.047,5.275,5.275,0,0,1-.65-.041,5.451,5.451,0,0,1-.648-.121,6.165,6.165,0,0,1-.638-.205,4.489,4.489,0,0,1-.6-.291c-.282-.152-.572-.32-.842-.492s-.56-.369-.823-.555-.527-.387-.785-.6c-.275-.219-.521-.426-.759-.645-.276-.25-.54-.508-.785-.766l-.842.818-.978.965c-.129.123-.264.244-.4.354s-.264.191-.4.287a3.738,3.738,0,0,1-.462.268,4.031,4.031,0,0,1-.456.211c-.155.057-.315.115-.478.162a4.406,4.406,0,0,1-.469.113c-.174.033-.342.059-.515.078-.147.014-.321.02-.494.02a6.007,6.007,0,0,1-.67-.039,5.67,5.67,0,0,1-.669-.135,5.054,5.054,0,0,1-.643-.213,5.343,5.343,0,0,1-.6-.289c-.426-.244-.837-.508-1.235-.783a14.177,14.177,0,0,1-1.15-.9c-.373-.322-.734-.662-1.068-1.01s-.662-.732-.966-1.119a14.235,14.235,0,0,1-.855-1.176c-.244-.381-.481-.773-.7-1.172-.533.561-1.067,1.133-1.588,1.684-.683.723-1.4,1.482-2.123,2.266-.676.721-1.383,1.486-2.109,2.277a5.365,5.365,0,0,1-.405.391,4.517,4.517,0,0,1-.425.336,5.448,5.448,0,0,1-.476.295,3.951,3.951,0,0,1-.482.238,5.043,5.043,0,0,1-.509.188,4.005,4.005,0,0,1-.526.135,3.635,3.635,0,0,1-.515.076,4.63,4.63,0,0,1-.535.033,4.847,4.847,0,0,1-.829-.072,5.076,5.076,0,0,1-.784-.186,4.375,4.375,0,0,1-.766-.316,4.6,4.6,0,0,1-.683-.416l-2.006-1.4-3.865-2.7c-.431.541-.829,1.029-1.216,1.506-.508.623-.971,1.2-1.421,1.736-.521.631-.978,1.17-1.4,1.664-.482.568-.946,1.1-1.4,1.629a5.449,5.449,0,0,1-.836.766,5.782,5.782,0,0,1-.951.559c-.175.078-.354.143-.528.207s-.359.1-.533.143a5.254,5.254,0,0,1-1.126.119c-.122,0-.244,0-.373-.014a3.4,3.4,0,0,1-.431-.049,3.219,3.219,0,0,1-.373-.07c-.129-.033-.238-.059-.341-.092-.18-.051-.753-.205-1.64-.449l-3.987-1.1-4.831-1.332-2.875-.791q-.606.791-1.215,1.6c-.811,1.066-1.563,2.064-2.29,3.041-.746,1-1.506,2.027-2.264,3.064-.74,1-1.493,2.031-2.239,3.061a5.146,5.146,0,0,1-.861.932,5.286,5.286,0,0,1-1.042.693,5,5,0,0,1-1.157.426,5.174,5.174,0,0,1-1.261.152h-.187a.7.7,0,0,0-.084,0h-.038c-.29-.006-1.319-.02-6.143-.115l-13.41-.24-13.384-.248c-4.374-.086-5.743-.105-6.091-.119h-.045a7.158,7.158,0,0,1-.927-.057,6.552,6.552,0,0,1-.895-.187,6.009,6.009,0,0,1-.849-.295,5.828,5.828,0,0,1-.811-.418l-.758-.449-1.068-.645-.566-.334c-.494-.283-2.34-1.4-2.546-1.531-1.011-.611-3.03-1.846-5.229-3.2-2.213-1.375-4.032-2.527-5.4-3.428a20.559,20.559,0,0,1-3.435-2.49l-.174-.172c-.251-.258-.56-.572-.855-.9a16.61,16.61,0,0,1-1.189-1.482,14.276,14.276,0,0,1-1.171-1.992,19.68,19.68,0,0,1-1.035-2.592,22.956,22.956,0,0,1-.688-2.639,16.879,16.879,0,0,1-.289-2.152c-.052-.684-.052-1.262-.052-1.691l.014-.555v-.045c0-.2,0-.385,0-.572a6.664,6.664,0,0,1,.064-.99,7.163,7.163,0,0,1,.22-.959,6.5,6.5,0,0,1,.347-.906,6.2,6.2,0,0,1,.476-.855,7.395,7.395,0,0,1,1.281-1.467,7.621,7.621,0,0,1,.771-.592,7.722,7.722,0,0,1,.855-.475,1.043,1.043,0,0,1,.155-.07l.714-.283a6.774,6.774,0,0,1,.637-.258c.244-.076.494-.148.745-.205a5.439,5.439,0,0,1,.753-.129,6.186,6.186,0,0,1,.777-.045,5.009,5.009,0,0,1,.528.025c.193.014.373.033.547.057.2.039.38.072.547.115.135.033.295.078.45.129s.385.109.669.188l1.7.482,2.843.816,1.788-26.279c.007-.07.014-.143.019-.213l2.393-35.1c-.115-.143-.229-.3-.334-.453-.115-.172-.23-.354-.333-.545a3.626,3.626,0,0,1-.213-.451c-.071-.152-.129-.314-.187-.477s-.091-.307-.136-.475a4.777,4.777,0,0,1-.1-.516c-.026-.152-.046-.32-.058-.482s-.014-.334-.014-.494.014-.334.025-.5.039-.314.064-.469c.032-.172.064-.334.11-.5a4.5,4.5,0,0,1,.141-.475c.051-.148.115-.311.18-.457s.142-.3.213-.437a4.321,4.321,0,0,1,.251-.424,4.153,4.153,0,0,1,.277-.406,4.849,4.849,0,0,1,.314-.4c.108-.123.219-.238.341-.361,1.338-1.33,2.727-2.7,4.123-4.059,1.357-1.324,2.746-2.668,4.142-4.006s2.8-2.654,4.155-3.936c1.414-1.324,2.811-2.625,4.142-3.854.153-.143.321-.281.488-.41s.354-.25.54-.369a6.04,6.04,0,0,1,.573-.314c.192-.1.393-.186.6-.264s.411-.139.611-.2c.173-.045.379-.1.6-.141a6.4,6.4,0,0,1,.636-.084,5.293,5.293,0,0,1,.638-.031c.2,0,.4.006.6.025a6.017,6.017,0,0,1,.6.084c.193.031.393.078.586.127a5.422,5.422,0,0,1,.56.186c.134.047.289.111.449.182s.3.148.444.225.271.162.4.252a4.893,4.893,0,0,1,.412.3,4.39,4.39,0,0,1,.367.307c.122.109.231.225.34.34s.231.258.335.387c.071.1.147.2.219.311.168.211.591.77,1.512,2l2.984,3.961,5.247,6.98,4.078,5.412,1.273,1.7,1.763,2.338.109.059c.16.084.309.176.444.258s.289.2.424.3a3.681,3.681,0,0,1,.373.307,4.876,4.876,0,0,1,.367.354c.643-.631,1.324-1.281,2.006-1.93.6-.566,1.229-1.15,1.937-1.8.215-.2.426-.4.628-.584-.22.2-.428.395-.628.584a.174.174,0,0,0-.046.037l-.024.02a63.962,63.962,0,0,1-1.029-6.922c-.226-2.41-.342-4.963-.342-7.6v-73.4h51.5v71.93c.031-.012.064-.021.1-.031.206-.064.379-.109.553-.146.135-.033.309-.064.482-.092.154-.023.321-.037.488-.057.2-.014.36-.02.528-.02s.315.006.456.02a3.706,3.706,0,0,1,.393.037c.148.014.3.039.438.066s.289.063.425.1c.328.082.682.193,1.021.309s.7.252,1.022.4.657.3.973.469.643.367.933.559.571.393.855.611.553.445.811.68.507.492.745.74c.146.16.288.318.424.48-.025-.033-.051-.062-.076-.094a2.745,2.745,0,0,0,.514-1.061,5.984,5.984,0,0,0,.162-1.5v-65.7a10.888,10.888,0,0,0-.251-2.391,8.2,8.2,0,0,0-.767-2.09,7.862,7.862,0,0,0-1.292-1.777,9.108,9.108,0,0,0-1.833-1.439L393.618,153.3a50.519,50.519,0,0,1-4.561-3.686,45.505,45.505,0,0,1-3.961-4.074,43.882,43.882,0,0,1-3.358-4.455,44.4,44.4,0,0,1-2.746-4.848,44.883,44.883,0,0,1-2.147-5.225,50.731,50.731,0,0,1-1.531-5.613,55.191,55.191,0,0,1-.919-5.99,63.633,63.633,0,0,1-.31-6.361V46.172c0-1.932.059-3.82.181-5.629s.309-3.574.56-5.254.553-3.326.92-4.889.8-3.08,1.286-4.521a41.965,41.965,0,0,1,1.659-4.156,36.1,36.1,0,0,1,2.02-3.781A33.177,33.177,0,0,1,383.1,14.52a32.783,32.783,0,0,1,5.859-5.756,36.971,36.971,0,0,1,3.473-2.328,39.411,39.411,0,0,1,3.841-1.975,43.828,43.828,0,0,1,4.193-1.607c1.453-.477,2.984-.895,4.56-1.248s3.223-.654,4.915-.893S413.4.293,415.21.178,418.914,0,420.844,0h21.309c1.91,0,3.787.063,5.575.178s3.537.295,5.2.535,3.287.539,4.831.893,3.048.771,4.47,1.248a42.162,42.162,0,0,1,4.1,1.607,38.143,38.143,0,0,1,3.736,1.975,34.441,34.441,0,0,1,3.371,2.328,32.631,32.631,0,0,1,3.016,2.7,33.4,33.4,0,0,1,2.656,3.061,34.5,34.5,0,0,1,2.29,3.422,36.977,36.977,0,0,1,1.942,3.781c.579,1.32,1.112,2.715,1.583,4.156s.88,2.959,1.229,4.521.643,3.2.874,4.889.405,3.447.527,5.254.174,3.691.174,5.629v69.25H437.418V46.172a3.326,3.326,0,0,0-1.016-2.727,3.144,3.144,0,0,0-1.293-.631,7.147,7.147,0,0,0-1.834-.2h-2.957c-2.754,0-4.149,1.2-4.149,3.559V107.73a11.085,11.085,0,0,0,1.017,4.881,7.943,7.943,0,0,0,3.133,3.4l39.657,26.641a46.338,46.338,0,0,1,4.451,3.59,42.736,42.736,0,0,1,3.858,4.006,42.233,42.233,0,0,1,3.255,4.418,43.071,43.071,0,0,1,2.656,4.83,46.394,46.394,0,0,1,2.07,5.242,51.93,51.93,0,0,1,1.474,5.646,59.592,59.592,0,0,1,.88,6.059c.193,2.072.3,4.244.3,6.453v70.438c0,.549-.007,1.088-.02,1.609-.036.008-.072.018-.108.027.355-.084.715-.166,1.066-.24.443-.082.895-.168,1.337-.244.464-.078.928-.141,1.377-.207s.894-.109,1.345-.152.906-.076,1.37-.109c.421-.025.872-.045,1.324-.064V46.172c0-1.937.058-3.83.175-5.629s.295-3.57.526-5.254.527-3.332.875-4.889.759-3.08,1.229-4.521A41.728,41.728,0,0,1,501,21.723a38.37,38.37,0,0,1,1.936-3.781,34.556,34.556,0,0,1,2.3-3.422,33.553,33.553,0,0,1,2.656-3.061,32.558,32.558,0,0,1,3.01-2.7,34.411,34.411,0,0,1,3.377-2.328,37.486,37.486,0,0,1,3.736-1.975,42.162,42.162,0,0,1,4.1-1.607c1.421-.477,2.92-.895,4.463-1.248s3.172-.654,4.838-.893,3.414-.42,5.2-.535S540.272,0,542.185,0h25.456c1.93,0,3.82.063,5.62.178s3.576.295,5.262.535,3.325.539,4.888.893,3.081.771,4.516,1.248a43.056,43.056,0,0,1,4.154,1.607,38.16,38.16,0,0,1,3.788,1.975,36.837,36.837,0,0,1,3.423,2.328,33.123,33.123,0,0,1,3.055,2.7,34.107,34.107,0,0,1,2.694,3.061,32.716,32.716,0,0,1,2.328,3.422,38.169,38.169,0,0,1,1.975,3.781,43.555,43.555,0,0,1,1.608,4.156c.476,1.441.894,2.959,1.255,4.521s.655,3.2.887,4.889.418,3.447.533,5.254.182,3.691.182,5.629V253.334c0,1.932-.058,3.828-.182,5.635s-.295,3.582-.533,5.273-.533,3.346-.887,4.914-.779,3.113-1.255,4.561a44.008,44.008,0,0,1-1.608,4.2,38.648,38.648,0,0,1-1.975,3.834,35.922,35.922,0,0,1-2.328,3.48,34.692,34.692,0,0,1-2.694,3.105,32.918,32.918,0,0,1-3.055,2.754,37.747,37.747,0,0,1-3.423,2.387,38.4,38.4,0,0,1-3.788,2.018,41.722,41.722,0,0,1-4.154,1.654c-1.441.486-2.959.926-4.516,1.285s-3.208.684-4.888.928-3.454.43-5.262.553-3.7.188-5.62.188H542.185c-.843,0-1.7-.014-2.527-.039l2.076,32.672,3.769-1.074,1.557-.445c.142-.043.3-.088.444-.127a4.9,4.9,0,0,1,.521-.1,4.765,4.765,0,0,1,.566-.07c.161-.012.348-.02.526-.02a5.882,5.882,0,0,1,.772.047,6.808,6.808,0,0,1,.76.119,7.139,7.139,0,0,1,.746.215,7.265,7.265,0,0,1,.72.287l1.434.684a6.21,6.21,0,0,1,.862.482,6.968,6.968,0,0,1,.772.584,7.169,7.169,0,0,1,.688.689,7.265,7.265,0,0,1,.591.777,8.368,8.368,0,0,1,.482.861,7.164,7.164,0,0,1,.347.92,6.49,6.49,0,0,1,.213.953,7.318,7.318,0,0,1,.071.99,24.443,24.443,0,0,1-.611,5.2,22.346,22.346,0,0,1-1.955,5.357,18.185,18.185,0,0,1-3.621,4.861,16.375,16.375,0,0,1-5.46,3.424c-.708.334-1.435.674-2.149,1.021-.752.359-1.543.738-2.347,1.131-.779.387-1.595.787-2.426,1.2-.849.418-1.69.836-2.508,1.254a5.6,5.6,0,0,1-.682.295,6.258,6.258,0,0,1-.714.227c-.251.057-.5.1-.746.143-.231.023-.464.043-.7.051l-1.523.082-4.078.221-12.412.674-6.406.348-5.8.316-4.22.225-.135.006-.052.008c-.835.045-1.222.063-1.4.068a.658.658,0,0,1-.122.014h-.071a.314.314,0,0,1-.07.006h-.021c-.019,0-.044,0-.051.008h-.147c-.168,0-.335-.014-.5-.027a3.684,3.684,0,0,1-.476-.062c-.155-.033-.315-.066-.477-.109s-.322-.105-.476-.162a4.638,4.638,0,0,1-.463-.205,4.5,4.5,0,0,1-.444-.25,3.511,3.511,0,0,1-.4-.277,4,4,0,0,1-.378-.314c-.322-.289-.638-.6-.939-.895-.361-.367-.715-.746-1.062-1.133-.393-.436-.765-.895-1.119-1.35a1.475,1.475,0,0,1-.109-.143l-3.814.6c-.129.02-.225.033-.282.047l-.239.039c-.045.006-.134.02-.231.023-.07.006-.16.014-.251.014s-.167.014-.249.014a4.919,4.919,0,0,1-.908-.084,5.1,5.1,0,0,1-.9-.238,4.471,4.471,0,0,1-.823-.379,5.471,5.471,0,0,1-.771-.535c-.213-.172-.418-.359-.637-.545-.225-.205-.432-.393-.618-.574-.206-.2-.4-.4-.591-.592s-.373-.393-.56-.6-.367-.42-.54-.617c-.084-.109-.174-.219-.258-.322l-3.312.979c-.1.023-.2.057-.283.082-.121.041-.243.07-.36.1a3.987,3.987,0,0,1-.4.078,3.616,3.616,0,0,1-.431.057c-.168.014-.3.014-.431.014s-.282,0-.425-.014c-.115-.01-.244-.025-.379-.043-.091-.014-.181-.033-.276-.053,0,.006-.008.02-.008.025a.024.024,0,0,1,0,.014v0c-.1.324-.193.65-.277.98-.076.309-.147.617-.212.912s-.122.6-.175.9-.1.6-.134.9-.071.6-.1.879a7.167,7.167,0,0,1-.225,1.225,6.982,6.982,0,0,1-.45,1.148,6.121,6.121,0,0,1-.649,1.041,7.156,7.156,0,0,1-.849.928,6.618,6.618,0,0,1-1,.74,6.885,6.885,0,0,1-2.29.881,7.393,7.393,0,0,1-1.241.109Zm-1.111-14.605c-.349.828-.657,1.645-.928,2.43s-.514,1.563-.713,2.309-.367,1.5-.5,2.213-.22,1.436-.284,2.129a2.712,2.712,0,0,0,.091.908,3.083,3.083,0,0,0,.167.424,2.572,2.572,0,0,0,.244.393,2.086,2.086,0,0,0,.283.328,2.583,2.583,0,0,0,.61.438,2.884,2.884,0,0,0,.315.129,2.84,2.84,0,0,0,.624.146c.193.033.373.045.533.059h.014l.655.053h10.194a4.35,4.35,0,0,0,.76-.072,3.8,3.8,0,0,0,.727-.205,4.245,4.245,0,0,0,.668-.33,4.025,4.025,0,0,0,.6-.449,4.17,4.17,0,0,0,.9-1.176,4.733,4.733,0,0,0,.27-.693,4.5,4.5,0,0,0,.136-.736c.025-.32.064-.654.108-.99s.1-.674.155-1,.122-.676.193-1.01.153-.67.237-1c.091-.373.193-.732.3-1.094s.225-.719.34-1.053q.183-.533.387-1.023c.135-.334.276-.67.419-.984.069.057.153.129.229.191s.143.123.239.2c.076.063.154.121.231.178s.16.117.237.176a1.908,1.908,0,0,0,.174.115,1.486,1.486,0,0,0,.187.1,1.193,1.193,0,0,0,.187.084c.071.025.136.053.2.078s.135.037.2.051a1.162,1.162,0,0,0,.2.039,1.97,1.97,0,0,0,.2.025,1.869,1.869,0,0,0,.206.008,2.124,2.124,0,0,0,.213-.008,2.059,2.059,0,0,0,.205-.025,1.671,1.671,0,0,0,.206-.047.946.946,0,0,0,.2-.057c.007,0,.117-.031.335-.1s.527-.152.965-.281c.142-.045.3-.09.47-.143.314-.088.707-.205,1.158-.34.72-.211,1.5-.445,2.321-.684l.031-.01.06-.02c.012,0,.019-.01.024-.01s.014,0,.014,0h.013a.022.022,0,0,0,.019-.006h.007c.007,0,.007-.008.013-.008h.007c.122.193.258.387.393.578s.276.381.425.568.289.373.442.559c.148.168.3.354.471.541s.334.367.5.533.341.34.521.521c.168.154.348.32.548.5s.378.334.564.49a2.853,2.853,0,0,0,.38.264,3.022,3.022,0,0,0,.418.191,2.793,2.793,0,0,0,.45.123,2.844,2.844,0,0,0,.458.039h.127c.046-.006.091-.006.129-.014s.084-.006.129-.012a.81.81,0,0,0,.129-.027c.013,0,.135-.02.34-.051l.053-.006.187-.025c.031-.008.064-.014.1-.02s.077-.014.115-.02h.007c.3-.045.682-.1,1.08-.166.155-.027.309-.047.464-.072.122-.02.251-.037.38-.057.244-.039.488-.076.727-.119l.237-.037.091-.012c.372-.057.733-.117,1.009-.162l.059,0,.4-.066.026-.006.153-.02a.126.126,0,0,1,.046-.006c.064-.014.116-.021.154-.027a.657.657,0,0,0,.1-.018h.038c.3.463.638.926.991,1.381.315.412.655.826,1,1.219.311.344.638.693.966,1.021.271.27.554.547.849.809.064.059.129.115.193.168s.136.09.206.143a1.967,1.967,0,0,0,.219.115c.077.039.153.076.23.109s.155.053.238.078.161.037.239.057.16.02.237.033.167.006.251.006h.141a.263.263,0,0,0,.071-.006c.026,0,.046-.008.07-.008s.688-.039,1.646-.082c.322-.02.683-.039,1.08-.066l.265-.012c.8-.037,1.8-.1,2.874-.156.638-.029,1.313-.068,2.027-.107l.379-.018.129-.01q1.582-.085,3.267-.178l.882-.047.327-.02c1.711-.09,3.474-.186,5.2-.281,1.216-.066,2.4-.129,3.389-.182l1.242-.07c.682-.031,1.351-.068,2.014-.107.951-.053,1.858-.1,2.61-.143,1.216-.066,2.22-.115,3.152-.168,1.317-.07,2.457-.135,3.37-.186l.418-.02.289-.02c.952-.053,1.55-.084,1.563-.084.153-.006.309-.012.462-.031s.3-.053.444-.084a4.5,4.5,0,0,0,.431-.135,3.77,3.77,0,0,0,.413-.182c.822-.41,1.671-.842,2.52-1.268.837-.41,1.654-.816,2.445-1.2s1.6-.779,2.359-1.146,1.524-.727,2.271-1.076a13.433,13.433,0,0,0,1.325-.57c.418-.205.823-.437,1.216-.682a12.818,12.818,0,0,0,1.119-.785c.341-.271.688-.559,1.01-.869a15.689,15.689,0,0,0,3.094-4.154,18.511,18.511,0,0,0,1.016-2.334,20.366,20.366,0,0,0,.7-2.395,22.231,22.231,0,0,0,.405-2.365,20.747,20.747,0,0,0,.135-2.264,4.473,4.473,0,0,0-.038-.586,4.23,4.23,0,0,0-.129-.58,4.969,4.969,0,0,0-.212-.559,4.736,4.736,0,0,0-.3-.527,3.915,3.915,0,0,0-.373-.486,4.522,4.522,0,0,0-.432-.434,3.383,3.383,0,0,0-.488-.365,3.251,3.251,0,0,0-.533-.3l-1.429-.684c-.148-.066-.3-.129-.457-.182a4.491,4.491,0,0,0-.463-.129c-.153-.029-.314-.062-.476-.082s-.309-.027-.477-.027c-.114,0-.225.008-.327.014s-.218.027-.328.039-.219.047-.322.07a1.95,1.95,0,0,0-.315.092.41.41,0,0,0-.043,0c-.053.02-.148.047-.311.092l-1.24.354-2.483.713c-.54.156-1.132.324-1.819.521-.586.166-1.37.391-2.271.648l-.354.105h0l-2.368-37.227a3.494,3.494,0,0,1,0-.516,4.457,4.457,0,0,1,.052-.5c.032-.158.07-.32.115-.482a4.929,4.929,0,0,1,.167-.475c.007,0,.02-.014.053-.033.083-.057.334-.225.675-.463s.74-.508,1.2-.822l.36-.254c.533-.363,1.068-.73,1.525-1.053l.045-.027c.378-.264.732-.508.758-.525a2.579,2.579,0,0,0,.457-.336,2.742,2.742,0,0,0,.392-.391,2.61,2.61,0,0,0,.322-.445,3.451,3.451,0,0,0,.251-.494c.051-.137.1-.271.135-.41s.064-.285.084-.426.025-.291.025-.439a3.367,3.367,0,0,0-.025-.436c-.02-.148-.046-.295-.077-.43s-.084-.285-.135-.426-.116-.277-.181-.42a4.325,4.325,0,0,0-.231-.391l-1.2-1.781a4.851,4.851,0,0,0-.32-.418A4.634,4.634,0,0,0,541,286.2a3.51,3.51,0,0,0-.425-.326,4.225,4.225,0,0,0-.457-.277c-.155-.078-.315-.148-.482-.215a4.021,4.021,0,0,0-.5-.152c-.167-.039-.342-.072-.515-.1a5.132,5.132,0,0,0-.515-.023c-.077,0-.154,0-.23.006a1.428,1.428,0,0,0-.232.018,1.836,1.836,0,0,0-.226.033,1.785,1.785,0,0,0-.219.045,2.047,2.047,0,0,0-.231.057,1.6,1.6,0,0,0-.218.066,2.272,2.272,0,0,0-.213.082c-.071.033-.141.066-.212.1-.032.014-.115.053-.244.105-.155.057-.315.109-.476.152a4.794,4.794,0,0,1-.612.135,3.445,3.445,0,0,1-.662.066h-.058a.549.549,0,0,1-.129-.01.921.921,0,0,1-.136-.01c-.044-.014-.089-.02-.127-.033a.6.6,0,0,1-.129-.039c-.477-.191-.966-.416-1.468-.662-.476-.236-.971-.494-1.473-.777-.92-.516-1.878-1.107-2.939-1.807-.868-.582-1.826-1.248-2.912-2.041-1-.727-2.046-1.506-2.882-2.121l-.129-.1-.064-.047c-.341-.258-.694-.521-1.055-.785s-.822-.617-1.306-.965-.92-.66-1.331-.957c-.482-.344-.92-.65-1.344-.932-.116-.086-.245-.168-.374-.254s-.264-.166-.393-.238-.263-.148-.392-.217-.271-.137-.412-.2c-.115-.059-.244-.109-.411-.182-.136-.049-.27-.109-.425-.158s-.3-.105-.431-.148-.3-.09-.437-.123a4.446,4.446,0,0,0-.509-.141,4.2,4.2,0,0,0-.514-.1c-.175-.025-.348-.053-.528-.064s-.354-.027-.52-.027a5.935,5.935,0,0,0-.851.066,5.226,5.226,0,0,0-1.62.521,7.348,7.348,0,0,0-.8.461c-.418.314-.849.678-1.28,1.055-.379.34-.766.709-1.17,1.119-.342.344-.7.721-1.08,1.146-.354.379-.7.771-1,1.111l-.444.5a3.137,3.137,0,0,0-.167-.412,3.962,3.962,0,0,0-.226-.387,3.657,3.657,0,0,0-.263-.359c-.1-.115-.2-.225-.309-.334s-.227-.205-.342-.3-.251-.18-.38-.258-.27-.152-.4-.219-.289-.121-.431-.172c-.231-.082-.47-.168-.694-.264s-.45-.187-.682-.291-.444-.211-.669-.326-.437-.238-.65-.367-.444-.27-.65-.412-.418-.291-.609-.436-.387-.311-.566-.463-.354-.324-.521-.482c0,0,.02-.039.077-.129s.136-.207.213-.336c.1-.166.212-.34.321-.506.128-.215.276-.445.405-.645l.193-.3c.231-.381.507-.816.816-1.312l.135-.213c.167-.268.342-.545.521-.83.218-.346.449-.713.669-1.066l.212-.334c.244-.393.534-.848.8-1.281.431-.68.888-1.406,1.389-2.211.348-.559.586-.932.593-.951a2.759,2.759,0,0,0,.275-.477,2.8,2.8,0,0,0,.193-.5,2.983,2.983,0,0,0,.11-.527,2.643,2.643,0,0,0,.019-.549l-.038-.957c-.007-.115-.02-.238-.038-.354a2.387,2.387,0,0,0-.071-.354,2.179,2.179,0,0,0-.11-.348,2.946,2.946,0,0,0-.141-.334c-.051-.1-.115-.213-.18-.316s-.129-.2-.2-.3-.147-.178-.237-.273a2.863,2.863,0,0,0-.258-.252,3.048,3.048,0,0,0-.282-.238c-.1-.068-.2-.141-.309-.211s-.2-.115-.322-.182c-.11-.049-.226-.1-.34-.154s-.239-.082-.368-.123a3.807,3.807,0,0,0-.38-.088,1.927,1.927,0,0,0-.378-.057,3.678,3.678,0,0,0-.394-.027l-.54-.006c-.437,0-.881.006-1.306.023-.45.016-.88.033-1.3.059s-.862.066-1.28.1-.849.092-1.267.148-.842.115-1.274.188c-.417.07-.835.146-1.24.225s-.811.172-1.21.277c-.385.09-.777.191-1.169.307s-.8.238-1.171.367-.753.264-1.126.406c-.347.135-.708.281-1.068.449-.347.148-.688.314-1.009.482-.342.174-.677.359-1,.547s-.638.387-.933.592-.592.41-.862.623a10.257,10.257,0,0,0-.791.668l-.347-11.422c.019-.033.263-.707.526-1.434.329-.889.727-1.994,1.106-3.021l.1-.268.012-.049c.366-1,.715-1.955.984-2.709.3-.828.508-1.383.515-1.42a3.222,3.222,0,0,0,.122-.33,3.31,3.31,0,0,0,.083-.34,3.194,3.194,0,0,0,.046-.348,3.4,3.4,0,0,0,.007-.346l-.06-1.859a2.965,2.965,0,0,0-.045-.439,3.231,3.231,0,0,0-.1-.422,3.316,3.316,0,0,0-.153-.42c-.064-.135-.136-.264-.213-.393s-.167-.248-.264-.371-.205-.23-.315-.336a2.614,2.614,0,0,0-.354-.3,2.513,2.513,0,0,0-.387-.258,3.462,3.462,0,0,0-.5-.25,4.176,4.176,0,0,0-1.075-.291,4.4,4.4,0,0,0-.56-.037,3.612,3.612,0,0,0-.392.018,3.311,3.311,0,0,0-.386.053,3.525,3.525,0,0,0-.38.09,3.715,3.715,0,0,0-.36.121c-1.339.535-2.7,1.08-4.059,1.641-1.324.539-2.694,1.113-4.071,1.7-1.415.6-2.791,1.184-4.084,1.75-1.344.592-2.714,1.2-4.071,1.807-.142.066-.277.137-.411.213a4.59,4.59,0,0,0-.386.264c-.116.1-.231.2-.341.3a3.5,3.5,0,0,0-.3.348,3.151,3.151,0,0,0-.244.367,3.3,3.3,0,0,0-.2.4c-.051.135-.1.277-.134.41a3.648,3.648,0,0,0-.084.432c0,.014-.225,1.262-.566,3.191-.109.6-.225,1.273-.354,1.986l-.153.863c-.227,1.291-.489,2.75-.74,4.184-.412,2.324-.875,4.934-1.268,7.16-.373,2.109-.591,3.344-.6,3.43-.077-.033-.16-.072-.271-.125-.058-.023-.122-.057-.186-.082a.364.364,0,0,0-.039-.02.268.268,0,0,1-.052-.027c-.077-.029-.153-.068-.237-.105l-.02-.014-.025-.014-.039-.014c-.083-.045-.174-.084-.263-.121l-.007-.006a.364.364,0,0,0-.039-.02c-.007,0-.007,0-.014-.008h-.012c-.013-.006-.026-.02-.039-.02v-.006c-.007,0-.012-.008-.019-.008s-.02-.006-.033-.012V265.1h-.006c-.007-.006-.019-.006-.025-.01a.047.047,0,0,0-.033-.014c-.013-.006-.02-.014-.031-.02l-.026-.006-.006-.008c-.618-.289-1.254-.59-1.923-.887-.785-.348-1.473-.625-2.116-.85q-.57-.193-1.1-.348c-.387-.107-.76-.2-1.12-.275-.386-.078-.765-.143-1.131-.18a9.3,9.3,0,0,0-1.126-.066H445.6c-.225,0-.444.014-.657.027s-.437.043-.655.076-.437.082-.643.135-.431.115-.638.182c-.063.023-.142.051-.218.082s-.148.066-.22.1-.142.068-.206.107-.134.08-.2.119c-.264.166-.669.422-1.126.717-.431.277-.882.574-1.331.869-.515.342-1,.67-1.485.99-.566.393-1.087.754-1.589,1.113v-.133c0-.148-.007-.3-.007-.465v-.109c0-.168-.006-.32-.006-.477-.007-.316-.014-.57-.014-.791v-.123c0-.158-.007-.295-.007-.393,0-.119,0-.191,0-.205,0-.287-.014-.578-.033-.865s-.064-.574-.108-.852-.109-.559-.181-.842-.161-.553-.251-.824-.2-.52-.315-.777a8.3,8.3,0,0,0-.373-.746c-.128-.244-.275-.482-.431-.721s-.321-.463-.5-.684-.354-.43-.547-.635a7.457,7.457,0,0,0-.6-.594c-.2-.186-.419-.363-.637-.539s-.463-.34-.688-.488-.482-.3-.74-.445-.514-.262-.777-.377-.534-.221-.811-.316-.566-.18-.836-.25c-.077-.021-.16-.041-.258-.059l-.264-.039c-.09-.012-.174-.02-.258-.025s-.16,0-.263,0-.206,0-.315,0-.213.02-.315.039l-.309.057c-.1.02-.193.047-.3.078a3.191,3.191,0,0,0-.3.109,2.582,2.582,0,0,0-.282.129,4.442,4.442,0,0,0-.541.314c-.116.084-.231.174-.341.264a3.194,3.194,0,0,0-.309.311c-.1.1-.187.217-.271.326s-.154.238-.225.367a4.146,4.146,0,0,0-.174.379,3.035,3.035,0,0,0-.129.4,2.145,2.145,0,0,0-.077.406,3.027,3.027,0,0,0-.031.416l-.007.951a1.066,1.066,0,0,0,.007.154c0,.053,0,.1,0,.156s.014.1.02.148a1.177,1.177,0,0,0,.026.152c0,.02.052.432.129,1,.051.387.115.863.18,1.365l.032.211c.013.135.032.271.051.406l.02.135c.084.631.181,1.344.284,2.123.076.578.134.984.134,1v.023c-.167-.082-.347-.178-.521-.281s-.348-.213-.521-.336-.347-.244-.507-.373-.322-.262-.483-.41c-.09-.082-.187-.162-.282-.238s-.2-.141-.3-.207-.218-.121-.328-.178-.231-.1-.347-.148a2.515,2.515,0,0,0-.36-.117,2.452,2.452,0,0,0-.367-.082,3.5,3.5,0,0,0-.373-.053,3.6,3.6,0,0,0-.379-.02h-.071c-.142,0-.264.014-.392.025a3.386,3.386,0,0,0-.38.061,3.088,3.088,0,0,0-.38.1,3.411,3.411,0,0,0-.366.129,3.09,3.09,0,0,0-.347.158,2.529,2.529,0,0,0-.328.2,2.58,2.58,0,0,0-.31.217c-.1.08-.192.162-.29.252-.134.129-.263.258-.4.393l-.038.037c-.1.1-.213.207-.329.322-.244.232-.521.5-.811.783s-.56.541-.842.818l-.213.205c-.225.219-.449.439-.662.645-.116-.09-.231-.182-.341-.271s-.226-.187-.335-.27l-.084-.07c-.211-.168-.4-.33-.6-.482-.127-.109-.263-.211-.4-.322l-.064-.051c-.091-.078-.187-.154-.282-.23-.122-.1-.251-.2-.387-.311-.167-.135-.315-.258-.476-.387-.084-.062-.175-.129-.277-.2s-.191-.123-.295-.176-.2-.1-.31-.152-.211-.082-.321-.121-.205-.066-.327-.1-.22-.049-.329-.062-.225-.033-.34-.047-.226-.01-.342-.01a4.738,4.738,0,0,0-.746.063,4,4,0,0,0-.72.2,3.638,3.638,0,0,0-.669.316,4.273,4.273,0,0,0-.6.43,1.339,1.339,0,0,1-.11.1l-.007.01-.019.018c-.02.012-.039.031-.058.045l-.007.006-.013.014-.058.057-.033.027c-.038.031-.076.064-.107.088a.537.537,0,0,1-.053.053l-.007.006c-.024.018-.058.047-.084.07l-.045.039-.044.037c-.014.016-.032.033-.045.047a.691.691,0,0,0-.084.072c-.045.039-.09.082-.141.121s-.091.084-.136.123-.084.07-.122.1l-.026.02-.02-.025a3.724,3.724,0,0,0-.578-.572,3.362,3.362,0,0,0-.688-.437,4.118,4.118,0,0,0-1.608-.424h-.122c-.02,0-.038-.006-.058-.006h-.051a3.7,3.7,0,0,0-.394.02c-.127.01-.263.029-.392.049s-.251.057-.379.09-.251.086-.374.129-.244.105-.359.162a3.21,3.21,0,0,0-.342.191c-.1.066-.212.143-.315.221s-.205.166-.294.248a12.376,12.376,0,0,1-.939.818,11.856,11.856,0,0,1-.966.713c-.327.219-.662.42-1,.605a10.773,10.773,0,0,1-1.023.5c-.34.148-.688.277-1.042.393s-.7.205-1.062.283-.713.129-1.073.166a9.912,9.912,0,0,1-1.08.059,10.718,10.718,0,0,1-1.563-.115,11.054,11.054,0,0,1-1.55-.35,11.888,11.888,0,0,1-1.544-.57,14.559,14.559,0,0,1-1.518-.791,3.208,3.208,0,0,0-.489-.25,3.988,3.988,0,0,0-.515-.182c-.174-.043-.354-.082-.54-.109a3.97,3.97,0,0,0-.553-.039,3.663,3.663,0,0,0-.387.02c-.122.014-.251.033-.38.053s-.25.053-.372.082-.251.08-.366.123-.239.1-.366.154-.238.129-.342.186c-.109.072-.218.143-.322.221s-.205.166-.295.248c-.662.607-1.209,1.109-1.73,1.578-.694.648-1.318,1.229-1.9,1.787-.693.65-1.375,1.3-2.025,1.941-.721.7-1.414,1.4-2.071,2.064-.013-.018-.058-.076-.122-.166l-.013-.012-.032-.047a.467.467,0,0,1-.051-.07c-.1-.129-.206-.275-.342-.455l-.084-.109c-.179-.244-.313-.432-.423-.566-.122-.166-.2-.271-.22-.291a1.852,1.852,0,0,0-.167-.229c-.058-.072-.122-.143-.192-.227s-.143-.137-.213-.207-.154-.127-.231-.187-.154-.115-.244-.172-.167-.1-.258-.154-.18-.09-.276-.129-.192-.076-.283-.109a.048.048,0,0,1-.012-.02c-.007-.006-.014-.02-.02-.023-.033-.047-.064-.086-.1-.129s-.083-.111-.134-.182l-.026-.033c-.064-.082-.136-.178-.225-.3l-.014-.023-.064-.078c-.077-.109-.173-.232-.275-.367-.046-.057-.084-.115-.136-.178l-.013-.027-.026-.033c-.051-.062-.1-.135-.154-.205s-.108-.135-.161-.211l-.058-.078-.019-.018c-.046-.072-.1-.135-.148-.207-.129-.166-.27-.354-.444-.586l-.153-.205-1.28-1.7c-.675-.9-1.473-1.955-2.31-3.074l-.1-.129-.109-.139c-.508-.67-1.028-1.371-1.557-2.078-.758-1-1.544-2.047-2.213-2.941l-.02-.018-2.314-3.074-.676-.908-.064-.076c-1.164-1.551-2.166-2.883-2.945-3.916-1.009-1.34-1.53-2.033-1.551-2.047-.051-.082-.1-.152-.153-.225a2.6,2.6,0,0,0-.18-.205c-.064-.072-.129-.135-.193-.2s-.148-.129-.213-.172a2.236,2.236,0,0,0-.231-.168,2.371,2.371,0,0,0-.244-.148,2.308,2.308,0,0,0-.258-.133c-.1-.039-.187-.078-.27-.111a2.96,2.96,0,0,0-.341-.109c-.116-.033-.231-.057-.354-.084s-.238-.031-.36-.045a3.286,3.286,0,0,0-.366-.02,3.669,3.669,0,0,0-.393.02c-.129.014-.265.033-.394.059a3.206,3.206,0,0,0-.378.09c-.123.033-.245.072-.38.123s-.244.1-.367.16a2.9,2.9,0,0,0-.347.193,3.076,3.076,0,0,0-.328.217c-.1.086-.206.168-.3.258-1.325,1.215-2.707,2.51-4.122,3.834-1.357,1.273-2.746,2.592-4.136,3.916s-2.779,2.676-4.123,3.988c-1.383,1.352-2.765,2.709-4.11,4.047-.069.068-.141.148-.205.217s-.128.156-.187.238-.115.162-.168.238-.1.168-.147.258-.084.168-.122.258a1.826,1.826,0,0,0-.1.264,2.089,2.089,0,0,0-.083.27c-.025.09-.046.186-.064.275s-.025.182-.032.277a2.157,2.157,0,0,0-.019.277c0,.082.007.178.012.27s.014.186.026.275.031.188.058.277a1.552,1.552,0,0,0,.078.27,1.876,1.876,0,0,0,.1.266c.039.082.077.168.122.25.058.1.122.205.187.3s.142.2.213.285.167.18.251.256a2.452,2.452,0,0,0,.275.238l.021.02c0,.008.006.008.006.014a.115.115,0,0,0,.025.02c.007,0,.007,0,.007.014a.031.031,0,0,1,.013,0l.007.006a.074.074,0,0,0,.02.02c.012.014.025.02.031.033h.007l-2.5,36.525h-.007l-2.006,29.58a.285.285,0,0,0-.1-.047c-.059-.02-.141-.043-.245-.076s-.237-.072-.373-.109-.3-.092-.476-.135l-.6-.174c-.276-.076-.56-.16-.868-.252l-.1-.023c-.348-.105-.715-.207-1.088-.316l-.18-.053-.411-.115c-.54-.152-1.062-.309-1.551-.443-.727-.205-1.408-.406-1.69-.488-.489-.135-.708-.2-.722-.2-.108-.039-.212-.064-.315-.092s-.205-.043-.32-.062a2.553,2.553,0,0,0-.328-.039,2.754,2.754,0,0,0-.329-.014,3.615,3.615,0,0,0-.476.027c-.16.02-.32.045-.476.078s-.315.082-.469.133a4.223,4.223,0,0,0-.444.182l-.772.307a5,5,0,0,0-.54.3,4.654,4.654,0,0,0-.488.367,3.819,3.819,0,0,0-.432.439,4.611,4.611,0,0,0-.373.479,5.941,5.941,0,0,0-.295.535,4.558,4.558,0,0,0-.212.555,4.8,4.8,0,0,0-.129.578,4.345,4.345,0,0,0-.039.584c0,.219,0,.443-.007.684v.014c-.007.166-.007.34-.007.512,0,.381,0,.889.04,1.473a14.245,14.245,0,0,0,.251,1.84c.07.354.153.727.244,1.1.109.4.231.816.366,1.232s.283.832.431,1.211c.147.357.3.707.463,1.035.148.3.309.6.471.881.153.258.32.508.488.752.154.227.315.438.489.648.153.2.313.383.5.574.263.3.526.559.777.816l.007.006c.058.059.115.123.174.182a25.922,25.922,0,0,0,2.99,2.121c1.357.889,3.158,2.027,5.352,3.391s4.2,2.586,5.2,3.189c1.479.9,2.412,1.453,2.51,1.51.205.125.4.24.591.35.084.051.167.1.251.152l.026.014.007.006c.1.066.212.123.314.188.154.09.309.186.463.275l.007.01.045.023.1.059c.053.033.1.057.142.084.174.1.329.2.482.289a3.774,3.774,0,0,0,.482.252,4.838,4.838,0,0,0,.515.178,3.954,3.954,0,0,0,1.094.143h.077c.026.006,2.206.045,6.129.121l.6.014h.16l12.62.232c4.5.082,9.39.174,13.41.244,3.595.064,6.136.115,6.2.115h.2a2.637,2.637,0,0,0,.631-.07,2.739,2.739,0,0,0,.591-.221,2.859,2.859,0,0,0,.521-.344,2.92,2.92,0,0,0,.432-.473c.752-1.033,1.5-2.07,2.251-3.08.759-1.035,1.524-2.064,2.277-3.074.733-.979,1.479-1.979,2.3-3.055.785-1.035,1.557-2.059,2.308-3.035a.023.023,0,0,1,.014.006.034.034,0,0,1,.026.008h.006a.025.025,0,0,0,.014.006.425.425,0,0,1,.069.02.1.1,0,0,1,.046.014h.007c.012,0,.031,0,.051.01h.007l.147.047c1.146.316,2.644.727,4.22,1.158.6.166,1.229.34,1.833.506l.527.148.173.047c.766.211,1.557.432,2.3.629l.791.219.135.039c1.2.334,2.239.617,3.055.842,1.022.285,1.666.457,1.68.463.064.02.128.033.192.053s.129.023.193.037.129.014.193.02a1.724,1.724,0,0,0,.2.008,2.6,2.6,0,0,0,.56-.061,2.582,2.582,0,0,0,1.011-.455,3.291,3.291,0,0,0,.411-.373c.45-.52.9-1.041,1.377-1.6.418-.488.867-1.027,1.369-1.639.438-.527.9-1.1,1.408-1.717.464-.574.946-1.172,1.479-1.84.1-.115.193-.244.309-.393s.213-.283.3-.406.192-.264.3-.412c.091-.129.193-.268.3-.424.012.008.494.348,1.26.875.309.219.669.471,1.049.74l.231.152c.431.3.939.664,1.454,1.018.72.5,1.434,1,1.909,1.338l.175.115c.231.168.449.316.655.465.514.354.907.631,1.119.777l.052.039a.589.589,0,0,0,.1.059,2.374,2.374,0,0,0,.342.219c.122.057.244.107.373.154a3.144,3.144,0,0,0,.392.09,2.391,2.391,0,0,0,.411.029c.1,0,.187-.006.271-.01s.174-.02.258-.039a2.55,2.55,0,0,0,.258-.066c.082-.023.166-.057.25-.09s.167-.082.245-.121a2.7,2.7,0,0,0,.231-.148c.07-.051.142-.109.211-.166s.129-.123.193-.187c.728-.791,1.441-1.562,2.123-2.295.733-.779,1.446-1.543,2.129-2.27s1.408-1.486,2.135-2.246,1.441-1.506,2.123-2.213c.013-.012.026-.031.045-.051a.1.1,0,0,1,.013-.014l.007-.006c.007-.014.02-.018.026-.031a.416.416,0,0,0,.043-.053.527.527,0,0,1,.04-.053l.013.039.147.426.026.084c.024.082.058.168.084.244s.038.129.058.178a.775.775,0,0,0,.031.086c0,.014.007.023.007.037s.007.014.013.02v.014a.017.017,0,0,1,.007.012c.136.406.289.807.449,1.184s.349.76.547,1.125.406.721.631,1.063.464.676.713,1,.528.631.811.926.573.57.875.836.624.508.946.732a11.088,11.088,0,0,0,1.016.643,2.239,2.239,0,0,0,.3.148,1.934,1.934,0,0,0,.313.1,1.629,1.629,0,0,0,.329.063,2.848,2.848,0,0,0,.335.027c.089,0,.173-.008.249-.014a1.646,1.646,0,0,0,.245-.037c.09-.02.168-.039.244-.059s.161-.053.232-.076a2.558,2.558,0,0,0,.231-.109,2.333,2.333,0,0,0,.218-.123c.064-.045.136-.1.2-.148a1.446,1.446,0,0,0,.192-.174c.354-.348.676-.66.984-.957.327-.322.655-.645.971-.951l.02-.014.109-.109c.071-.066.142-.135.213-.205l.662-.645c.366-.346.688-.656.989-.953.148.24.311.482.483.727s.348.471.547.7.392.455.6.674.431.439.662.65c.2.172.411.359.637.541s.444.348.669.506.456.316.7.465.469.289.707.424c.091.045.193.092.3.135s.2.072.309.1a2.886,2.886,0,0,0,.322.059,1.884,1.884,0,0,0,.328.02,2.712,2.712,0,0,0,.456-.039,2.783,2.783,0,0,0,.438-.109,3.576,3.576,0,0,0,.406-.191,2.419,2.419,0,0,0,.365-.258c.142-.115.284-.238.419-.354l.038-.033c.038-.033.077-.064.116-.1l.032-.025.064-.061c.09-.068.18-.154.27-.23a1.526,1.526,0,0,0,.18-.148l.038-.033.026-.023c.084-.072.174-.143.265-.221l.218-.178.039-.033c.083-.07.181-.146.27-.225Zm86.151-54.627a1.9,1.9,0,0,0,.007.2A1.9,1.9,0,0,1,539.572,298.625Zm3.055-2.1-2.032,1.4,2.039-1.395c.184-.129.359-.254.506-.354C542.986,296.281,542.807,296.4,542.627,296.525Zm1.435-1.023a6.533,6.533,0,0,1-.641.482,7.581,7.581,0,0,0,.647-.482,6.041,6.041,0,0,0,.682-.687A5.869,5.869,0,0,1,544.062,295.5Zm1.261-1.486a5.893,5.893,0,0,1-.572.8,5.972,5.972,0,0,0,.969-1.564A5.157,5.157,0,0,1,545.322,294.016ZM546,292.4a5.814,5.814,0,0,1-.2.646,5.946,5.946,0,0,0,.2-.639,6.424,6.424,0,0,0,.148-.754A6,6,0,0,1,546,292.4Zm-3.255-8.193a6.688,6.688,0,0,1,.611.611,7.365,7.365,0,0,1,.533.693l1.2,1.783a7.49,7.49,0,0,1,.386.654,5.355,5.355,0,0,1,.309.709,5.849,5.849,0,0,1,.225.721,5.159,5.159,0,0,1,.136.74,6,6,0,0,1,.045.756,6.355,6.355,0,0,1-.045.779,7.756,7.756,0,0,0,.051-.779c0-.248-.02-.506-.044-.756s-.084-.51-.136-.74-.142-.488-.225-.721a6.494,6.494,0,0,0-.315-.709,7.49,7.49,0,0,0-.386-.654l-1.2-1.783a7.448,7.448,0,0,0-.54-.693,6.688,6.688,0,0,0-.611-.611Zm-1.408-.957a5.036,5.036,0,0,1,.444.246,4.936,4.936,0,0,0-.437-.246q-.187-.1-.39-.187C541.09,283.121,541.218,283.184,541.341,283.25Zm-6.869.057Zm.083-.014Zm.664-.186-.045.02c-.1.031-.193.064-.29.09.1-.025.192-.059.29-.09l.045-.02Zm.282-.129c.018-.006.034-.014.053-.021C535.535,282.965,535.519,282.973,535.5,282.979Zm5.063-.076Zm-4.323-.187Zm3.532-.057c.021,0,.041.008.062.014-.02-.006-.037-.01-.057-.014a.464.464,0,0,0-.056-.014C539.738,282.648,539.755,282.652,539.772,282.658ZM537,282.547a2.9,2.9,0,0,0-.36.072,3.442,3.442,0,0,1,.36-.072Zm1.942-.043a7.057,7.057,0,0,0-.83-.053A7.057,7.057,0,0,1,538.942,282.5Zm-1.6-.008Zm.393-.031Zm-5.615-.342Zm-5.595-3.672c.27.2.533.383.788.566l-.788-.566Zm-1.576-1.16c-.324-.242-.642-.477-.947-.705C524.306,276.814,524.623,277.053,524.947,277.291ZM523.68,276.348Zm-1.261-.937ZM502.95,274.5c.036.02.07.041.1.061l-.1-.061c-.038-.025-.076-.047-.115-.068C502.878,274.449,502.915,274.471,502.95,274.5Zm-1.351-.639a6.506,6.506,0,0,1,.7.285c.068.029.136.063.2.1-.066-.033-.132-.066-.2-.1-.232-.109-.47-.205-.694-.285-.089-.027-.176-.061-.263-.09C501.429,273.8,501.514,273.83,501.6,273.857Zm2.3.328Zm14.484-1.672q.606.416,1.351.941c.279.2.574.408.884.633-.314-.23-.606-.439-.884-.633q-.713-.5-1.351-.941Zm-17.358,1.133Zm-.555-.244Zm-.54-.264c.119.066.246.127.372.184-.128-.061-.251-.121-.372-.184Zm-.533-.3-.02-.014a.273.273,0,0,1-.027-.016A.469.469,0,0,0,499.4,272.842Zm-.193-.123s0,0,0,0l3.1-4.937Zm6.569-.268c.164-.139.327-.271.492-.4C506.1,272.18,505.94,272.313,505.776,272.451Zm11.64-.555c.153.09.32.188.488.3l.337.221c-.106-.072-.218-.146-.337-.221-.168-.109-.328-.207-.483-.3-.041-.021-.083-.047-.124-.068C517.336,271.85,517.376,271.871,517.416,271.9Zm-.5-.277.126.066c-.04-.02-.079-.045-.12-.066s-.1-.049-.151-.07Zm-9.05-.584a9.891,9.891,0,0,0-1.094.637,9.891,9.891,0,0,1,1.094-.637Zm8.021.109c.212.082.372.154.527.23-.155-.076-.315-.148-.527-.23Zm-1.569-.533c.161.043.321.09.481.143l.133.041-.126-.041c-.167-.053-.327-.1-.488-.143Zm-.624-.168Zm-3.429-.168Zm1.981-.062c-.244-.02-.482-.033-.732-.033C511.756,270.18,512,270.193,512.244,270.213Zm-8.548-4.645-1.389,2.217,1.389-2.209c.157-.252.307-.494.458-.738Zm-115.905.906a8.485,8.485,0,0,0,1.19.264,7.81,7.81,0,0,0,1.171.09,7.647,7.647,0,0,0,1.608-.172,7.647,7.647,0,0,1-1.608.172,7.81,7.81,0,0,1-1.171-.09,8.485,8.485,0,0,1-1.19-.264Zm-10.527-.277Zm16.1-.057Zm-8.014-.766a10.511,10.511,0,0,0,1.229.65,11.479,11.479,0,0,1-1.229-.65Zm-7.6.418Zm1.095-.67c-.046.021-.089.045-.132.066.043-.021.086-.045.132-.066Zm5.691-.158Zm-4.522-.283Zm124.248-.008a6.573,6.573,0,0,0,.449-.785,5.756,5.756,0,0,0,.349-.912,5.692,5.692,0,0,1-.349.906,5.768,5.768,0,0,1-.449.785s0,.006,0,.006Zm-121.476-.191a6.239,6.239,0,0,1,.895.186,6.239,6.239,0,0,0-.895-.186Zm-2.148.057a.627.627,0,0,1,.084-.014A.682.682,0,0,0,380.639,264.539Zm1.235-.115Zm14.639-.406c-.031.031-.063.059-.095.088.031-.029.063-.057.095-.088ZM413.589,263.961Zm-1.265-1.01c-.069-.055-.141-.107-.219-.158C412.182,262.848,412.253,262.9,412.324,262.951Zm-14.229-.039Zm3.485-.721a6.632,6.632,0,0,1,1.346.211,6.921,6.921,0,0,1,1.286.482,6.921,6.921,0,0,0-1.286-.482A6.559,6.559,0,0,0,401.58,262.191Zm-2.893.455Zm12.779-.25c.055.027.107.059.161.088-.051-.029-.1-.061-.154-.088-.074-.037-.148-.076-.223-.111C411.324,262.32,411.4,262.359,411.467,262.4Zm3.75-.014Zm-14.672-.172-.095.008.095-.008Zm.895-.025-.257-.008ZM438.524,260c.115.334.225.688.315,1.037s.167.713.225,1.066c-.058-.354-.136-.707-.225-1.066s-.2-.7-.315-1.037c-.048-.135-.1-.271-.155-.408C438.423,259.727,438.474,259.861,438.524,260Zm66.735,2.025a6.293,6.293,0,0,0,.043-.736A6.419,6.419,0,0,1,505.26,262.023Zm-99.408-.014Zm33.753-.258-.341.223c.119-.076.233-.15.341-.223Zm-29.174.2Zm43.15-.1-.013-.008-.048-.021C453.54,261.832,453.561,261.84,453.581,261.852Zm.007-.033v0Zm-.1-.008a.748.748,0,0,0-.076-.035A.748.748,0,0,1,453.492,261.811Zm-.175-.076Zm-44.526-.127c-.181-.014-.36-.021-.547-.021C408.424,261.586,408.61,261.594,408.791,261.607Zm7.97-.328a5.576,5.576,0,0,0-.555.32c.175-.115.361-.219.555-.32Zm.571-.264a1.013,1.013,0,0,0-.1.037,1.013,1.013,0,0,1,.1-.037Zm87.857-1.572c.031.221.051.434.063.645l.045.951-.045-.951a5.755,5.755,0,0,0-.063-.645Zm-64.446,1.582Zm.329-.191Zm9.937-.02Zm-32.448-.166a3.52,3.52,0,0,0-.392.088,3.9,3.9,0,0,1,.392-.088Zm2.8.014c-.023-.168-.044-.324-.062-.461.017.125.037.279.063.461Zm-.218-.039.044.008-.037-.008-.052-.008Zm-1.955-.07Zm.733-.039c.206,0,.411.006.617.023-.206-.018-.411-.023-.617-.023h0ZM443,260.107c-.283.072-.56.148-.817.238-.129.039-.258.092-.4.148.141-.057.27-.109.4-.148.258-.09.534-.166.817-.238.145-.035.291-.068.439-.1C443.291,260.039,443.144,260.072,443,260.107Zm4.014-.244c.469.053.951.129,1.435.225-.483-.1-.966-.172-1.435-.225s-.946-.07-1.409-.07h0C446.071,259.793,446.546,259.82,447.015,259.863Zm-2.283-.039Zm-23.572-2.064-.007.971v0l.007-.971Zm83.155-.668a5.974,5.974,0,0,1,.3.539c.091.188.174.379.251.578a4.9,4.9,0,0,0-.251-.578c-.084-.172-.187-.354-.3-.539q-.045-.07-.094-.141Q504.272,257.021,504.314,257.092Zm-66.652.984c-.021-.039-.041-.078-.063-.113C437.621,258,437.642,258.037,437.662,258.076Zm44.713-7.012.181,6.123s0,0,.006,0l-.187-6.119Zm20.306,4.252c.154.115.314.244.463.379s.289.277.424.42c.148.158.284.32.406.479a5.339,5.339,0,0,0-.4-.473c-.135-.148-.282-.291-.431-.426s-.309-.264-.463-.379Zm-66.188,1ZM549.709,44.326a3.5,3.5,0,0,0-.76,1.3,5.5,5.5,0,0,0-.251,1.725V252.744a3.335,3.335,0,0,0,1.011,2.727,3.391,3.391,0,0,0,1.3.631,7.561,7.561,0,0,0,1.833.191h4.142c2.754,0,4.143-1.2,4.143-3.549V47.355a3.852,3.852,0,0,0-4.143-4.143h-4.142A4.151,4.151,0,0,0,549.709,44.326ZM484.762,256.217Zm1.234-.451Zm-64.419-.18c.014-.035.028-.072.044-.105C421.605,255.514,421.591,255.551,421.577,255.586Zm65.7-.217Zm14.361-.7c.029.014.057.031.084.045-.026-.014-.055-.031-.084-.045Zm-79.354-.387c-.018.025-.035.051-.052.078.017-.027.034-.053.052-.078s.05-.068.076-.1C422.334,254.211,422.31,254.248,422.284,254.279Zm78.2-.062c.05.014.1.031.147.045-.047-.014-.094-.031-.142-.045s-.095-.027-.143-.037C500.4,254.189,500.442,254.2,500.487,254.217Zm-.6-.148Zm-1.261-.129a5.624,5.624,0,0,1,.656.039,5.536,5.536,0,0,0-.656-.039l-.566-.008Zm-75.874-.238Zm.521-.516Zm.578-.455Zm.906-.525-.058.027.058-.027c.078-.039.16-.078.243-.113C424.914,252.127,424.834,252.166,424.754,252.205Zm31.349-4.58c.007-.045.015-.088.023-.133C456.117,247.537,456.11,247.58,456.1,247.625Zm.187-1.051c0-.008,0-.016,0-.027C456.292,246.559,456.29,246.566,456.289,246.574Zm.051-.285c0-.02.007-.041.011-.061C456.347,246.248,456.343,246.27,456.34,246.289Zm.049-.283.009-.043Zm.026-.146c0-.018.007-.033.01-.051C456.422,245.826,456.419,245.842,456.415,245.859Zm.016-.084.012-.064Zm.029-.166s0-.006,0-.008S456.46,245.605,456.46,245.609Zm.007-.039c.019-.1.033-.189.049-.271C456.5,245.381,456.485,245.473,456.467,245.57Zm.064-.361c.019-.1.035-.2.049-.275C456.566,245.012,456.55,245.1,456.531,245.209Zm.049-.275c.011-.068.021-.125.031-.178C456.6,244.8,456.592,244.865,456.58,244.934Zm.075-.436c-.01.055-.022.133-.044.252.021-.115.034-.193.044-.252Zm28.77-1.82c-.058.182-.2.564-.5,1.377.309-.842.442-1.209.5-1.371.069-.174.134-.34.186-.514C485.559,242.338,485.494,242.51,485.425,242.678Zm-28.023-.354a6.447,6.447,0,0,0-.354.727,4.888,4.888,0,0,0-.251.746,4.888,4.888,0,0,1,.251-.746,6.447,6.447,0,0,1,.354-.727Zm28.357-.785a6.2,6.2,0,0,1-.148.631,5.814,5.814,0,0,0,.154-.631,5.142,5.142,0,0,0,.071-.535C485.819,241.184,485.792,241.363,485.759,241.539Zm-27.405-.457Zm27.443-2.664.058,1.855c.006.184.007.363,0,.543a4.956,4.956,0,0,0,.012-.539l-.064-1.859Zm-26.209,1.693a5.67,5.67,0,0,0-.643.443,5.67,5.67,0,0,1,.643-.443Zm4.8-2.186Zm20.871-1.809a7.33,7.33,0,0,1,.277.742c.051.152.093.314.129.473-.034-.158-.075-.32-.124-.473a5.94,5.94,0,0,0-.282-.742Zm-16.761.045.51-.215C468.835,236.02,468.665,236.09,468.5,236.162Zm4.1-1.711c-1.2.494-2.384.986-3.545,1.475,1.2-.5,2.387-1,3.545-1.475Zm12.284.979Zm-.984-1.215c.14.135.275.279.407.43a5.346,5.346,0,0,0-.407-.43c-.146-.141-.3-.273-.455-.4C483.6,233.941,483.75,234.074,483.9,234.215Zm-.591-.51c-.12-.088-.245-.176-.371-.258C483.061,233.529,483.186,233.617,483.309,233.705Zm-1.474-.842q-.11-.047-.226-.088Q481.724,232.816,481.835,232.863Zm-5.151-.059Zm1.853-.443c-.213.02-.426.053-.624.09a6.273,6.273,0,0,0-.624.148,6.273,6.273,0,0,1,.624-.148c.2-.037.411-.07.624-.09Zm1.556.033a6.922,6.922,0,0,1,.875.172,6.922,6.922,0,0,0-.875-.172Zm332.6,65.332-2.959-44.982h-21.9l-2.959,44.982H739.288L768.295,1.773h67.476l28.415,295.953Zm-21.9-88.781H806.77l-8.29-122.531ZM622.1,297.727V1.773h63.925c2.187,0,4.342.07,6.394.205s4.065.354,5.98.623,3.789.625,5.564,1.043,3.512.9,5.151,1.447a49.51,49.51,0,0,1,4.734,1.865,41.8,41.8,0,0,1,4.322,2.277,39.721,39.721,0,0,1,3.9,2.684,37.161,37.161,0,0,1,3.5,3.1,39.351,39.351,0,0,1,3.081,3.5,40.542,40.542,0,0,1,2.668,3.916,44.922,44.922,0,0,1,2.259,4.32c.674,1.506,1.3,3.094,1.845,4.729s1.023,3.371,1.435,5.139.753,3.635,1.023,5.545.476,3.9.616,5.943.206,4.174.206,6.348v190.6c0,2.172-.07,4.309-.206,6.346s-.347,4.039-.616,5.945-.617,3.768-1.023,5.541-.894,3.5-1.435,5.135a49.767,49.767,0,0,1-1.845,4.732,44.276,44.276,0,0,1-2.259,4.322,39.746,39.746,0,0,1-2.668,3.91,37.61,37.61,0,0,1-6.58,6.605,40.409,40.409,0,0,1-3.9,2.684,44.614,44.614,0,0,1-4.322,2.275,47.512,47.512,0,0,1-4.734,1.859c-1.647.555-3.377,1.041-5.151,1.453s-3.647.766-5.564,1.037-3.93.488-5.98.623-4.207.205-6.394.205Zm52.676-43.207h5.918a6.117,6.117,0,0,0,2.379-.426,4.1,4.1,0,0,0,1.66-1.248,5.476,5.476,0,0,0,.971-2.037,10.969,10.969,0,0,0,.321-2.8V50.9a9.362,9.362,0,0,0-.321-2.592,4.725,4.725,0,0,0-.971-1.846,3.963,3.963,0,0,0-1.66-1.113,6.956,6.956,0,0,0-2.379-.373h-5.918ZM249.78,297.727V1.773h69.256c1.931,0,3.821.063,5.629.186s3.569.309,5.254.555,3.325.551,4.889.918,3.08.8,4.515,1.293a42.1,42.1,0,0,1,4.154,1.652A36.956,36.956,0,0,1,347.266,8.4a34.12,34.12,0,0,1,3.422,2.387,32.5,32.5,0,0,1,3.055,2.744,35.755,35.755,0,0,1,2.694,3.113,35.085,35.085,0,0,1,2.336,3.475,39.771,39.771,0,0,1,1.967,3.838,44.39,44.39,0,0,1,1.608,4.2c.476,1.453.895,2.984,1.255,4.553s.655,3.23.887,4.92.419,3.461.541,5.275.174,3.7.174,5.633V152.711c0,1.932-.059,3.82-.174,5.637s-.3,3.58-.541,5.273-.533,3.342-.887,4.914-.779,3.1-1.255,4.561a43.908,43.908,0,0,1-1.608,4.2,38.6,38.6,0,0,1-1.967,3.834,34.354,34.354,0,0,1-5.03,6.588,33.114,33.114,0,0,1-3.055,2.75,34.4,34.4,0,0,1-3.422,2.381,36.979,36.979,0,0,1-3.789,2.025,42.592,42.592,0,0,1-4.154,1.654c-1.435.488-2.959.918-4.515,1.291s-3.21.674-4.889.922-3.454.43-5.254.551-3.7.182-5.629.182H301.871v98.256Zm52.091-141.463h7.692a5.959,5.959,0,0,0,1.838-.254,3.031,3.031,0,0,0,2.06-2.051,6.26,6.26,0,0,0,.25-1.84V49.131a6.236,6.236,0,0,0-.25-1.842,3.011,3.011,0,0,0-2.06-2.051,6.011,6.011,0,0,0-1.838-.258h-7.692ZM194.141,297.727l-2.959-44.982h-21.9l-2.959,44.982H120.749l29-295.953H217.23l28.408,295.953Zm-22.492-88.781h16.574L179.939,86.414ZM63.925,297.727V184.678a5.433,5.433,0,0,0-.251-1.719,3.5,3.5,0,0,0-.766-1.311,4.145,4.145,0,0,0-3.126-1.113h-7.7V297.727H0V1.773H69.842c1.91,0,3.787.063,5.577.186s3.536.309,5.2.555,3.286.551,4.83.918,3.048.8,4.47,1.293a41.928,41.928,0,0,1,4.1,1.652A37.026,37.026,0,0,1,97.762,8.4a33.172,33.172,0,0,1,3.37,2.387,32.045,32.045,0,0,1,3.017,2.744,33.45,33.45,0,0,1,2.655,3.113,35.587,35.587,0,0,1,2.29,3.475,39.637,39.637,0,0,1,1.943,3.838c.578,1.334,1.111,2.748,1.582,4.2s.875,2.984,1.229,4.553.643,3.23.875,4.92.4,3.461.521,5.275.18,3.7.18,5.633v73.984a61.055,61.055,0,0,1-.36,6.754,46.871,46.871,0,0,1-1.073,6.092,36.453,36.453,0,0,1-1.788,5.426,30.547,30.547,0,0,1-2.515,4.771,27.846,27.846,0,0,1-7.2,7.559,31.908,31.908,0,0,1-4.707,2.791,39.129,39.129,0,0,1-5.442,2.123,43.219,43.219,0,0,1,5.551,1.893,34.361,34.361,0,0,1,4.8,2.494,28.844,28.844,0,0,1,4.071,3.086,26.835,26.835,0,0,1,3.332,3.674,27.4,27.4,0,0,1,2.593,4.232,30.049,30.049,0,0,1,1.846,4.791,35.171,35.171,0,0,1,1.111,5.338,44.942,44.942,0,0,1,.368,5.867V297.727Zm-11.842-160.4h7.108a6.029,6.029,0,0,0,1.833-.252,3.174,3.174,0,0,0,1.292-.766,3.128,3.128,0,0,0,.766-1.287,6.021,6.021,0,0,0,.251-1.84V49.723A5.443,5.443,0,0,0,63.082,48a3.534,3.534,0,0,0-.766-1.3,4.13,4.13,0,0,0-3.125-1.125H52.083Z" transform="translate(0 0)" fill="#fff"/></g><path d="M9854.653,18167.41h0l-.023-.006-.047,0a.633.633,0,0,0-.065-.008h-.017a.567.567,0,0,0-.1-.014h0l-.028,0-.054-.006c-.063,0-.126-.01-.189-.016l-.072-.012h-.022l-.015,0-.022,0h-.021a.574.574,0,0,0-.115-.01l-.03-.006c-.082-.008-.136-.014-.181-.02l-.041,0-.135-.014-.068-.006h-.008a.031.031,0,0,0-.015,0,.044.044,0,0,1-.024-.006h-.027s-.008,0-.014,0h-.011l-.009,0h-.008l-.024,0h-.012s0,0-.009,0l-.01,0h-.009a.119.119,0,0,1-.049-.006h-.022c.02-.277.047-.564.083-.9.031-.291.068-.6.112-.916.047-.334.09-.627.14-.922s.1-.611.159-.924c.055-.291.116-.59.181-.881.05-.234.118-.551.2-.9s.162-.662.225-.9c.085-.324.168-.619.25-.914.129-.459.282-.971.5-1.646.172-.533.366-1.1.578-1.7.2-.555.412-1.125.655-1.746.269-.678.511-1.273.743-1.814l-.338-16.434c-.96.779-1.741,1.414-2.457,2.008-.628.512-1.249,1.021-1.848,1.516l-.113.09-.5.42c-.883.727-1.665,1.381-2.454,2.035-.312.264-.624.523-.936.785l-.651.545c-.289.242-.573.48-.855.719-.3-.164-.557-.312-.791-.455-.3-.184-.549-.344-.771-.494-.244-.164-.488-.34-.749-.535-.23-.17-.472-.363-.721-.57s-.478-.408-.708-.619c-.269-.252-.473-.449-.666-.652-.221-.225-.426-.445-.623-.672-.184-.209-.375-.445-.574-.693-.207-.268-.394-.521-.55-.758s-.328-.5-.491-.77c-.15-.25-.293-.516-.431-.783s-.252-.525-.367-.8c-.134-.332-.235-.6-.316-.854-.1-.295-.179-.586-.244-.861s-.128-.578-.172-.863-.073-.586-.092-.861c-1.057.992-1.96,1.844-2.763,2.605s-1.693,1.609-2.764,2.635c-.834.793-1.712,1.635-2.759,2.646-.966.928-1.887,1.82-2.741,2.654-.355-.2-.717-.42-1.073-.658s-.7-.5-1.018-.75c-.339-.27-.661-.553-.961-.834s-.594-.584-.9-.916c-.276-.3-.541-.615-.787-.934-.287-.369-.519-.686-.729-1-.239-.359-.462-.715-.662-1.061s-.4-.713-.6-1.117c-.176-.355-.349-.732-.508-1.115-.15-.363-.3-.746-.439-1.15-.152-.441-.274-.83-.375-1.189-.116-.4-.219-.809-.306-1.217-.1-.437-.174-.828-.232-1.2-.064-.4-.12-.807-.163-1.213s-.077-.807-.1-1.215c-.019-.434-.03-.842-.024-1.221l.075-37.818c-.012-.223-.017-.434-.012-.65s0-.426.019-.623c.02-.246.04-.432.061-.6.027-.207.065-.41.1-.58.047-.223.085-.391.126-.549.064-.223.117-.385.168-.533.064-.184.131-.357.2-.52s.145-.326.239-.514a8.945,8.945,0,0,1,.536-.916c.193-.287.421-.594.676-.908s.536-.615.833-.916.646-.629,1-.941c.443-.4.878-.783,1.292-1.137.387-.334.821-.693,1.368-1.135.462-.375.952-.762,1.458-1.145.539-.414,1.047-.789,1.555-1.156.455-.332.914-.66,1.364-.973l.123-.088c.38-.264.851-.59,1.325-.908.373-.252.767-.514,1.274-.848l.274-.182c.57-.369,1.137-.734,1.687-1.086.09-.027.184-.057.3-.082s.211-.047.314-.064.236-.029.329-.037.2-.01.352-.01a6.043,6.043,0,0,1,.727.043c.252.033.52.08.795.141s.58.137.882.23c.284.082.607.191.963.322.27.1.564.217.876.346.3.121.581.244.872.373l.17.08.054.025c.194.086.4.18.618.287.176.08.35.162.516.242l.092.041.2.1,0,0,.006,0c.024.01.052.021.079.035s.076.035.114.051l.133.066h0c.1.049.2.094.291.141l.037.016c.068.031.132.061.191.092.145.064.254.117.362.164.231.1.4.178.551.244.222.092.373.152.511.2.354.131.732.254,1.123.363.333.1.709.184,1.117.268.39.072.763.123,1.107.156.385.035.755.051,1.1.051s.7-.014,1.042-.047c.373-.037.709-.088,1.028-.146.354-.066.7-.148,1.012-.24.335-.1.669-.213.993-.34l0,.012c.018.027.036.049.053.07v.006l.04.055,0,.01.016.021,0,.006a.13.13,0,0,0,.02.021c.014.021.028.047.045.068l.068.1c.036.049.074.1.105.15.017.025.033.047.05.068s.023.031.032.047l.017.025.114.158.154.217a5.924,5.924,0,0,0-.633.264,6.1,6.1,0,0,0-.6.318,5.62,5.62,0,0,0-.552.383,6.41,6.41,0,0,0-.513.439c-.146.143-.292.3-.431.457s-.269.338-.391.508-.231.34-.356.549c-.105.186-.213.387-.313.6-.094.2-.179.389-.254.578-.084.209-.158.414-.218.615-.064.184-.124.389-.189.639s-.107.463-.149.67c-.043.232-.076.432-.1.629s-.055.43-.072.641c-.018.191-.031.391-.043.652-.008.223-.014.443-.008.66l.7,42.412c0,.242,0,.48.01.705.007.273.021.555.038.834s.045.59.081.908.077.648.132.957c.071.414.154.8.249,1.154a7.689,7.689,0,0,0,.332.973,4.812,4.812,0,0,0,.408.787,3.077,3.077,0,0,0,.483.6,2.489,2.489,0,0,0,.341.279,2.4,2.4,0,0,0,.377.2,1.818,1.818,0,0,0,.4.121,2.192,2.192,0,0,0,.431.041h.058a.041.041,0,0,0,.011,0h.08a2.766,2.766,0,0,0,.463-.074,2.614,2.614,0,0,0,.417-.148,2.79,2.79,0,0,0,.7-.475,3.927,3.927,0,0,0,.535-.627,5.956,5.956,0,0,0,.381-.666c.063-.135.119-.262.17-.385.057-.141.105-.279.151-.408l0-.012.01-.035c.041-.129.079-.252.115-.381.038-.15.074-.3.1-.441s.058-.279.073-.4.037-.262.053-.391.023-.27.025-.383.008-.238.008-.355l-1.547-75.156c0-.143-.011-.289-.025-.441-.014-.125-.034-.262-.06-.418-.023-.121-.053-.248-.094-.4a3.7,3.7,0,0,0-.129-.373,2.856,2.856,0,0,0-.125-.275,1.949,1.949,0,0,0-.145-.264,2.211,2.211,0,0,0-.163-.244c-.058-.074-.118-.154-.187-.23a2.572,2.572,0,0,0-.291-.277,2.108,2.108,0,0,0-.258-.2,1.662,1.662,0,0,0-.206-.123c-.068-.033-.109-.051-.131-.061,1.295-.584,2.646-1.184,4.012-1.781,1.227-.533,2.667-1.162,4.034-1.734,1.553-.658,2.841-1.2,4.053-1.7,1.368-.564,2.731-1.117,4.049-1.641l.057,1.859-.032.006c-.095.025-.171.047-.248.072a2.305,2.305,0,0,0-.268.092c-.083.033-.168.068-.256.109a2.118,2.118,0,0,0-.244.125l-.008,0-.006.006c-.071.039-.143.076-.207.117s-.136.092-.21.146-.123.092-.176.133l-.023.02c-.062.055-.123.107-.187.168l-.024.025c-.047.045-.1.1-.143.145l-.02.025-.021.018c-.043.053-.08.094-.115.141-.058.068-.1.127-.151.191-.032.045-.062.092-.093.139-.007.014-.016.021-.022.035a.194.194,0,0,0-.021.033l-.029.043-.027.047c-.022.035-.045.068-.066.109-.009.018-.02.035-.03.053l-.027.055-.039.068-.019.035-.023.047c-.029.066-.058.123-.084.178l-.008.018-.014.035c-.03.063-.058.123-.08.184-.062.148-.113.3-.156.434-.062.189-.106.359-.136.467-.045.17-.083.334-.116.506s-.064.344-.1.549c-.022.148-.046.311-.07.514-.026.225-.043.375-.055.512s-.026.3-.04.494l0,.047c-.008.117-.017.219-.021.314l0,.02v.035a.258.258,0,0,0,0,.053l1.142,41.721a.233.233,0,0,0,.029.018l.04.023.029.02c.035.02.069.041.108.064l.01,0,.159.1c.081.049.156.094.23.137l.135.082c.06.039.116.072.167.105.074.043.143.084.208.125.105.063.2.123.306.189l.019.012c.06.035.12.074.171.1s.08.049.122.074.1.063.159.1c.082.051.176.105.281.172.6-.391,1.229-.8,1.8-1.172l.315-.205c.431-.281.866-.562,1.327-.859l.18-.115c.231-.148.421-.273.594-.383.1-.064.2-.133.306-.2s.186-.115.275-.176c.47-.3.95-.607,1.5-.957l.315-.2c.6-.383,1.188-.754,1.739-1.1-.267-.172-.552-.375-.868-.617-.273-.207-.549-.437-.818-.682-.256-.229-.516-.479-.775-.744-.267-.281-.511-.551-.723-.807-.205-.24-.414-.5-.636-.8q-.3-.422-.584-.861c-.187-.291-.367-.6-.536-.9s-.329-.623-.481-.949c-.143-.3-.282-.613-.411-.937-.124-.307-.244-.631-.356-.959-.121-.365-.22-.689-.3-.988-.094-.336-.176-.676-.248-1-.081-.381-.142-.693-.186-.988-.047-.275-.088-.59-.132-.994-.035-.334-.062-.672-.078-.994-.015-.3-.023-.629-.023-.99,0-.225.016-.467.036-.713s.059-.479.1-.693c.037-.2.087-.412.154-.672a6.37,6.37,0,0,1,.219-.643,5.92,5.92,0,0,1,.258-.592c.087-.18.189-.371.308-.568s.246-.387.361-.545.244-.316.416-.521a9.555,9.555,0,0,1,.884-.9,12.005,12.005,0,0,1,1.051-.818,13.429,13.429,0,0,1,1.215-.748c.418-.227.88-.449,1.376-.664.437-.186.878-.355,1.314-.51.474-.162.948-.312,1.415-.441s.962-.258,1.508-.375c.5-.115,1.039-.217,1.6-.311.511-.084.977-.154,1.424-.205.5-.061.989-.109,1.449-.15.536-.043,1.012-.07,1.457-.092.475-.016.96-.027,1.442-.027h.475l.007,0,.04.953-.024,0c-.146.008-.283.014-.417.029s-.292.029-.437.049c-.167.023-.307.041-.441.066-.093.016-.184.033-.27.049l-.077.014-.085.018c-.167.035-.3.064-.435.1s-.289.072-.428.115-.264.074-.417.123-.279.092-.407.141l-.316.121-.041.016-.054.021c-.121.051-.243.105-.35.152l-.05.023c-.116.051-.244.109-.384.184s-.284.146-.377.2c-.14.078-.259.148-.369.217s-.222.141-.356.229-.247.17-.34.244c-.137.1-.237.178-.325.252a7.071,7.071,0,0,0-.629.563,7.647,7.647,0,0,0-.549.605,7.071,7.071,0,0,0-.47.648,6.963,6.963,0,0,0-.383.68,6.322,6.322,0,0,0-.317.773,5.909,5.909,0,0,0-.209.8,5.825,5.825,0,0,0-.108.826,7.252,7.252,0,0,0,0,.85,7.656,7.656,0,0,0,.1.9,8.562,8.562,0,0,0,.194.891,8.094,8.094,0,0,0,.291.877,8.73,8.73,0,0,0,.381.859c.151.3.294.551.438.781s.324.5.518.762.388.508.589.742.421.469.667.717c.184.188.4.391.687.643.245.211.5.416.745.609.266.205.534.4.8.58.21.141.525.35.854.547s.595.348.849.479c.307.166.6.311.88.438.363.166.644.289.909.4.3.119.61.234.936.346-1.686,1.066-3.131,1.988-4.419,2.824-1.464.941-2.947,1.912-4.411,2.881-1.385.91-2.862,1.9-4.391,2.928-1.459.988-2.923,1.988-4.356,2.979.324.156.674.314,1.035.469s.718.293,1.042.412c.387.143.728.26,1.038.355.372.115.723.215,1.041.3.4.1.768.186,1.105.25.395.076.761.137,1.094.18.394.053.757.088,1.08.109s.682.033,1.062.033a14.093,14.093,0,0,0,1.625-.088,14.26,14.26,0,0,0,1.558-.268,13.183,13.183,0,0,0,1.479-.451,13.019,13.019,0,0,0,1.4-.627c.047.021.091.039.133.061l.089.041.029.01c.034.018.067.033.1.051l.025.008c.085.043.167.08.271.127l.051.023.042.02c.082.039.173.08.261.123l.011.006c.036.014.071.029.107.047s.052.023.076.037l.179.084.058.027h.008l-.071.068c-.116.111-.205.2-.293.279-.012.014-.025.025-.036.039l-.075.074-.034.031-.016.014-.012.012-.02.02c-.041.041-.079.08-.122.117-.067.066-.136.133-.187.189-.011.008-.021.018-.03.025a.121.121,0,0,0-.027.027l-.009.008c-.008.008-.019.016-.027.025s-.021.021-.032.035c-.107.1-.2.189-.283.277l-.085.078,1.313,33.486c0,.318.013.645.033.965.024.35.062.729.112,1.119.061.424.129.824.206,1.188a11.22,11.22,0,0,0,.309,1.18c.062.205.139.42.225.639.081.2.166.393.258.57a4.749,4.749,0,0,0,.284.506,4.1,4.1,0,0,0,.313.438,3.026,3.026,0,0,0,.4.42,2.807,2.807,0,0,0,.436.32,2.47,2.47,0,0,0,.472.221,2.516,2.516,0,0,0,.5.115h.021l0,0c.018,0,.034.006.049.006h.034a.145.145,0,0,0,.05.006h.01a.077.077,0,0,0,.021,0h.021l.021,0h.1a2.222,2.222,0,0,0,.244-.01c.074-.008.156-.02.241-.035s.153-.043.231-.066.155-.059.221-.088a1.074,1.074,0,0,0,.2-.1,2.041,2.041,0,0,0,.189-.123c.074-.055.132-.1.18-.143l.013-.012.014-.014a1.455,1.455,0,0,0,.145-.139,3.229,3.229,0,0,0,.273-.332c.081-.119.16-.248.237-.383s.14-.285.2-.432.114-.322.16-.479c.034-.125.069-.266.108-.451.03-.162.052-.322.065-.459a4.3,4.3,0,0,0,.027-.461c0-.129,0-.268-.014-.437l-1.239-28.768c-.009-.2-.024-.406-.047-.6-.017-.164-.044-.348-.088-.572-.034-.184-.075-.365-.124-.541-.044-.158-.1-.324-.168-.516-.062-.158-.112-.277-.16-.381-.072-.154-.13-.266-.187-.367-.079-.137-.146-.242-.21-.338a4.5,4.5,0,0,0-.588-.7,2.706,2.706,0,0,0-.324-.277c-.073-.057-.156-.111-.257-.178-.067-.041-.122-.066-.157-.086,1.229-.389,2.572-.8,4.116-1.266,1.271-.385,2.626-.785,4.136-1.215,1.7-.482,2.979-.842,4.147-1.16,1.548-.422,2.864-.771,4.144-1.1-.538-.406-1.062-.8-1.545-1.162l-.34-.254c-.591-.441-1.21-.9-1.893-1.4l-.058-.043c-.68-.5-1.27-.934-1.834-1.344-.7-.51-1.316-.957-1.887-1.365-.143-.1-.354-.264-.565-.406-.187-.131-.37-.248-.541-.354-.2-.117-.369-.217-.524-.3s-.306-.15-.5-.234c-.131-.057-.273-.113-.437-.168-.123-.041-.259-.08-.412-.117a3.234,3.234,0,0,0-.4-.072,3.482,3.482,0,0,0-.376-.025,2.179,2.179,0,0,0-.315.02,2.137,2.137,0,0,0-.3.055,1.775,1.775,0,0,0-.285.094,2.151,2.151,0,0,0-.274.127,1.047,1.047,0,0,0-.192.078,1.774,1.774,0,0,0-.225.139,1.96,1.96,0,0,0-.252.188c-.094.07-.186.152-.288.244-.077.068-.156.146-.251.236s-.173.17-.267.266l0,0c-.032.035-.062.07-.1.1-.065.068-.129.135-.183.2-.082.084-.177.189-.306.332l-.038.047-.013.014c-.083.1-.173.193-.259.295l-.176.209-.044.053c-.021.023-.041.049-.062.076l-.042.049-.068.086-.014.016c-.079.1-.161.2-.244.3-.109.135-.2.252-.3.381l-.019.025,0,.008-.052-.021-.027-.012-.021-.008-.041-.021c-.09-.045-.168-.082-.244-.115l-.025-.018-.019,0a.218.218,0,0,0-.048-.023l0,0c-.08-.039-.154-.074-.23-.113l-.105-.049c-.034-.02-.073-.035-.111-.057l-.118-.055c-.044-.02-.088-.041-.137-.066s-.094-.047-.14-.066l-.033-.016-.079-.039c.354-.539.762-1.121,1.215-1.725.419-.559.85-1.1,1.313-1.656.392-.48.826-.99,1.365-1.607.293-.338.593-.674.88-1l.088-.1c.077-.084.154-.172.229-.258l.149-.166.037-.039.01-.018.093-.1.007-.008a.33.33,0,0,1,.045-.049l.009-.012,0,0s0,0,0,0,0-.006.006-.006l.01-.008a.094.094,0,0,1,.018-.021l.011-.012c.006-.008.012-.01.017-.02l.011-.014.053-.057c0-.006.008-.012.014-.012a.159.159,0,0,1,.017-.021c.009-.008.019-.02.028-.029l.007-.006a1.691,1.691,0,0,1,.117-.135l.022-.025.02-.021.027-.027c.014-.016.029-.033.044-.053l.017-.018.015-.018c.016-.014.03-.033.046-.049l.011-.012c.059-.068.115-.129.173-.2.088-.092.167-.186.232-.26l.029-.031c.008-.01.018-.018.026-.027l.024-.029c.018-.02.037-.039.054-.061a.2.2,0,0,0,.023-.025c.019-.023.042-.049.063-.07.295-.338.6-.684.938-1.053s.652-.709.971-1.031c.347-.354.68-.676,1.017-.979s.7-.609,1.084-.9a1.4,1.4,0,0,1,.215-.123.9.9,0,0,1,.214-.084,1.151,1.151,0,0,1,.224-.053,1.467,1.467,0,0,1,.233-.016,1.439,1.439,0,0,1,.181.01c.049,0,.113.012.194.025a.173.173,0,0,1,.027.006.066.066,0,0,1,.027.006c.019,0,.036.008.053.008l.108.023c.062.018.13.033.207.059l.03.008.021.008h.009a.042.042,0,0,0,.015.008.117.117,0,0,1,.023.006l.008,0,.01,0a.029.029,0,0,1,.017.006l0,0a.036.036,0,0,1,.022.006l.041.012.021.006c.056.016.119.035.183.055.045.014.093.027.14.043.031.012.063.02.1.031.135.045.277.1.42.16.174.078.333.16.485.244.193.113.388.238.6.377.4.271.817.564,1.253.871l.082.061c.338.242.735.529,1.177.85.352.258.776.57,1.259.93l.8.6.45.338.059.047.064.045c1.105.826,2.028,1.518,2.98,2.205,1.128.822,2.145,1.533,3.11,2.17.567.373,1.1.713,1.586,1.012s1.037.623,1.6.941c.534.295,1.08.584,1.626.852s1.1.52,1.649.75c.163.068.339.129.517.184.161.043.346.09.55.129s.383.059.577.082c.227.016.423.023.6.023a7.553,7.553,0,0,0,.77-.041c.244-.023.483-.057.712-.1.258-.049.455-.092.639-.139s.364-.1.534-.152c.143-.043.28-.09.434-.146s.28-.105.34-.129.09-.039.126-.055l.026-.012.082-.035c.033-.014.064-.027.092-.041l.02-.01.011-.008.161.238.025.045.043.061c.064.092.127.189.185.279l.117.168.021.031c.021.033.044.066.063.1l.043.057c.042.064.081.125.119.186l.055.078c.023.039.047.074.071.109l.006,0,.027.041c.074.115.153.232.258.387-.228.053-.492.111-.746.191-.231.068-.472.15-.713.244-.225.088-.455.191-.686.3s-.44.23-.647.354-.4.252-.6.4-.388.3-.557.441-.34.311-.51.482c-.177.189-.329.363-.466.527-.146.186-.286.379-.414.564s-.25.395-.359.6a6.907,6.907,0,0,0-.306.631c-.084.2-.169.418-.251.656-.071.223-.135.455-.192.7s-.095.473-.129.717c-.03.266-.052.5-.063.734s-.011.5,0,.744l2.489,40.656a7.256,7.256,0,0,0,.212,1.186,8.473,8.473,0,0,0,.414,1.182,10.1,10.1,0,0,0,.6,1.152,9.709,9.709,0,0,0,.769,1.072c.17.2.313.357.449.5s.306.3.479.461.341.295.5.412.341.25.526.365a6.757,6.757,0,0,0,1.176.6,5.54,5.54,0,0,0,.605.207,5.926,5.926,0,0,0,.612.139c.1.016.176.027.247.035s.132.016.2.021h0l.044,0c.058.008.118.01.187.014l.03,0,.027,0c.074.006.149.006.244.006a4.978,4.978,0,0,0,.781-.062,5.434,5.434,0,0,0,.749-.176,5.85,5.85,0,0,0,.707-.3,5.321,5.321,0,0,0,.666-.424,5.493,5.493,0,0,0,.546-.459c.17-.166.346-.355.519-.559.156-.191.318-.4.479-.639s.312-.484.443-.727c.12-.217.234-.441.351-.687.1-.225.211-.473.318-.738.095-.244.188-.5.288-.793.082-.258.165-.531.253-.842.064-.23.126-.477.183-.729.047-.2.1-.428.162-.752.044-.227.082-.469.129-.76.032-.217.063-.455.1-.756l.09.043c.071.033.138.066.2.094l.069.033.011.006a.338.338,0,0,1,.061.027l.058.023c.016.008.032.018.051.025a.709.709,0,0,0,.075.033l.021.014.009,0a.35.35,0,0,0,.088.041l.068.035.12.057.046.023s.007,0,.009,0,.007,0,.01,0a.1.1,0,0,0,.03.012l.029.016.011.006.042.02.145.068.011.006.008.006a.406.406,0,0,1,.069.033l.025.01.051.025c0,.389-.017.715-.034.99-.018.3-.049.633-.09.984s-.09.674-.145.979c-.065.371-.13.688-.2.971-.092.387-.176.7-.266.99s-.2.617-.318.957c-.1.277-.223.578-.373.916s-.282.613-.428.881-.31.566-.508.883c-.184.291-.373.566-.564.82s-.409.523-.616.754c-.218.246-.442.477-.666.689a9.063,9.063,0,0,1-.771.656c-.27.209-.545.4-.823.576a9.608,9.608,0,0,1-.875.484c-.27.135-.57.264-.921.4-.866.4-1.648.766-2.383,1.113-.858.406-1.656.791-2.445,1.174-.9.439-1.752.854-2.528,1.242s-1.6.793-2.623,1.314c-.185-.164-.366-.332-.56-.514l-.112-.1-.122-.117c-.259-.244-.517-.5-.769-.746-.213-.213-.44-.449-.738-.766-.228-.244-.468-.506-.71-.777-.265-.3-.5-.574-.722-.84-.246-.3-.469-.582-.68-.854s-.44-.58-.645-.857c-.211-.3-.414-.588-.6-.863-.417-.629-.811-1.279-1.171-1.934s-.681-1.316-.938-1.922a18.278,18.278,0,0,1-.707-1.9,17.165,17.165,0,0,1-.472-1.879l-.62.434c-.516.359-1.206.838-1.963,1.367l-.255.182c-.158.109-.312.219-.465.326-.647.457-1.261.889-1.866,1.324-.837.6-1.709,1.219-2.589,1.848-.77.555-1.554,1.123-2.579,1.863-.517-.422-1.041-.881-1.557-1.363s-1-.977-1.45-1.461c-.475-.52-.916-1.039-1.316-1.547-.416-.521-.809-1.059-1.168-1.592-.182-.262-.362-.551-.56-.873-.165-.268-.332-.553-.512-.875s-.323-.611-.459-.887c-.148-.3-.285-.6-.409-.885-.131-.312-.255-.629-.37-.941s-.219-.617-.315-.936-.178-.627-.248-.932-.136-.619-.189-.922c-.879.666-1.709,1.3-2.61,1.99l-.015.014c-.81.621-1.728,1.322-2.616,2.014l-2.232,1.738-.323.252-.08.064c-.866.674-1.755,1.371-2.642,2.072-.372-.264-.736-.549-1.088-.84-.332-.273-.677-.586-1.029-.928s-.676-.686-.97-1.018-.611-.719-.9-1.1c-.27-.352-.533-.721-.781-1.094s-.5-.775-.722-1.162-.445-.8-.659-1.229c-.2-.4-.4-.828-.594-1.283-.332-.771-.639-1.6-.912-2.461-.267-.848-.5-1.717-.69-2.592-.2-.912-.352-1.818-.46-2.691s-.187-1.809-.225-2.754l-.784-24.412c-.107.021-.22.041-.346.061l-.011,0c-.118.014-.244.031-.366.041-.15.014-.271.023-.371.025s-.239.012-.387.012c-.223,0-.444-.01-.678-.025s-.484-.047-.719-.08-.493-.074-.762-.125-.541-.115-.812-.184c-.188-.051-.409-.107-.736-.2-.229-.066-.466-.137-.725-.217-.217-.068-.471-.15-.718-.232-.123-.039-.253-.082-.374-.123l-.008,0c-.08-.027-.156-.051-.226-.07a.06.06,0,0,0-.019-.012.027.027,0,0,1-.017-.006c-.014,0-.029-.008-.041-.01a.035.035,0,0,0-.02-.006l-.011-.008-.118-.033-.458-.156.926,33.848c0,.2.008.381.018.57l0,.027c.008.174.018.365.034.537s.032.354.055.555c.021.184.048.365.074.551s.06.354.1.584c.032.168.072.348.126.57s.1.393.146.555c.053.186.106.367.165.535a11.08,11.08,0,0,0,.457,1.146,8.883,8.883,0,0,0,.563,1.029,8.193,8.193,0,0,0,1.429,1.709h-.029a.1.1,0,0,1-.041-.006h-.206c-.319,0-.635.012-.937.033-.318.021-.628.049-.919.088s-.605.09-.9.15c-.327.068-.615.135-.88.209s-.54.158-.816.256c-.292.1-.563.205-.8.307-.28.117-.543.24-.779.361s-.507.264-.762.412a14.63,14.63,0,0,0-1.35.9,15.763,15.763,0,0,0-1.278,1.084,16.5,16.5,0,0,0-1.192,1.256c-.367.424-.742.9-1.11,1.424-.141.2-.291.422-.479.709-.152.234-.308.482-.46.74-.14.238-.288.5-.438.779-.14.26-.281.531-.42.807-.117.244-.252.529-.371.795q-.192.425-.354.82c-.1.238-.205.5-.328.834-.112.307-.211.588-.3.857s-.184.561-.269.834l-.006.008c-.071.25-.157.549-.242.855-.067.25-.142.533-.221.863-.053.213-.128.535-.2.871-.061.295-.115.578-.164.852-.059.313-.106.623-.141.85-.038.256-.077.533-.116.852-.032.258-.066.557-.09.848Zm52.257-65.8c-.348.105-.7.209-1.1.324l-1.277.389,1.837,36.688v.016c.013.15.025.3.043.449s.038.281.058.412l.011.08.022.123c.024.139.046.266.068.379l0,.027c.03.15.066.314.107.482.041.189.093.387.15.59s.115.389.173.566.129.371.193.543.136.35.211.52c.106.24.191.416.271.57.091.18.187.359.285.525s.209.332.31.475.2.275.327.432a4.846,4.846,0,0,0,.4.424,4.576,4.576,0,0,0,.419.363,3.694,3.694,0,0,0,.433.289,3.03,3.03,0,0,0,.455.221,3.206,3.206,0,0,0,.35.125c.145.045.244.072.339.092.128.027.228.043.321.055a2.536,2.536,0,0,0,.3.02,2.3,2.3,0,0,0,.406-.037,1.874,1.874,0,0,0,.365-.109,1.527,1.527,0,0,0,.326-.182,2.05,2.05,0,0,0,.29-.248c.08-.092.143-.174.2-.25a2.177,2.177,0,0,0,.161-.289,3.329,3.329,0,0,0,.138-.322,3.683,3.683,0,0,0,.1-.363,3.485,3.485,0,0,0,.068-.387c.019-.166.029-.293.034-.414a3.47,3.47,0,0,0,0-.428c0-.146-.011-.293-.027-.457l-2.21-40.68-.044-.035c-.164-.131-.353-.279-.534-.422-.161-.133-.307-.248-.5-.4l-.065-.049-.033-.025c-.021-.02-.047-.035-.071-.057l-.03-.021c-.017-.014-.032-.027-.052-.041l-.05-.039c-.065-.055-.131-.109-.2-.162s-.138-.1-.211-.162l-.041-.033-.052-.043-.012-.006a.2.2,0,0,1-.032-.027c-.018-.014-.037-.029-.058-.043l-.018-.014c-.051-.041-.106-.084-.161-.127-.255.074-.5.143-.741.211-.139.041-.277.08-.413.117l-.14.039c-.31.09-.6.176-.919.271l-.187.055h0Zm-76.355-17.818.225,43.012a4.652,4.652,0,0,0,.041.547c.022.174.055.355.1.537s.1.359.155.531.133.354.208.523.163.336.242.475c.09.16.185.309.278.447s.2.277.319.426c.1.123.224.266.357.406.105.105.231.227.37.348s.253.217.39.318.274.2.408.277a3.83,3.83,0,0,0,.416.229,3.685,3.685,0,0,0,.425.189c.148.059.3.1.424.139s.264.057.415.078a2.446,2.446,0,0,0,.4.031c.069,0,.143-.006.218-.012s.139-.016.215-.027a1.532,1.532,0,0,0,.2-.047,1.47,1.47,0,0,0,.171-.051l.026-.01.008,0,.027-.012c.055-.021.11-.047.159-.07s.115-.064.184-.105l.025-.016a1.688,1.688,0,0,0,.145-.109c.056-.045.106-.086.162-.137.071-.078.143-.156.206-.24a2.317,2.317,0,0,0,.178-.273,2.042,2.042,0,0,0,.153-.307,2.859,2.859,0,0,0,.124-.34c.041-.133.074-.262.105-.406s.051-.285.068-.441.031-.324.037-.482.008-.344,0-.51l-.4-42.459c-.3-.047-.6-.105-.9-.166-.342-.072-.631-.143-.91-.215s-.611-.166-.927-.268c-.332-.1-.653-.213-.955-.322-.358-.133-.649-.242-.916-.35-.248-.1-.514-.213-.888-.373-.233-.1-.49-.215-.858-.383-.273-.123-.56-.258-.828-.381Zm-105.794,81.715h0c-.19-.115-.388-.23-.6-.357l-.414-.25-.132-.076c-.271-.164-.552-.33-.885-.529l-.224-.131-.235-.143-.194-.113c-.122-.072-.25-.145-.376-.223l-.224-.131c-.068-.041-.136-.082-.2-.121l-.217-.125-.383-.227v-.016h0l-.012-.008c-.1-.053-.311-.168-.562-.3l-.575-.309-.863-.467c-1.531-.828-3.044-1.656-4.5-2.457-1.9-1.043-3.468-1.928-4.669-2.627a22.565,22.565,0,0,1-2.571-1.619c-.248-.234-.468-.459-.665-.686-.23-.26-.431-.506-.617-.756s-.387-.537-.564-.82-.349-.582-.508-.885c-.14-.258-.278-.543-.428-.875-.127-.291-.253-.6-.373-.92-.126-.35-.229-.662-.317-.957-.1-.334-.189-.666-.267-.994-.068-.3-.134-.617-.194-.969-.055-.3-.1-.631-.146-.973-.034-.3-.064-.629-.091-.988s-.031-.687-.031-.99c.036-.016.07-.033.1-.049l.034-.02c.031-.014.063-.027.093-.043l.11-.051.062-.029c.084-.041.163-.08.229-.109l.021-.012.06-.023c.014-.01.027-.014.04-.023a.222.222,0,0,0,.038-.016l.026-.012.019-.01c.03-.014.057-.027.08-.037s.046-.021.071-.031a.4.4,0,0,0,.044-.023c.065-.031.134-.064.2-.092l.016-.012.157-.074,0,0c.025.258.064.529.1.76s.08.5.126.76c.047.221.1.486.159.744.057.242.115.484.184.736s.162.559.256.844c.085.256.178.514.287.791.115.293.219.529.317.74s.221.449.35.688a8.249,8.249,0,0,0,.444.721c.137.207.3.418.479.645.181.211.354.395.517.551a5.828,5.828,0,0,0,.546.465,4.639,4.639,0,0,0,.669.42,5.016,5.016,0,0,0,.706.3,4.458,4.458,0,0,0,.744.18,5.141,5.141,0,0,0,.785.059h.225c.067,0,.134-.008.205-.018a.41.41,0,0,0,.046-.008h.028c.037-.006.083-.01.132-.02l.038,0,.036-.01a.2.2,0,0,0,.049-.006,1.025,1.025,0,0,0,.107-.018c.224-.039.431-.082.611-.133s.384-.121.6-.207a5.435,5.435,0,0,0,.595-.268c.2-.1.4-.217.582-.334.15-.094.323-.213.526-.361.188-.146.354-.279.5-.418s.319-.293.476-.455.294-.314.45-.5a9.21,9.21,0,0,0,.771-1.074,9.6,9.6,0,0,0,.6-1.148,8.789,8.789,0,0,0,.415-1.186,7.511,7.511,0,0,0,.212-1.18l1.325-20.383,3.26-49.639a5.505,5.505,0,0,0,0-.682,3.344,3.344,0,0,0-.085-.576,1.972,1.972,0,0,0-.167-.469,1.364,1.364,0,0,0-.249-.359,1.062,1.062,0,0,0-.242-.2,1.108,1.108,0,0,0-.241-.115,1.251,1.251,0,0,0-.221-.053h-.017a1.055,1.055,0,0,0-.157-.012h-.061a.071.071,0,0,1-.027,0h-.011a.04.04,0,0,1-.011.006c1.371-1.369,2.739-2.725,4.066-4.021,1.306-1.277,2.646-2.576,4.095-3.967,1.62-1.553,2.926-2.795,4.109-3.91,1.222-1.15,2.666-2.5,4.108-3.832l-.1,1.889a9.094,9.094,0,0,0-.916.8,9.354,9.354,0,0,0-.812.93,10.759,10.759,0,0,0-.7,1.053,12.086,12.086,0,0,0-.595,1.18c-.088.205-.16.389-.225.559s-.122.344-.2.582c-.067.213-.129.43-.177.6-.062.238-.109.436-.149.619s-.08.359-.124.584c-.034.2-.065.4-.1.594-.028.229-.054.428-.074.605-.019.2-.038.41-.051.611l-1.644,29.861.343-.41c.685-.8,1.327-1.568,1.991-2.346.847-.994,1.615-1.893,2.35-2.752.675-.789,1.424-1.658,2.354-2.73.944-1.092,1.691-1.953,2.353-2.709.132.09.269.176.408.252s.294.156.428.219.28.123.444.184.313.105.458.148.292.076.447.107.306.057.458.08.329.037.481.045c.185.014.366.018.486.018a9.4,9.4,0,0,0,1.5-.133,11.867,11.867,0,0,0,1.61-.4,15.835,15.835,0,0,0,1.7-.654c.552-.25,1.155-.557,1.792-.918.251-.146.5-.287.736-.437.22-.131.456-.281.743-.471.267-.174.519-.35.755-.516s.476-.334.754-.547c.211-.156.418-.309.625-.477.181-.139.383-.3.617-.49l.023-.02c.19-.158.39-.324.583-.488l.1-.082.045-.039c.148-.131.3-.266.447-.4l.074.207c.012.037.024.072.039.109a.229.229,0,0,0,.009.023l0,.018c.009.021.016.043.022.061l.008.023,0,0c.01.021.018.047.027.076a.069.069,0,0,1,.007.021l0,.008c0,.01.007.018.011.029a.029.029,0,0,1,0,.018l0,.006h0a.015.015,0,0,1,0,.012s0,.006,0,.01l.017.037.075.217c-.517.43-.994.852-1.419,1.25-.467.436-.9.861-1.276,1.264s-.77.828-1.135,1.268-.693.857-.981,1.262c-.185.254-.356.51-.516.754s-.316.506-.458.754c-.131.227-.267.477-.405.746-.128.254-.243.5-.345.742-.132.3-.244.609-.316.814-.1.3-.181.563-.244.809-.071.271-.132.541-.181.8s-.078.514-.105.785l-1.85,41.85c-.867,1.064-1.889,2.318-2.879,3.543-.918,1.141-1.9,2.361-2.888,3.6-1.125,1.408-2.044,2.566-2.894,3.645-.973,1.225-1.944,2.463-2.888,3.668-1.1,1.4-2.16,2.773-2.857,3.672-.9,1.164-1.841,2.381-2.866,3.723-.971,1.264-1.936,2.531-2.864,3.754-.98,1.291-1.951,2.58-2.85,3.779Zm6.745-65.078h0l-2.437,44.246h0l.006,0-.17,3.061c-.017.15-.024.285-.027.4s0,.264,0,.387.019.256.032.361c.02.135.037.244.061.346a2.542,2.542,0,0,0,.091.322,2.972,2.972,0,0,0,.116.289,2.915,2.915,0,0,0,.146.254,1.948,1.948,0,0,0,.174.221,1.5,1.5,0,0,0,.258.221,1.477,1.477,0,0,0,.613.254,1.578,1.578,0,0,0,.357.033,2.3,2.3,0,0,0,.271-.016c.091-.01.179-.025.274-.045l.011,0c.083-.02.178-.045.3-.08a2.841,2.841,0,0,0,.31-.115,2.657,2.657,0,0,0,.4-.191,3.355,3.355,0,0,0,.39-.264,4.041,4.041,0,0,0,.368-.314c.115-.113.233-.242.35-.379.094-.113.187-.236.29-.381.086-.127.177-.264.272-.424s.179-.312.258-.465c.084-.168.164-.338.235-.506.061-.139.129-.3.189-.465s.121-.332.173-.486.1-.307.153-.5c.047-.156.091-.332.135-.521.033-.131.063-.273.1-.447.022-.111.041-.225.061-.334l0-.006.018-.109c.021-.131.037-.258.056-.389l.006-.045c.017-.131.03-.268.041-.414l1.468-28.35,0-.006h-.009l.786-15.227h0a.066.066,0,0,0-.015,0,.243.243,0,0,1-.066.027l-.1.041c-.038.014-.073.031-.11.045l-.06.02-.267.1-.428.131c-.154.045-.32.086-.5.127-.225.053-.445.094-.593.121-.214.037-.435.064-.658.088s-.467.031-.7.031a6.956,6.956,0,0,1-.735-.041,5.041,5.041,0,0,1-.681-.123,4.765,4.765,0,0,1-.629-.2,4.823,4.823,0,0,1-.575-.283Zm37.24,50.535h0c-.472-.25-.981-.523-1.605-.863-.594-.326-1.061-.588-1.466-.818-.472-.271-.924-.531-1.347-.779s-.834-.5-1.252-.756c-.456-.283-.947-.6-1.462-.924-.476-.311-.936-.621-1.366-.916-.467-.324-.895-.635-1.281-.92-.436-.32-.842-.627-1.206-.918-.253-.209-.468-.406-.658-.6a6.961,6.961,0,0,1-.576-.643c-.169-.211-.335-.436-.491-.674s-.29-.475-.418-.713c-.106-.205-.219-.439-.35-.742-.1-.244-.2-.506-.285-.771s-.162-.529-.229-.789c-.07-.285-.128-.553-.178-.812-.1-.541-.171-1.084-.221-1.662-.046-.537-.073-1.092-.083-1.691-.022-1.127.011-2.232.051-3.357,0-.029,0-.062,0-.092s0-.051,0-.074v-.039l0-.025a.579.579,0,0,1,0-.092v-.086c0-.025,0-.043,0-.062,0-.045,0-.092,0-.133v-.008l1.335-33.045a12.525,12.525,0,0,1,.067-1.348,9.792,9.792,0,0,1,.213-1.252,9.416,9.416,0,0,1,.35-1.162,10.063,10.063,0,0,1,.479-1.1,13.459,13.459,0,0,1,1.323-2.078c.248-.324.517-.658.825-1.018.251-.291.537-.605.926-1.021.392-.453.822-.941,1.321-1.5.469-.527.939-1.037,1.4-1.52s.932-.986,1.483-1.553c.449-.463.967-.984,1.581-1.592.5-.5.94-.928,1.345-1.316.484-.469.96-.922,1.453-1.389.554-.529,1.059-1,1.583-1.482.751-.7,1.271-1.174,1.743-1.6.335.2.672.389,1.007.563.308.16.651.328,1.021.49.307.137.646.271,1.033.414s.735.254,1.048.342.661.182,1.039.262.715.143,1.047.186.679.088,1.049.119.716.031,1.05.031c.468,0,.963-.021,1.476-.07a13.62,13.62,0,0,0,1.464-.229,14.673,14.673,0,0,0,1.44-.367c.463-.143.94-.314,1.415-.512s.93-.42,1.393-.666c.43-.23.882-.5,1.344-.807.437-.289.869-.6,1.292-.941s.845-.7,1.236-1.074c.006.008.009.014.014.016l0,.008c.006.006.008.012.014.018a.237.237,0,0,0,.014.02l.006,0,0,.01c.006,0,.012.014.017.016a.17.17,0,0,1,.011.018.044.044,0,0,1,.014.016.059.059,0,0,1,.012.014s.007.008.011.012l.014.018.021.027a1.192,1.192,0,0,1,.088.113l.009.008c.008.008.015.018.021.025l.011.016a.208.208,0,0,0,.03.033l.012.018c.007.01.015.021.021.029l0,0c.007.01.014.014.017.023s.024.029.038.047l.011.014.02.018c.017.025.03.041.044.059l0,.008.007.008.026.033.177.219a16.35,16.35,0,0,0-1.5,1.252,17.426,17.426,0,0,0-1.354,1.42,19.3,19.3,0,0,0-1.2,1.574,17.734,17.734,0,0,0-1.025,1.713,16.478,16.478,0,0,0-.828,1.814,15.7,15.7,0,0,0-.6,1.85,16.628,16.628,0,0,0-.37,1.877,14.418,14.418,0,0,0-.123,1.863l-.3,13.184c-1.314,1.486-2.79,3.17-4.646,5.3-1.477,1.7-3.038,3.506-4.642,5.373-1.507,1.76-3.062,3.59-4.619,5.439-1.513,1.791-3.055,3.631-4.584,5.475l-.207,6.164c.006.141.014.279.027.432s.037.307.061.428.051.266.095.422a3.929,3.929,0,0,0,.123.412c.034.1.081.215.148.383.054.129.111.252.177.375.085.162.146.271.206.371.074.127.15.246.234.365a7.253,7.253,0,0,0,.5.641,8.411,8.411,0,0,0,.592.623c.209.205.439.408.686.605s.494.381.773.58c.223.152.467.313.727.469s.539.322.793.461.543.287.855.441.62.289.919.418c.281.125.538.234.764.326l.141.057.11.041c.175.068.356.139.548.211.3.109.57.207.845.3l.895.3c.428-.516.845-1.041,1.239-1.559.466-.611.923-1.242,1.354-1.875.5-.73.954-1.449,1.357-2.135.45-.762.869-1.545,1.245-2.328.194-.4.378-.816.546-1.223.157-.375.31-.773.454-1.184.124-.357.243-.732.363-1.152.1-.371.188-.74.266-1.111s.139-.746.176-1.074c.045-.365.071-.713.085-1.037s.008-.666-.011-1-.054-.646-.1-.957c-.027-.158-.058-.312-.088-.455-.033-.162-.075-.324-.107-.449-.041-.148-.085-.289-.134-.439s-.1-.279-.154-.43c-.068-.168-.126-.3-.187-.434-.079-.164-.146-.3-.211-.42s-.139-.256-.234-.412-.184-.289-.258-.4c-.082-.123-.178-.25-.3-.4-.086-.115-.19-.242-.319-.391s-.245-.271-.351-.381c-.148-.148-.268-.26-.373-.359-.145-.131-.285-.252-.417-.355-.162-.137-.308-.252-.444-.354s-.28-.2-.475-.336c-.211-.139-.364-.238-.5-.32.02-.027.038-.053.061-.088.011-.02.024-.037.037-.057l.007-.01.008-.016c.012-.02.025-.039.036-.055l.017-.025.014-.021.014-.021c.021-.033.044-.066.064-.1l.015-.021.075-.117.007-.008.006-.01a.206.206,0,0,1,.014-.021c.011-.016.022-.033.031-.049l.023-.033a.6.6,0,0,1,.05-.076l.032-.051a1.037,1.037,0,0,1,.056-.088l.007-.01c.018-.025.035-.055.055-.082s.037-.059.059-.092l.066-.1c.392.2.778.428,1.148.666.333.215.681.455,1.031.729a10.867,10.867,0,0,1,.91.8,10.382,10.382,0,0,1,.787.861,9.785,9.785,0,0,1,.668.926,8.636,8.636,0,0,1,.542.984,8.3,8.3,0,0,1,.419,1.047,9.352,9.352,0,0,1,.295,1.111,10.007,10.007,0,0,1,.165,1.111,11.093,11.093,0,0,1,.051,1.168c0,.375-.02.787-.061,1.221-.039.408-.1.836-.173,1.266-.066.363-.151.76-.255,1.186s-.226.826-.348,1.221c-.137.434-.28.844-.436,1.256-.144.381-.315.8-.528,1.289-.129.291-.327.729-.543,1.168-.175.359-.382.76-.614,1.189-.214.4-.441.8-.677,1.2-.22.375-.469.781-.74,1.213s-.5.768-.7,1.066c-.212.314-.449.652-.741,1.061-.265.367-.529.719-.785,1.051-.294.387-.592.76-.815,1.037-.917,1.123-1.649,2.01-2.38,2.891-.712.859-1.431,1.719-2.262,2.7-.745.883-1.467,1.725-2.2,2.572-.706.809-1.428,1.629-2.206,2.5Zm-1.568-61.594-1.054,31.336c.494-.59,1.031-1.232,1.856-2.213l.728-.861.266-.316c.137-.164.274-.326.408-.488.154-.18.307-.361.456-.539.66-.777,1.25-1.471,1.856-2.182.8-.943,1.335-1.564,1.843-2.154l.614-20.912-.047,0h-.2a.14.14,0,0,1-.048.006c-.051,0-.1,0-.147,0h-.149c-.282,0-.581-.01-.888-.027s-.59-.037-.856-.07c-.319-.037-.587-.074-.819-.119-.264-.043-.525-.1-.784-.158-.3-.074-.579-.156-.837-.242s-.523-.186-.783-.3a8.036,8.036,0,0,1-.733-.354c-.238-.131-.466-.268-.677-.41Zm31.067,56.424h0l-.148-.129-.058-.049a.292.292,0,0,1-.055-.047h0l0,0h0c-.028-.027-.062-.055-.1-.088l-.135-.119-.01,0-.017-.018-.007-.008a.124.124,0,0,0-.017-.014l-.029-.025-.017-.016-.019-.014-.045-.039c-.006-.006-.014-.01-.02-.016l-.011-.012c-.038-.029-.074-.061-.112-.094l-.014-.014-.01-.008-.007-.008s0,0-.008-.006l0,0s-.008-.006-.012-.006l-.006-.008c-.749-.648-1.541-1.324-2.355-2.02-.93-.791-1.689-1.432-2.389-2.012-.767-.637-1.561-1.281-2.43-1.973s-1.687-1.311-2.477-1.889l.1-.076.049-.037c.066-.055.131-.109.191-.162l.035-.029.024-.025c.017-.014.033-.029.05-.041.129-.115.266-.248.406-.395.15-.162.3-.34.449-.531.077-.1.179-.236.272-.379.076-.113.155-.238.242-.387l.012-.025c.068-.123.138-.248.2-.377s.126-.27.184-.412c.067-.172.13-.348.184-.523a5.144,5.144,0,0,0,.133-.537c.041-.187.068-.381.088-.543.02-.2.033-.381.035-.555l.861-45.426c0-.2,0-.393-.011-.59s-.024-.375-.047-.545-.055-.346-.09-.5a4.039,4.039,0,0,0-.129-.449c-.042-.123-.094-.242-.138-.34a3.1,3.1,0,0,0-.164-.3,2.314,2.314,0,0,0-.192-.271,2.22,2.22,0,0,0-.222-.236,2.072,2.072,0,0,0-.428-.307,1.894,1.894,0,0,0-.424-.18,2.027,2.027,0,0,0-.386-.084,2.488,2.488,0,0,0-.3-.02h-.081a.114.114,0,0,1-.036,0,.01.01,0,0,0-.01,0h-.053a.206.206,0,0,0-.037.01h-.013c.618-.574,1.3-1.2,2.022-1.855l.406-.369c.68-.619,1.393-1.262,2.082-1.881l.349-.316.428-.381.343-.307c.539-.48,1.1-.979,1.662-1.479.785-.7,1.578-1.4,2.414-2.131.239.191.478.387.735.592l.258.2.234.189.127.105c.127.1.243.193.357.287.214.172.409.328.572.463l.179.146c.14.111.279.227.424.342.069.059.14.115.212.174s.157.129.239.193l.164.133c.343.281.7.572,1.054.863l-.026,2.266c.557-.555,1.178-1.168,1.8-1.777l1.8-1.77c.23-.225.451-.441.663-.646l.185-.182c.334-.326.649-.633.948-.926.653-.637,1.235-1.207,1.782-1.734.066.061.138.123.212.188l.058.049.035.035c.071.061.148.123.238.2l.026.023.055.043c.111.09.227.182.328.256.148.115.263.193.337.248.143.1.277.193.376.258.135.086.268.168.378.236.02.014.04.021.061.035l.033.02.035.021c.083.047.166.1.251.143.122.07.24.129.38.2s.288.143.413.2c.157.074.3.133.411.176s.265.105.407.152c.124.043.255.084.406.129s.279.072.431.1c.122.027.258.055.422.08s.288.035.417.043c.148.014.279.018.4.018h.238a.05.05,0,0,1,.03-.006,4.455,4.455,0,0,0,.521-.061,4.871,4.871,0,0,0,.5-.115,4.718,4.718,0,0,0,.485-.182,3.29,3.29,0,0,0,.463-.236,4.153,4.153,0,0,0,.406-.266c.126-.092.255-.2.378-.309s.244-.24.352-.355c.123-.137.23-.268.327-.4s.186-.266.275-.412c.077-.123.157-.258.244-.43.077-.15.148-.316.21-.459s.118-.307.173-.477.1-.334.13-.475c.04-.172.071-.332.095-.482.021-.135.039-.277.056-.482.011-.141.016-.291.016-.477,0-.133-.009-.256-.021-.377-.011-.1-.025-.234-.051-.377s-.046-.264-.072-.383-.07-.258-.107-.383-.082-.25-.129-.377-.1-.252-.153-.369-.118-.25-.176-.361-.131-.244-.2-.357c-.055-.09-.112-.182-.172-.273l-.046-.068,0-.006c-.071-.1-.156-.221-.244-.336-.069-.092-.15-.191-.258-.316-.091-.1-.187-.207-.276-.3l-.026-.027-.016-.014c-.083-.082-.171-.17-.259-.246s-.18-.162-.312-.27c-.1-.08-.2-.158-.326-.246a3.767,3.767,0,0,0-.332-.221l0-.951c.209.053.393.107.563.168a5.2,5.2,0,0,1,.536.217,5.482,5.482,0,0,1,.514.258c.189.105.343.2.488.3s.287.205.437.328.289.252.405.365c.135.135.26.264.375.4s.245.293.344.43.206.293.3.447.187.318.264.471.153.322.222.492a5.421,5.421,0,0,1,.187.512c.052.168.1.344.146.523.044.213.075.383.1.541s.041.33.061.541.017.389.014.553c0,.277-.013.5-.022.7s-.027.447-.052.713c-.027.24-.052.479-.084.705-.034.258-.08.529-.112.709-.048.262-.092.48-.143.686-.052.244-.106.469-.166.689s-.12.441-.191.68c-.071.223-.146.438-.226.66s-.161.447-.246.656c-.077.189-.168.4-.277.645-.122.266-.214.457-.3.625-.113.225-.222.43-.325.611s-.21.365-.354.6c-.119.191-.242.387-.371.572-.113.162-.247.357-.4.559-.129.17-.268.35-.421.531-.129.158-.274.326-.442.516-.151.164-.308.332-.467.494-.2.2-.348.34-.485.459-.146.135-.3.27-.5.438-.168.139-.346.279-.529.414-.165.123-.346.25-.549.381s-.39.252-.567.352c-.2.117-.387.221-.576.316a11.282,11.282,0,0,1-1.262.555,10.062,10.062,0,0,1-1.3.4,12.013,12.013,0,0,1-1.342.24,12.208,12.208,0,0,1-1.376.08,11.953,11.953,0,0,1-1.44-.088,12.909,12.909,0,0,1-1.461-.252c-.5-.119-1-.262-1.47-.426s-.971-.359-1.479-.59l-.032.031-.007.008c-.028.027-.061.059-.1.1-.049.053-.092.09-.126.121l-.052.053a.744.744,0,0,1-.06.063c-.028.025-.053.053-.076.074l-.029.029-.008.006-.009.012-.029.027-.015.016-.042.041c-.015.018-.031.031-.045.047l0,0c-.018.02-.038.039-.058.061l-.012.012-.007.006-.007.008a.042.042,0,0,0-.011.012.422.422,0,0,1-.044.041l-.039.037c-.027.027-.055.059-.082.086l-.006,0-.019.023-.022.018-.01.012-.137.137-.451,37.75a5.837,5.837,0,0,1-.027.76,6.69,6.69,0,0,1-.126.771,6.15,6.15,0,0,1-.223.773,7.736,7.736,0,0,1-.7,1.475c-.133.219-.287.445-.455.672-.154.2-.329.408-.521.615-.168.178-.362.361-.576.551.58.482,1.133.949,1.741,1.465.526.441.991.832,1.4,1.182l.3.254.035.031.246.207c.611.521,1.065.912,1.477,1.26.51.439,1.027.883,1.527,1.316l.173.148c.115-.121.228-.244.344-.367l.1-.111c.287-.312.59-.635.929-.994l.131-.141c.535-.57.916-.979,1.259-1.342l1.394-1.477c.225-.238.458-.482.682-.719l.208-.223.509-.535-.017,2.748c-1.42,1.449-2.484,2.543-3.449,3.543-1.067,1.1-2.167,2.244-3.456,3.59l-.271.283-.34.355c-.927.971-1.887,1.975-2.84,2.986-1.293,1.371-2.365,2.51-3.425,3.645Z" transform="translate(-8169.399 -17037.873)" fill="#f3e4bd"/></g></svg>