<svg xmlns="http://www.w3.org/2000/svg" xmlns:xlink="http://www.w3.org/1999/xlink" width="1080" height="1080" viewBox="0 0 1080 1080"><defs><clipPath id="b"><rect width="1080" height="1080"/></clipPath></defs><g id="a" clip-path="url(#b)"><path d="M404.129,641.519c0-58.5,45.5-90.715,124.348-93.259v-8.48c-91.565,2.543-141.3-15.825-141.3-65,0-47.479,52.284-67.827,124.348-67.827,25.435,0,52.281,3.39,81.956,8.477v-8.477c-144.131-7.63-186.52-72.914-186.52-135.651C406.955,184.826,494,118.7,650,118.7c77.154,0,163.064,25.435,223.261,93.259l5.652-5.652C833.126,114.738,694.649,76.586,596.3,70.652V56.521s50.722-6.178,91.7-20.307A320.343,320.343,0,0,0,760.215,0C850.93,54.26,907.169,152.608,907.169,237.389c0,139.044-94.673,200.652-251.518,200.652H556.737c-39.849,0-62.175,3.108-62.175,22.609,0,16.957,21.762,19.783,39.566,19.783,53.413,0,155.716-25.435,243.041-25.435,128.87,0,158.262,74.89,158.262,138.477,0,79.7-51.437,183.7-276.956,183.7C472.8,777.172,404.129,711.889,404.129,641.519ZM717.823,525.651c-83.087,1.694-181.716,16.955-206.3,42.389,0,56.806,79.13,70.652,146.957,70.652,80.541,0,147.8-20.348,146.954-67.827,0-34.3-37.234-45.264-82.4-45.264Q720.44,525.6,717.823,525.651ZM556.737,296.739c0,34.759,34.194,62.173,96.085,62.173,61.043,0,96.087-24.588,96.087-59.347,0-37.305-35.891-62.175-96.087-62.175C591.778,237.389,556.737,259.434,556.737,296.739ZM115.163,643.922a400.409,400.409,0,0,1-55.61-16.393A374.792,374.792,0,0,1,2.826,600.541V436.627H14.132c66.929,67.738,147.592,81.958,203.477,81.958,15.884,0,38.48-1.526,55.921-8.8,17.275-7.2,26.035-18.5,26.035-33.594,0-11.161-8.666-19.564-27.269-26.447-16.891-6.252-39.81-10.609-66.351-15.658-21.482-4.085-45.831-8.714-69.256-14.991-26.813-7.183-48.623-15.5-66.674-25.427a163.743,163.743,0,0,1-28.026-19.216,122.558,122.558,0,0,1-22.169-24.934A114.639,114.639,0,0,1,5.245,317.837,142.754,142.754,0,0,1,0,278.367c0-24.773,5.944-47.5,17.667-67.565,11.013-18.842,27.019-35.2,47.581-48.621,19.6-12.8,42.939-22.685,69.358-29.387a338.065,338.065,0,0,1,83-9.861A383.628,383.628,0,0,1,325.978,138.8c31.185,9.184,60.865,22.156,85.834,37.516-21.976,27.241-33.119,59.2-33.119,94.988a154.833,154.833,0,0,0,3.525,32.877c-48.908-33.859-113.614-54.074-173.091-54.074-23.146,0-42.654,3.591-56.414,10.385C137.642,267.937,130,278.7,130,292.5c0,12.234,9.759,21.317,30.717,28.589,18.977,6.582,45.772,11.171,74.14,16.031,29.634,5.074,63.218,10.828,94.2,19.89,35.55,10.4,62.221,23.563,81.539,40.25-44.966,22-51.681,58.011-51.681,77.522,0,33.66,16.533,59.682,47.81,75.251,3.047,1.516,6.3,2.956,9.652,4.281-20.177,16.06-32.984,36.934-38.068,62.048-19.992,12.471-44.086,22.014-71.611,28.362-27.358,6.313-58.281,9.513-91.913,9.513A468.375,468.375,0,0,1,115.163,643.922Z" transform="translate(72.284 151.414)" fill="#fff" stroke="rgba(0,0,0,0)" stroke-miterlimit="10" stroke-width="1"/></g></svg>