<svg xmlns="http://www.w3.org/2000/svg" width="96.251" height="93.147" viewBox="0 0 96.251 93.147"><defs><style>.a{fill:#fff;}</style></defs><path class="a" d="M-3183.993,9448.377v-18.108h10.871v11.884l7.247,4.132,7.247-4.132v-24.277h-25.365v-41.933l18.118-10.356h0l18.118,10.356v18.109h-10.871v-11.884l-7.247-4.132h0l-7.247,4.132v24.276h25.365v41.933l-18.118,10.356Zm40.878-26.371h10.361v4.642l4.133-2.094v-6.679h-14.495v-39.33l25.365,14.487v9.281h-10.871v-3.056l-4.133-2.095v9.281h15v24.844l-25.365,14.486Zm-70.886,9.282v-9.282h10.871v3.113l4.133,2.037v-9.281h-15v-24.843l25.365-14.487v23.769H-3199v-4.641l-4.133,2.094v6.678h14.494v39.33Z" transform="translate(3214.001 -9365.586)"/></svg>